<svg id="Capa_1" data-name="Capa 1" xmlns="http://www.w3.org/2000/svg" viewBox="0 0 610.92 610.92"><defs><style>.cls-1{fill:#fff;}.cls-2{fill:#3a4d64;}.cls-3{fill:#f49b4b;}.cls-4{fill:#6f171a;}.cls-5{fill:#70181a;}.cls-6{fill:#c9cad2;}.cls-7{fill:#838898;}.cls-8{fill:#fac696;}.cls-9{fill:#6f181a;}.cls-10{fill:#f9c494;}.cls-11{fill:#f49b4c;}.cls-12{fill:#fdfdfe;}.cls-13{fill:#828798;}.cls-14{fill:#848999;}.cls-15{fill:#818696;}.cls-16{fill:#fffbf7;}.cls-17{fill:#f9f3f0;}.cls-18{fill:#e1d7d3;}.cls-19{fill:#adafbb;}.cls-20{fill:#ece2dd;}.cls-21{fill:#c2c3cd;}.cls-22{fill:#a5a7b4;}.cls-23{fill:#fee7d2;}.cls-24{fill:#b2b3bf;}.cls-25{fill:#fddfc5;}.cls-26{fill:#fabf8b;}.cls-27{fill:#f59d4f;}.cls-28{fill:#f59b4c;}.cls-29{fill:#f6eae4;}.cls-30{fill:#a2655c;}.cls-31{fill:#e6d0c7;}</style></defs><title>pose3</title><path class="cls-1" d="M101,306.57q0-151.41,0-302.82c0-2,.25-2.67,2.52-2.67q303,.1,605.94,0c2.05,0,2.45.43,2.45,2.46q-.09,303,0,605.92c0,1.85-.16,2.53-2.38,2.53q-303.11-.11-606.22,0c-2,0-2.31-.4-2.31-2.32Q101,458.11,101,306.57Z" transform="translate(-100.94 -1.08)"/><path class="cls-2" d="M270,395.54c-.41,15-.76,29.92-1.25,44.87-.47,14.12-.38,28.23-.06,42.36.43,18.28-1.74,36.2-8,53.52a121.33,121.33,0,0,0-3.7,13.89,7.91,7.91,0,0,1-6.57,6.46c-4.49,1-9,.71-13.5.46-1.67-.1-2.78.08-3.66,1.68-6.26,11.39-15.87,16.28-28.82,14.9-5.33-.57-10.71-.67-15.91-2.07-6.34-1.71-7.24-4.55-3.23-9.65.52-.65,1.06-1.29,1.78-2.17-3.7-1.24-5.35-4.31-7.07-7.29-6.64-11.5-16.81-16.45-29.75-15.15-7.81.79-13.89-1.13-18.34-7.69-.53-.77-1.18-1.46-1.76-2.21-3.7-4.74-4.16-6.78.28-10.93,13.46-12.61,17.57-29.34,20.63-46.31,3.41-18.86,5.9-37.9,7.89-57,1.3-12.54,1.09-25.18,1.45-37.78.5-17.39.51-34.84,3.54-52,3.55-20.09,10.85-38.86,20.8-56.65,3-5.34,5.92-10.71,9.35-15.76a5.33,5.33,0,0,0,.43-5.88,351.4,351.4,0,0,1-20.9-62.19,69.68,69.68,0,0,1-1.49-19.64c.39-7.06,3.45-13.12,8.06-18.26,9.68-10.79,19.24-21.69,29.33-32.1a65.63,65.63,0,0,1,7.37-6.57c1.62-1.23,3.36-2.23,5.44-1.84s2.11-.6,1.92-2.17c-.94-7.9-5.3-13.09-12.59-15.91a46.48,46.48,0,0,0-10.58-2.91c-1.57-.21-3.29-.55-3.57-2.59s1.17-2.58,2.53-3.3a61.56,61.56,0,0,1,22-7.11c-5-3.21-10.24-4.59-15.47-6-1.27-.34-2.56-.59-3.83-.95s-2.11-1-2.15-2.3,1-2,2.09-2.35c5.51-1.88,11.21-2.21,17-2.13,4.51.06,8.93.87,13.94,1.59a101.4,101.4,0,0,0-10-13.12L220.54,42a2.7,2.7,0,0,1-.76-3.09c.58-1.29,1.83-1.22,2.95-1a57.14,57.14,0,0,1,12.65,3.82,206.53,206.53,0,0,1,20,9.92c-1.13-4.68-3.29-8.39-5.4-12.13A21.92,21.92,0,0,1,248.63,37a2.45,2.45,0,0,1,.43-2.88,2.21,2.21,0,0,1,2.62-.36c18.28,8.28,34,19.44,42.4,38.52a50.72,50.72,0,0,1,3.56,14.86c9.39-3,17.79-.31,25.95,3.65a55.91,55.91,0,0,1,15.71,10.87c4.84,4.91,8.12,11,11.56,16.92,5.77,10,10,20.61,14.55,31.13a83.42,83.42,0,0,0,8.45,15.85c1.32,2.42,3,4.63,4.36,7,.77,1.5,1.47,3,2.33,4.48,9.6,16,14.43,33.58,17.7,51.73A178.79,178.79,0,0,1,401,248c-1.06,1.73-.49,3.23.65,4.66.42,4.14-.25,8.25-.47,12.36a140.28,140.28,0,0,1-4.85,30.29,39.28,39.28,0,0,1-5.88,12.71c-3.12,2.49-4.24,2.36-8.73-1-.7-.43-1.5-.69-2.2-1.13a7.47,7.47,0,0,0-3.4-2c-1.33-.48-2.64-1-3.95-1.55-1.66-.65-2.37-.11-2.65,1.65-1.13,6.94-.19,13.67,1.78,20.34,1.41,4.8,3.58,9.31,5.05,14.08.45,1.41,1.09,2.74,1.61,4.13a6.86,6.86,0,0,1,.32.9c.93,4.63.29,9.31.48,14-.09,1,0,2-.1,2.94-.31,3.12.47,6.26-.26,9.36a5.6,5.6,0,0,0-.46,4.82c.07,4.62-1.16,6-5.53,6.14a3.07,3.07,0,0,0-1.58.45c-3,1.81-3,1.8-6.2.56-.7,1.12-.66,2.51-1.27,3.67-1.32,2.52-3,3.27-5.52,2.18a2,2,0,0,0-2.69.35c-2.31,2.18-4.17,1.75-5.82-1.18a51.54,51.54,0,0,1-6-19.58c-.26-2.15-.61-4.29-.78-6.45-.13-1.55-.5-1.93-2.3-1.18-3.3,1.37-5.68,3-7,6.66-1.08,3-4.46,2.79-6.26.08-1.65-2.49-2.25-5.37-2.77-8.24-2.73-15-8.68-28.09-20.44-38.32-4.48-3.89-8.93-7.79-13.54-11.52-1.49-1.2-2.75-1.51-4.56-.47a29.17,29.17,0,0,1-7.24,3.15A18.51,18.51,0,0,1,261.19,307a78.61,78.61,0,0,1-15.08-16.74,58.63,58.63,0,0,0-6-7.5c-3.38-3.66-7.57-5.11-12.38-5.18-1.6,0-3.2,0-4.8,0-8.24.09-14.71-2.81-18.24-10.71-2.15-3.55-4-7.27-5.94-10.91-.73-1.37-1.21-1.42-2.07-.12-2.15,3.22-3.94,6.63-5.87,10-11.72,20.34-20.25,41.82-23.21,65.27-.78,6.24-1.17,12.52-1.49,18.82-.7,14.09-.95,28.19-1.2,42.29-.34,18.92-3,37.66-5.74,56.37-1.81,12.19-3.14,24.45-6.43,36.38-2.61,9.49-5.71,18.74-11.7,26.73a63.3,63.3,0,0,1-6.81,7.9c-1.67,1.6-1.77,3.15-.27,4.93,1.15,1.36,2.25,2.78,3.36,4.18,3.49,4.4,8.33,4.33,13.17,3.78,14.42-1.62,28.37,6.82,33.59,17.37A20.48,20.48,0,0,0,186,553a4,4,0,0,0,3.88,1.8c2.14-.26,4.34.16,6.44-.55,11.4-1.39,22.78-3,34.3-2.46,4.79.23,9.57.72,14.37.57,5.64-.18,6.66-.88,7.85-6.37,1.76-8.12,4.61-15.91,6.9-23.86,2.34-8.11,3.13-16.41,3.72-24.79.44-6.3.53-12.59.49-18.89,0-4.51-.64-9-.59-13.52.23-19.84,1-39.67,1.24-59.52.24-22.74,3.36-45.18,7.87-67.44.34-1.67.89-3.19,2.84-3.36,1.79-.14,2.5,1,2.52,2.66-1.56,12.88-4.6,25.54-5.94,38.46a14.8,14.8,0,0,0,1,6.91c6.36,16.82,13.61,33.25,21.47,49.42,6,12.45,11.24,25.27,16.34,38.12,5.72,14.43,11.8,28.71,17.77,43,2.18,5.21,4.11,10.52,6,15.83,5.13,14.3,12.77,27,23.7,37.64a18.84,18.84,0,0,0,9.21,5.17,66.09,66.09,0,0,0,16.21,1.09c11.35-.3,22.45-2,33.54-4.14,1.58-.3,3.11-.78,4.68-1.08,7.4-1.5,14.5-4.07,21.76-6.07,2.08-.57,2.43-1.79,1.61-3.61-4.85-10.8-5.38-22.41-6.58-33.92-1.75-16.85-3.45-33.74-8.76-50-3.77-11.49-9-22.33-14.5-33.07-4.06-8-8.16-15.92-12.17-23.92-5.06-10.1-8.09-20.86-10.61-31.81-1.67-7.3-4-14.31-8.62-20.39-1-1.38-1.52-3,.09-4.27s3-.21,4.15,1a29.59,29.59,0,0,1,5.53,8.81,111.71,111.71,0,0,1,5.73,19.19,127.25,127.25,0,0,0,10.42,28.28c7.44,15.11,15.94,29.7,22.07,45.46a164.77,164.77,0,0,1,9.91,40.78c.49,4.2,1.33,8.36,1.5,12.6.55,3.49.6,7,1.08,10.54.39,3.35.72,6.71,1.06,10.07a69.37,69.37,0,0,0,4.9,18.46,13.13,13.13,0,0,1,.88,7.44c-.25,1.31-.19,2.42,1,3.22a16.54,16.54,0,0,0,1.91,1.52c1.13.87,2,2,3.16,2.86,3.46,2.23,5.67,5.7,8.4,8.64a105.35,105.35,0,0,0,8.31,8.33,2.92,2.92,0,0,1,.62,1.84c2.14,3.93,1.91,5.3-1.48,7.92a51.2,51.2,0,0,1-10.21,6.5c-12.12,5.45-23.42,1.58-29.62-10.13a22.25,22.25,0,0,1-1.65-3.58c-2-6.08-6.75-9.17-11.78-12.62-5.67-3.89-11.1-2.59-16.82-1.77a148.45,148.45,0,0,1-30.37,1.55c-7.17-.43-13.43-2.79-18.68-8.07-11.17-11.24-18.92-24.47-24.33-39.24-2.68-7.33-5.69-14.54-8.55-21.8a3.71,3.71,0,0,0-1.39-2,41.39,41.39,0,0,0-2.45-6.56c-3.73-9.31-7.59-18.56-11.16-27.93-8-20.89-17.86-40.9-27.13-61.21-.35-.76-.8-1.48-1.2-2.22a47.34,47.34,0,0,1-6.29-14.27,5.27,5.27,0,0,0-.94-2.31c-.27-.68,0-1.46-.42-2.17-.1-.31-.44.08-.2.16.53.16.39.76.44,1.22C270.34,392.6,270.29,394.08,270,395.54Z" transform="translate(-100.94 -1.08)"/><path class="cls-3" d="M376.72,303.42c1.12.55,2.83.33,2.93,2.24a5.64,5.64,0,0,1,1.94,2.76c3.92,10.45,19.27,14.79,29.09,8.9,3.87-2.31,8.09-4,12-6.29a26.67,26.67,0,0,1,9.22-3.41,303.21,303.21,0,0,0,32-6.95,43.36,43.36,0,0,1,12-1.39c8.84.08,17.67.11,26.4-1.67,6.08-1.25,11.74-3.39,16.46-7.59,3.43-3.06,7.73-3.67,12-4.23a3.47,3.47,0,0,1,.85-.05c6.67.67,10.75-3.15,14.33-8.05,3.83-5.25,6.84-11,11-16a33.1,33.1,0,0,1,4.12-4.25,3.85,3.85,0,0,1,4.23-.62,3.3,3.3,0,0,1,1.9,3.75,45.63,45.63,0,0,1-3,11.43c-.53,1.29-1.53,2.28-3.1,1.79s-2.06-1.81-1.94-3.36a28.19,28.19,0,0,1,1.14-4.19c-5,5.92-8,13-13.29,18.55,6.4-.2,12.32-2.13,18.27-3.94,5.48-2,10.9-4.14,16.23-6.53a61.72,61.72,0,0,1,13.69-4.38,9,9,0,0,0,7.1-5.67,87,87,0,0,0,5.75-20c1.6-9,3.19-18,4.44-27,.73-5.29-.48-9.34-4.81-12.92-8.28-6.84-17.87-11.48-27-16.94-6.69-4-14-7-20.51-11.31-3.84-2.54-6.69-6-9.72-9.35-1.59-1.74-1.48-4.25-1.58-6.47-.19-4.54-1.08-8.73-4.32-12.2a9,9,0,0,1-2.39-4.44c-1.11-6.49-5.26-11.38-8.62-16.66a11.66,11.66,0,0,1-1.58-10.18,114.33,114.33,0,0,1,7.51-18.55,101.92,101.92,0,0,0,6.66-15.55,36.31,36.31,0,0,0,1.72-15.28c-1-9,1.21-17.56,4.72-25.81,2.25-5.29,5.17-10.24,7.75-15.37,3.13-6.23,2.45-7.8-3.83-10.85s-12.87-4.13-19.61-4.9a20.47,20.47,0,0,0-8.64.93A42.47,42.47,0,0,0,500.83,31C493.28,43,487.36,56,481.11,68.7,475.59,80,469.67,91,462.27,101.11c-4.41,6-5.26,12.79-4.46,19.86.88,7.78.19,15.56.44,22.57,1.69-4,1.86-9.35,4.38-13.94,2.27-1.85,3.69-1.68,5.19.83s2.59,5.22,4,7.77c1.28,2.31,1.76,2.3,3.11,0,1.64-2.75,3.31-5.48,4.93-8.23a10.92,10.92,0,0,1,1.65-2.29,3.46,3.46,0,0,1,3.61-1c1.38.42,1.77,1.63,1.86,2.89.22,3.09.89,6.15.67,9.27-.12,1.8.53,2.15,2.15,1.3a92.21,92.21,0,0,1,8.37-4.06A15.7,15.7,0,0,1,502,135c3.33-.43,5.08,1.1,4.82,4.47-.23,3.1-1.56,6-2,9.08-.11.79-.84,1.76,0,2.34s1.61-.22,2.36-.54a42.48,42.48,0,0,1,4.72-1.87c4.23-1.24,6.51.86,5.45,5.16-.84,3.38-2.31,6.56-3.45,9.85s-1.18,3.28,2.31,3c2.44-.19,4.84-.74,7.31-.51,1.65.15,3.25.47,3.94,2.2a4,4,0,0,1-1.23,4.61,117.5,117.5,0,0,0-8.21,8.93c-1.2,1.45-1.18,2.2.9,2.45a17.14,17.14,0,0,1,4.67,1.08c3.46,1.48,4,4.71,1,7s-6.73,4.14-9.78,6.68c-.8.66-1.64,1.26-2.45,1.9-1.38,1.11-1.65,2.16-.13,3.42a28.28,28.28,0,0,1,3.78,3.8c2.68,3.27,1.6,6.11-2.59,6.8a59.9,59.9,0,0,1-9.8,1.11c-1.83,0-2.06.72-1.38,2.27,1.43,3.27,3.26,6.4,3.67,10,.24,2.13-.11,4-2.62,4.59-5,.38-9.89-.85-14.79-1.66a54.34,54.34,0,0,0-7-1c-2.81-.09-3.22.33-2.77,3.05s1,5.36,1.34,8.06c.21,1.57.18,3.05-1.32,4s-2.92.3-4.15-.64a62.59,62.59,0,0,0-7.41-5.12c-2.49-1.39-2.93-1.26-3.58,1.59a25,25,0,0,1-3.92,9.28,9.46,9.46,0,0,1-8.75,4.11,141.37,141.37,0,0,1-22-3.36,47.77,47.77,0,0,0-24.47.92c-1.17.35-2.32.86-3.51.08-2.67-1.34-1.85-2.73-.06-4.14,11.63-3.92,23.27-3.35,35-.4a96.24,96.24,0,0,0,14.47,2.29c2.91.28,4.8-.9,6.33-3.25,2.13-3.26,2.73-7,3.47-10.66.44-2.18-2-2.14-3.34-2.49-1.64-.43-1.08,1.11-1.11,1.88-.13,2.63-.06,5.27-.23,7.9-.07,1.28-.2,2.74-1.86,3.13s-2.42-.57-3.28-1.67c-3.2-4.07-6.2-8.3-9.9-11.95-2.6-2.55-2.56-2.52-4.77.25q-2.12,2.64-4.46,5.09c-.86.9-1.93,1.57-3.29,1s-1.45-1.61-1.58-2.78c-.57-5.23-1.22-10.45-1.7-15.68-.2-2.07-1-2.12-2.49-1.2s-3,1.9-4.59,2.77a2.66,2.66,0,0,1-3.39-.24c-1-.91-.8-2-.41-3.13a71.65,71.65,0,0,1,6.32-14.31c-3,0-5.31,1.22-7.69,2.11-1.9.71-4.09,2.75-5.82.29-1.6-2.28.87-3.73,2.07-5.26,3.53-4.53,7.09-9,11.67-12.61,1.53-1.2.89-1.79-.51-2.22-.63-.2-1.29-.28-1.92-.45-1.46-.37-3.06-.59-3.45-2.42s.89-2.55,2-3.45a76.64,76.64,0,0,1,14.71-9.42c1.17-.58,2.33-1.2,3.53-1.81l-4.58-4.68a20.79,20.79,0,0,1-3.79-4.53c-1.25-2.37-.26-4.2,2.42-4.18,3.29,0,6.57.44,9.85.49,3.57.06,3.63-.13,3.11-3.58-.38-2.5-.72-5-1-7.54-.17-1.42-.23-3,1.18-3.81s2.53-.22,3.73.45c1.82,1,3.65,1.95,5.49,2.9,2.68,1.37,2.88,1.26,2.94-1.86.11-6,0-12-.47-18.06-.25-3.37-.38-6.75-.66-10.13A17.93,17.93,0,0,1,456,102.7c15.51-21.85,25.15-46.88,38.13-70.09,7.49-13.4,18.17-22.68,33.4-26,9.3-2.06,18.32-.35,27.11,2.82a37.06,37.06,0,0,1,7.67,3.55c5,3.24,6.23,6.56,3.83,12s-5.27,10.61-7.93,15.9a54,54,0,0,0-5.51,29.54c.65,7.67-1.87,14.82-5,21.77-4.11,9.16-9.14,17.94-11.76,27.76a3.75,3.75,0,0,0,.57,3.53c3.78,5.78,8.68,11,9.81,18.21a6.47,6.47,0,0,0,1.67,3.21c3.35,3.58,5.61,7.68,5.32,12.64-.35,6.16,3.76,9.52,7.6,13.07,2.71,2.51,6.05,4.13,9.33,5.77,8.93,4.47,17.55,9.48,26.19,14.46.85.49,1.59,1.2,2.82.91,11.1-2.62,19.07,2.58,25.86,10.53a39.48,39.48,0,0,1,6.43,11.55c4.53,11.66,6.67,23.85,8,36.23,1.5,13.69,1.1,27.44,1.71,41.16.43,9.67,1.8,19.27,2.94,28.88.92,7.74,1.79,15.49,2.51,23.26,1,10.6,3.36,21,4.93,31.47,3.3,22,8.39,43.75,11.91,65.75,1.71,10.65,2.33,21.48,3.7,32.2,2.09,16.39,3.22,33,8.41,48.82,3.4,10.36,9.47,19.41,14.56,28.94a39.78,39.78,0,0,1,4.34,10.67c1,4.84-.87,7-5.78,7.4-11.85.91-23.72.28-35.57.43-18.34.22-35.74,4.26-52.7,11-3.24,1.28-6.45,1.95-9.29,4.48s-7.49,2.16-11.38,2.58a114.77,114.77,0,0,1-14.37.69c-13.26-.21-26.48,1.5-39.77.9-12-.54-24.1-.59-36.15-.27-5,.12-9.9.88-14.86,1.35a1.64,1.64,0,0,1-.82-1.29c-.39-2.63-.39-2.63,3.66-3.67,13.67-2,27.38-1.48,41.11-1a239.26,239.26,0,0,0,26.51-.19,214.73,214.73,0,0,1,22.83-.76,92.41,92.41,0,0,0,16-1.19c5.39-.75,6.34-1.63,6.87-7.09s1.1-10.69,1.16-16c.09-8.55,1.38-17,.37-25.64-.67-5.68-.28-11.45-.61-17.19-.92-16.33-1.85-32.7-1.16-49.06.46-10.91.8-21.83.39-32.72-.76-20.49-1.34-41-1-61.48.22-12.59,1.49-25,8.06-36.22,1.63-2.78,3.23-5.55,6.21-7.13,1.47-.79,2.93-1.38,4.44-.1,1.16,1.5.64,2.77-.5,4-8.14,8.79-11.43,19.34-12.09,31.14-.85,15.34-.75,30.69-.29,46,.43,14.58,1.33,29.15.85,43.72-.34,10.35-.41,20.69-.46,31-.06,11.95,1.15,23.85,1.54,35.78.43,13.33,1.07,26.68-.24,40a76.25,76.25,0,0,0-.69,10.12c.16,4.31,1.26,5.57,5.28,3.8,1.89-.83,3.87-1.48,5.81-2.2,15.5-5.94,31.63-8.23,48.16-8.17,8.09,0,16.19,0,24.29,0a41.21,41.21,0,0,0,6.75-.5c2.76-.44,3-.73,2.11-3.52a30.35,30.35,0,0,0-3.12-7.24c-3-5-5.49-10.31-8.49-15.31-5.77-9.63-8.74-20.18-10.6-31.1-2.89-17-4.71-34.12-6.41-51.26a232.31,232.31,0,0,0-3.4-23.47c-5.09-25.1-9.45-50.34-13.64-75.6-1.84-11.06-2.43-22.26-3.82-33.37-1.3-10.36-2.67-20.71-3.27-31.14,0-.56-.12-1.13-.1-1.69.37-9.33-.25-18.64-.7-27.93-.82-17.07-3.07-34-10.11-49.81-3.85-8.67-9.93-15-19.8-16.73,1.93,1.48,3.73,3.11,5.63,4.61,5.21,4.1,7.68,9.24,6.75,16a395.17,395.17,0,0,1-7.29,40.85,44.71,44.71,0,0,1-6,13.94,11.43,11.43,0,0,1-6.93,4c-7,1.43-13.49,4.12-20,6.94a109.55,109.55,0,0,1-28.63,8.45,47.21,47.21,0,0,1-7.61.28,74.68,74.68,0,0,0-11,.66,17.87,17.87,0,0,0-9.75,4c-6.11,5.2-13.55,7.17-21.28,8.33-3.84.58-4.3.64-4.43,4.45-.63,18-7.39,34.3-13.69,50.73-3.84,10-8.24,19.83-11.91,29.91a122.94,122.94,0,0,0-6.36,28.88c-1.39,12.63-1.83,25.31-2.66,38-.56,8.47.37,16.92.77,25.37.38,8,1.12,16,.81,24-.23,5.71,1.15,11.43-.09,17.14-2.14.79-3.79,0-5.13-1.66-.06-7.5-.26-15-.39-22.5-.17-10-.87-19.9-1.48-29.84a97.62,97.62,0,0,1,.13-14.1c.44-5.24.42-10.51.85-15.76,1-12,1.19-24,3.52-35.9a101.57,101.57,0,0,1,5.47-17.78c7.13-18,14.79-35.85,20.93-54.25,2.37-7.13,3.13-14.52,3.92-21.91.33-3.15-.18-3.45-3.45-3.57-10.22-.37-20.27.28-30.11,3.48-6.9,2.25-14.16,3-21.28,4.36a35.54,35.54,0,0,0-11.58,4.3,103.1,103.1,0,0,1-12.87,6.45c-9.73,4-23.43,1.9-30.81-7.41a27,27,0,0,0,3.17,16.17,32.67,32.67,0,0,1,4.3,13.92c.14,3.15-.52,4.54-3.52,5.53-1.77.58-1.66,1.69-1.54,3.08q.71,7.57,2.12,15a9.31,9.31,0,0,1,.26,2.52,4.05,4.05,0,0,1-2.8,3.86c-1.73.59-3.36.48-4.43-1.33-.74-1.75-1.38-3.49.39-5.05,1.15-.12,1.18-.81,1-1.76a65.11,65.11,0,0,1-.7-7.38c-.09-1,.19-2-.21-2.92-.49-4.85.49-9.77-.59-14.6.39-.67-.19-1.81,1-2.1a2.36,2.36,0,0,1,2.43,1.08,6.27,6.27,0,0,1,1,1.7,2,2,0,0,0,.22.49c.1-.23-.15-.35-.15-.54-.39-1-.65-2.07-1-3.08a70.32,70.32,0,0,0-3.61-8,28.43,28.43,0,0,1-2.95-12.51c-.09-4.06.61-8.05.79-12.09C375.1,306.43,375.19,304.6,376.72,303.42Z" transform="translate(-100.94 -1.08)"/><path class="cls-4" d="M378.22,172.56c-2.16-1.89-4.09-3.93-4.36-7q2.34-30.1,7.36-59.9c1.52-9,3.11-18,6.37-26.54.87-2.3,1.59-5.18,4.85-5.13s4.85,2.62,5.82,5.35c2.81,7.86,3.75,16.07,4.39,24.34,1.17,15,.87,30.08.6,45.14,0,.92,0,1.85,0,2.91,2-.53,3.07-1.89,4.08-3.35a1.57,1.57,0,0,1,1.66-.84c.93.27.52,1.12.49,1.67a26.23,26.23,0,0,1-7.73,17.58,4.76,4.76,0,0,1-7.87-1.21,81.71,81.71,0,0,1-5.24-19.21c-.13-.84-.57-2,.64-2.48s1.6.67,2.15,1.39a48.62,48.62,0,0,0,3.83,4.75c-.44-22.77.18-45.57-3.2-68.25-2.09,4.75-2.95,9.78-4,14.74-5.24,24.62-7.7,49.6-9.66,74.64C378.35,171.63,378.28,172.09,378.22,172.56Z" transform="translate(-100.94 -1.08)"/><path class="cls-5" d="M317.39,499.86c1.7,1.32,3.08,5,2.45,6.56-11.71-.77-23.4-1.87-35.06-3.18a11,11,0,0,1-2.21-.46,2.19,2.19,0,0,1-1.72-2.29c.11-1.26,1.06-1.73,2.19-1.73,3.29,0,6.58,0,9.86.12C301.07,499.17,309.23,499.53,317.39,499.86Z" transform="translate(-100.94 -1.08)"/><path class="cls-6" d="M271.12,391.56c1.53,5.94,4.18,11.43,6.78,16.94-2.77-2.69-4-6.23-5.28-9.72-.67-1.81-1.22-3.68-1.83-5.55-.57.68,0,1.74-.77,2.31,0-1.68,0-3.36,0-5C271.07,390.17,270.56,391.42,271.12,391.56Z" transform="translate(-100.94 -1.08)"/><path class="cls-1" d="M377.47,374.76c1.61.95,3.24,1.62,5,.34s1.59-3.11,1.26-5.08c-.88-5.28-1.58-10.59-2.31-15.89-.26-1.83-.55-3.4,2.43-3.26,2.6.12,2.87-2.25,2.81-4.33-.14-5.42-2.15-10.31-4.74-14.9-3.13-5.53-3.42-11.35-2.72-17.84A24.15,24.15,0,0,0,395.4,324c5.45,1,10.87.85,16-1.8,2.58-1.35,5.35-2.37,7.83-3.89A55.22,55.22,0,0,1,442,310.62c7.57-.9,14.86-3.24,22.22-5.18,8.33-2.19,16.83-1.28,25.28-1.3,1.6,0,1.49,1.07,1.42,2.14-.58,8.73-1.63,17.38-4.5,25.72-5.21,15.12-11,30-17.3,44.69-6,13.95-10.07,28.29-10.92,43.53-.79,14.36-2.45,28.69-2.16,43.07.35,16.92,1.66,33.81,1.86,50.74,0,2.15-.21,4.31-.33,6.47a2,2,0,0,1-1.85.32c-4-.87-7.92-2.05-11.86-3.16a1.2,1.2,0,0,1-.95-.91c-1.21-8.37-2.26-16.77-3.66-25.11-3.09-18.37-10.48-35.19-18.87-51.66-6.51-12.79-14-25.17-18.43-38.92-2.73-8.48-4.66-17.22-7.13-25.79a37.47,37.47,0,0,0-6.57-12.69c-1-1.26-2.07-2.91-3.88-1.57s-.41,2.68.49,3.86A35.53,35.53,0,0,1,392,380.06c4.08,22.07,14,41.75,24.39,61.28,8.1,15.24,15,31,18.29,48a370.3,370.3,0,0,1,5.25,40.24c.8,9.69,2.09,19.24,6.05,28.25,1.45,3.3,1.35,3.43-2.19,4.46-7.2,2.09-14.25,4.71-21.68,6-8.83-4.07-18.37-4.37-27.81-5.38-6-.64-12-.93-17.92-2.09a24.19,24.19,0,0,1-10.88-5.05A49.14,49.14,0,0,1,351,537c-4.51-10.24-9.9-20.09-13.75-30.63-5.85-16-13.75-31.15-20.48-46.79-10-23.24-21.6-45.81-29.79-69.82a178.65,178.65,0,0,1-8.13-35.43c-.68-5.49-1.59-10.95-1.62-16.5.13-1.31.05-2.65-1.6-2.74s-2.15,1.25-2.33,2.64c-1.61,12.4-4.82,24.54-5.92,37-.55,6.27-1.22,12.55-1.39,18.84-.67,24.55-1.68,49.09-1.53,73.65.07,11,.52,22-.23,33a112.74,112.74,0,0,1-5.57,28.7,170.22,170.22,0,0,0-5.52,19.82c-.5,2.4-1.77,3.42-4.05,4-4.41,1-8.84.69-13.21.21-10.1-1.11-20.09-.21-30.09.95-3.27.38-6.54.69-9.81,1-6.06.65-6.1.65-5.95-5.18a45.53,45.53,0,0,0-1.3-10.58c-3-14.17-7.22-28.1-8.67-42.57-1-10.31-.33-20.65.15-31q.47-10.27,1.33-20.53c.73-8.71,1.29-17.44,1.5-26.17.24-9.49,1.83-18.95,1.24-28.43-.47-7.62-.57-15.23-.42-22.84.21-11,1.07-22,1.47-32.94.7-19.28,7-37,14-54.65,1.41-3.59,2.9-7.15,4.06-10.84.34-1.09.45-2.52,2.16-2.48,3,7,8.61,9.83,15.88,10,2.45.08,4.89.17,7.33.18a15.63,15.63,0,0,1,11.6,4.89c4.17,4.27,7.21,9.39,10.85,14.05a56.41,56.41,0,0,0,12,11.79,16.6,16.6,0,0,0,14,2.73,27.13,27.13,0,0,0,9.45-4.23,1.52,1.52,0,0,1,2.21.1c9.32,7.05,18.36,14.4,25.37,23.89,5.89,8,8.44,17.32,10.55,26.79a45.68,45.68,0,0,0,2.25,8.12c.58,1.39,1.4,2.5,3,2.57a3,3,0,0,0,3.14-2.37c.68-3.21,1.88-5.42,5.64-5.7,1.24-.09,2.38-1.61,3.76-2.62.84,5.54,1.56,10.81,2.47,16.05a44,44,0,0,0,4.58,13c.69,1.32,1.41,2.84,3.26,2.68s2.42-1.58,2.72-3.39c2,1.14,3.79,3.75,6.18,1.28,1.7-1.77,1.71-4.27,2.29-6.85,1.41,1.25,3,3.39,4.52,2.13,2-1.61,3.92-1.42,6.08-1.78C377.09,379.67,377.11,376.88,377.47,374.76Z" transform="translate(-100.94 -1.08)"/><path class="cls-1" d="M230.88,129.49A97.78,97.78,0,0,0,232.16,159c.32,1.69-.09,4.39,2.63,4.22s2.14-2.78,2.28-4.5a121.55,121.55,0,0,1,3.09-16.89c1-.27,1.14.55,1.48,1,5.65,7.72,12.92,13.62,20.87,18.76,2.72,1.76,5.48,1,8.1-.12,7.31-3.25,13-8.56,17.84-14.79.51-.66,1-1.29,1.62-2,1.24,1.44,1.05,3.11,1.33,4.63s.2,3.24,2.26,3.37,2.59-1.63,2.8-3.21c1.09-8.3,1.89-16.62,2.47-25,.69-10-.3-19.92-.71-29.87-.15-3.64.31-4.21,4.06-4.79,5.93-.92,11.37.83,16.67,3.1,11.94,5.12,20.71,13.62,26.92,25a257.9,257.9,0,0,1,13.85,29,152.36,152.36,0,0,0,14,26.65c10.92,17,17,35.72,20.4,55.45,1.41,8.16,3.15,16.28,2.78,24.62-.66,14.67-1.67,29.3-6.4,43.37-.12.36-.18.74-.33,1.08-.86,2.08-1.27,4.86-3.05,5.9-2.18,1.28-3.7-1.65-5.56-2.59A75.24,75.24,0,0,0,352,293.16c-3.37-.43-6.76-.09-10.14-.19-2.41-.08-3.35-1.29-2.78-3.63a11.09,11.09,0,0,1,1.17-2.55,77.38,77.38,0,0,0,8-22.53c1.9-10.78.06-21.4-3-31.75-3.24-10.84-8.38-21-12.09-31.64-3.49-10.05-8.38-19.56-11.35-29.8-1.92-6.59-3.62-13.24-6-19.71-.14-1.3-.64-2.44-2-2.64a1.77,1.77,0,0,0-2,1.55c-.52,7.28-2.58,14.45-1.93,21.8a94.29,94.29,0,0,1,.44,15.2c-.88,12,.08,24-1.61,36-1,7.21-3.27,14.09-5.26,21-.54,1.9-1.14,3.78-1.69,5.67-.73,2.51-1.71,2.76-3.4.76-3.14-3.73-6-7.67-9.2-11.41-2.54-3-5.93-5.26-7.76-8.88-2-9.94-1.52-20-1.56-30.06a68.8,68.8,0,0,0-4.63-25.3c-1-2.62-1.85-5.32-2.75-8a1.93,1.93,0,0,0-2.29-1.58c-1.36.21-1.57,1.31-1.43,2.35a13.59,13.59,0,0,0,1,3.8c5.52,12.3,6.66,25.31,6.45,38.57a93.63,93.63,0,0,0,.74,16.31c-1,1.49-1.89.12-2.55-.32-4-2.67-7.79-5.57-11.54-8.55-8.31-6.58-14.83-14.86-21.58-22.92-3-3.54-6.08-6.92-10.74-8.29-1-.49-2-.77-2.78.3s-.25,2,.59,2.73a7,7,0,0,1,1.53,3c.6,1.68.84,3.55,1.73,5.05,5.77,9.69,10.1,20.41,19,27.88,4.26,3.58,9.51,5.7,14.36,8.36A74.33,74.33,0,0,1,295,264.57c.42.77,1.93,1.9-.14,2.57-9.88,3.23-16.06,10.75-21.81,18.77-1.15,1.6-2.16,3.29-3.24,4.95-1.62.21-2-1.2-2.57-2.15a72.88,72.88,0,0,0-36.67-30c-5.76-2.17-10.1-6.12-14.15-10.48-10.65-11.49-18.78-24.66-25.85-38.58-3-5.87-6-11.71-9.23-17.47-1.15-2.06-1.92-4.27-2.88-6.41a74.58,74.58,0,0,1-2.41-20.34,26.42,26.42,0,0,1,5.56-15.64,76.46,76.46,0,0,1,9.2-10.26,80.6,80.6,0,0,1,33-11.43A10,10,0,0,1,230.88,129.49Z" transform="translate(-100.94 -1.08)"/><path class="cls-1" d="M528.19,10.77c4.21-1.65,8.48-1,12.8-.59a49.05,49.05,0,0,1,18,5.52c4.74,2.51,5.32,4,3.07,8.78-2.53,5.36-5.44,10.53-8,15.87a52.68,52.68,0,0,0-5.18,29c.62,5.6-.72,11.07-2.85,16.25-2,4.87-4.18,9.67-6.49,14.4a136.68,136.68,0,0,0-6.6,16.17,11.18,11.18,0,0,0,1.5,10.53c3.46,5.21,7.57,10.12,8.48,16.69a9.12,9.12,0,0,0,2.84,4.81c2.82,2.89,3.65,6.44,3.86,10.3.11,2.06.38,4.12.67,6.16a3.42,3.42,0,0,0,.79,1.76c5.16,5.53,10.76,10.45,17.71,13.72,10,4.69,19.35,10.49,28.87,16a79.52,79.52,0,0,1,11,7.9c3.74,3.12,5.63,6.66,4.88,11.79-2,13.58-4,27.14-7.4,40.45A44.3,44.3,0,0,1,601.71,267a4.89,4.89,0,0,1-3.32,2.82c-10.18,1.89-19.36,6.62-28.91,10.29-1.31.5-2.67.89-4,1.33-1.11,0-.79-.85-.79-1.41a13.06,13.06,0,0,1,.85-5c2.76-6.8,3.33-14.08,4.81-21.16,1-4.6,1.9-9.21,3-13.8a24.78,24.78,0,0,0,.45-9.51,7.2,7.2,0,0,0-4.88-6.05c-2.81-1-4.89.41-6.8,2.26-4.34,4.23-6.54,9.84-9.55,14.92-4.18,7.06-8.51,14-14.43,19.77a86.14,86.14,0,0,1-26.32,17.2c-2.41,1.05-4.9,1.94-7.33,2.95-6.89,2.83-14,3.12-21.35,2.48-13.71-1.21-27,.43-39.67,6.26-9.91,4.55-19.57,9.64-29.46,14.24a43.24,43.24,0,0,1-22.2,4.05,2.66,2.66,0,0,1-2.06-.73c5.22-7.43,6.76-16.15,8.49-24.75,2.06-10.22,2.28-20.64,2.81-31a86.57,86.57,0,0,1,14-2.94c7.19-.7,14,1.34,20.93,2.47,4.17.69,8.35,1.36,12.53,2s8.08-.09,10.83-3.8c1-1.11,2.42-.85,3.7-.86a72.55,72.55,0,0,0,11.5-.59c2.47-.42,5-1,6.58-2.87,3.59-4.28,8.51-6.39,13.37-8.53,3.1-1.36,5.66-3.67,8.9-4.7,1.91-.71,2.05-2.25,1.82-3.94-.52-3.91-2.54-7.25-4.18-10.71-.8-1.71-.64-2.39,1.38-2.32,3.87.13,7.66-.74,11.48-1.19,3-.35,3.9-2.63,2.12-5.09a22.65,22.65,0,0,0-5.29-5.05c-1.33-.94-1.19-1.55-.09-2.55a95.46,95.46,0,0,1,12.78-9.25c1.36-.88,2.84-1.71,2.56-3.67s-2-2.59-3.67-3-3.51-.64-5.27-.89c-1.5-.21-1.69-.7-.76-2,2.68-3.67,6-6.79,9-10.07,1.12-1.19,2.4-2.36,1.7-4.15-.76-2-2.67-1.92-4.33-1.83-3.46.2-6.9.58-10.6.9.23-3.27,1.85-6.05,2.76-9,.59-2,1.55-3.85,2-5.85.7-3-1.06-4.69-4-3.78-3.13,1-6.12,2.35-9.76,3.78.77-3.4,1.49-6.42,2.14-9.46.49-2.31,2.26-5,.14-6.91-2.31-2.13-5-.34-7.38.66-3.6,1.54-7.06,3.41-10.78,5.24-.27-4-.56-7.94-.78-11.84-.08-1.34,0-2.77-1.62-3.22s-2.69.48-3.46,1.79q-3.22,5.46-6.43,10.94c-1.25,2.17-1.88,2.27-3.12,0-1.58-2.88-2.82-6-4.34-8.86-1-1.82-2.23-3.24-4.37-1.24-1.53-.27-.9-1.38-.75-2.15a54.09,54.09,0,0,1,9.2-22.17c5.49-7.57,11.19-15.13,13.86-24.38A131.12,131.12,0,0,0,488,67.86c1.88-10.41,6.45-19.59,12.57-28.07,3.62-5,7.16-10.1,10.58-15.28A35.9,35.9,0,0,1,528.19,10.77Z" transform="translate(-100.94 -1.08)"/><path class="cls-7" d="M205.48,266.77c-.28.21-.76.36-.83.63-2.08,8.24-6.13,15.75-8.9,23.74-5.68,16.42-9.91,33.06-10.08,50.64-.13,14-1.5,28-1,42,.82,21.85-1.47,43.57-2.69,65.33-.82,14.55-2.16,29.08-1.4,43.68.59,11.24,3.39,22.08,5.95,33,1.36,5.76,2.3,11.61,4,17.3.82,2.76.33,5.65,0,8.42s.58,3.6,3.13,3.35A14.21,14.21,0,0,1,196,555c-2.51,1-5.18.33-7.76.71-1,.14-1.86-.86-2.45-1.73-.84-1.24-1.62-2.53-2.36-3.84-5.75-10.06-14.51-15.3-25.9-16.83-3.9-.52-7.66.18-11.49.22a10.41,10.41,0,0,1-8.11-3.16,88.85,88.85,0,0,1-5.72-7c-1.38-1.82.2-3,1.28-4.06a66,66,0,0,0,10-12.54c5.22-8.66,7.69-18.31,10.08-28,2.32-9.4,3.38-19,4.61-28.58,1.08-8.36,2.38-16.7,3.52-25.05.56-4.18,1.2-8.36,1.44-12.56.61-11,1.42-21.94,1.23-32.95-.21-11.57.72-23.1,1.25-34.64a156.72,156.72,0,0,1,11.76-53.61,250.64,250.64,0,0,1,19.53-37.16c.3-.47.66-.89,1.08-1.43Z" transform="translate(-100.94 -1.08)"/><path class="cls-8" d="M389.71,307.94c12.3,1.43,22.89-3.27,33.56-8.62,11.39-5.71,22.56-12.18,35.27-14.77a84,84,0,0,1,25.51-1.08,45.62,45.62,0,0,0,21.81-3.13c12.56-5,24.21-11.31,33.54-21.25,6.22-6.63,10.74-14.48,15.08-22.41,1.9-3.46,3.71-7,6.45-9.89,2.39-2.54,5-4.4,8.67-2.92,3.18,1.26,5.19,4.95,5.19,8.94,0,7.79-3,15-3.93,22.63-1,8.51-3.92,16.58-5.5,25a3.83,3.83,0,0,0,.11,1.05A75.2,75.2,0,0,1,544.73,286c6.83-6.89,10.4-15.21,16.57-22.16.35,2.4-.78,4-1.23,5.75-.38,1.49-.56,3,1.1,3.61,1.89.67,2.38-1,2.77-2.35.9-3.15,1.81-6.31,2.54-9.51.33-1.45.5-3.17-1.21-4s-3-.18-4.31,1.08a62.54,62.54,0,0,0-10,13.21,83,83,0,0,1-10.36,13.3,2.68,2.68,0,0,1-2.2,1,79,79,0,0,0-11.17,1.14,14.79,14.79,0,0,0-8.1,3.62c-6.72,6-15,7.79-23.62,8.74-7.49.84-15,.42-22.54.67a54,54,0,0,0-14.6,2.73c-8.7,2.79-17.76,3.84-26.66,5.61a31.92,31.92,0,0,0-8.67,3.25c-4,2.08-8,4.22-12,6.25-12.1,6.07-23.71,2.38-30.19-9.55.32-.67.19-1.62,1.17-1.88.77.52,1.57,1,2.28,1.58C386.13,309.62,387.93,309.63,389.71,307.94Z" transform="translate(-100.94 -1.08)"/><path class="cls-1" d="M234.46,144a97.48,97.48,0,0,1,4.95-35.67c.45-1.35,1.52-2.82-.51-3.86a3,3,0,0,1-1.58-2.81c-.65-7.4-5.41-12.65-9.55-18.18-2.11-2.82-2.29-2.84.62-4.94.38-.28.73-.59,1.13-.83,6.53-4,4.93-6.89,1.76-11.48a23.16,23.16,0,0,1-1.92-2.42c-.54-1.06-.77-2.08,1.06-1.8,2,.32,4.09.66,6.13,1a2.81,2.81,0,0,0,3-1.07c.79-1.18.17-2.19-.49-3.11-3.64-5.13-7.12-10.38-11.57-15.39,3.89.65,7.07,2.25,10.25,3.75,6.55,3.07,13.1,6.18,19.11,10.27,1.17.8,2.37,1.32,3.61.37s.86-2.19.48-3.39A90.29,90.29,0,0,0,255,39.79a95.1,95.1,0,0,1,22,15.14C288.55,65.68,293.91,79,294.17,94.66c.11,6.29.81,12.57,1.05,18.87.3,7.44-.68,14.82-1.21,22.63-1.27-1.7-1.06-3.43-1.34-5-1.27-7-1.53-14.21-3.52-21.12a14.41,14.41,0,0,0-2-4.31c-1.8-2.57-3.62-3-6.6-1.87-3.58,1.39-5.88,4.35-8.47,6.9-1.87,1.86-3.26,2.41-5.13,0a15.47,15.47,0,0,0-5-4.14c-3.26-1.73-5.49-1.27-8.05,1.41-6.52,6.85-11,14.93-14.9,23.45-1.87,4.06-2.28,8.43-3.65,12.57A.52.52,0,0,1,234.46,144Z" transform="translate(-100.94 -1.08)"/><path class="cls-7" d="M277.2,337.87c1.43,4.81,1.63,9.83,2.15,14.76,2.13,20.05,8.44,38.89,16.14,57.36,4.89,11.72,10.65,23.07,15.61,34.73,10,23.64,21.71,46.57,30.62,70.7a176.44,176.44,0,0,0,13.6,28.2c6.07,10.33,15.21,16.63,27.91,17.55,11.31.82,22.75,1.24,33.8,4.31,1.92.53,3.83,1,5,2.81-7.14,2.08-14.51,2.9-21.81,4.12-6.79,1.14-13.65,1.1-20.47,1.53-11.07.68-20-3.19-27.39-12-10.13-12.19-16.2-26.25-21.73-40.82-5.59-14.75-12.17-29.13-17.83-43.86-9.59-25-21.39-48.9-32.13-73.33-3.07-7-5.52-14.19-8.57-21.16-1.86-4.22-.82-8.37-.32-12.48,1.3-10.69,3.9-21.19,5.08-31.91C276.92,338.17,277.1,338,277.2,337.87Z" transform="translate(-100.94 -1.08)"/><path class="cls-7" d="M178.49,185.81c4.68,8.66,9.48,17.27,14,26,7.44,14.37,16.08,27.86,27.76,39.2A35.28,35.28,0,0,0,232,258.58a73,73,0,0,1,36,29.95c.52.83.62,2.05,1.85,2.33l-6.49,11.79c-4.26-4-8.55-8-11.83-13a98.26,98.26,0,0,0-7.18-9.38c-4.57-5.36-10.48-7.27-17.24-7.33-2,0-4,.09-5.93,0-4.7-.33-8.7-1.3-11.22-6.31-2.9-5.77-6-11.49-8.91-17.25-6.09-11.91-10.43-24.51-14.76-37.13C183.3,203.53,180.6,194.76,178.49,185.81Z" transform="translate(-100.94 -1.08)"/><path class="cls-7" d="M281.31,230.46c7.35,6.14,12.82,13.95,19,21.64,3.25-12.06,7.81-23.47,8.2-35.83.48-15.23,1.47-30.45.58-45.7-.41-6.93,1.12-13.62,2.67-20.3,0,18.28,3,36.21,6.84,54,2.08,9.59,6.09,18.6,10.58,27.24,2.88,5.53,1.84,10-1.16,14.62-4.18,6.39-8.85,12.36-15.56,16.41a33.89,33.89,0,0,1-5.86,2.74c-4.84,1.78-5.63,1.41-8.12-3.09a94.4,94.4,0,0,0-13-18,7.7,7.7,0,0,1-2.05-4.42C282.92,236.64,282,233.57,281.31,230.46Z" transform="translate(-100.94 -1.08)"/><path class="cls-7" d="M315.78,151.36a17.49,17.49,0,0,1,3,6.61c3.36,14.84,9.83,28.59,15,42.79,3.92,10.68,9,20.93,12.18,31.88,3.27,11.28,5.36,22.84,2.4,34.49-1.81,7.15-4,14.31-8,20.7-2.17,3.46-1.23,4.76,2.88,4.93,2.88.12,5.81-.56,8.65.4-4.59.06-9.18.47-13.77-.31-1.61-.27-3.34.32-5,.35-3.59.08-3.69,0-3.27-3.61.71-6.15,1.67-12.26,3-18.31,1.58-7.23,3.8-14.35,4.22-21.78s-1.6-14.33-4.91-20.88a139.3,139.3,0,0,1-13.74-47.05c-1.09-9.31-2.89-18.54-2.8-28C315.68,152.86,315.74,152.11,315.78,151.36Z" transform="translate(-100.94 -1.08)"/><path class="cls-1" d="M372.83,374c-1.43-.82-1.12-2.25-1.18-3.51-.23-5-.4-10-.62-14.94-.07-1.45-.24-3-2.19-3s-1.86,1.79-1.81,3.16c.22,5.63.52,11.26.76,16.9.07,1.44,0,2.88,0,4.91a8.41,8.41,0,0,1-2.05-4.29c-1.54-5.25-1.54-10.67-1.89-16.06-.09-1.31-.09-2.64-.29-3.93s-.69-2.49-2.3-2.32-1.66,1.35-1.6,2.54c.2,4.23.53,8.45.64,12.67.13,5,.47,10-.52,14.91-.11.52,0,1.16-.79,1.54-1.32-1.13-1.6-2.82-2.09-4.37-1.86-5.88-2-12-2.26-18.07-.06-1.31-.29-2.62-.43-3.92a1.74,1.74,0,0,0-1.84-1.75,1.82,1.82,0,0,0-1.88,2c0,2,.09,4,.18,5.92q.35,7.47.73,14.93c.14.59.45,1.26-.65,1.18-2.47-6.79-3-13.94-3.92-21-.59-4.43-1.57-5.51-5.11-5.61a3,3,0,0,1,.24-2.18,141.26,141.26,0,0,0,8-39.14c.12-2,1-3.43,2.95-4,3.79-1.05,7.67-.48,11.51-.66.49,0,.76.49.91,1-.86,12.36,2.74,23.83,7.22,35.06a26.52,26.52,0,0,1,1.53,15.14c-1,5.39.25,10.9-.24,16.34C373.6,373.81,373.46,374.36,372.83,374Z" transform="translate(-100.94 -1.08)"/><path class="cls-1" d="M285.74,113.05c1.72,5.8,1.28,12,2.88,17.75,1.71,6.15-1,10.44-4.53,14.75a44.17,44.17,0,0,1-14.73,12,5.86,5.86,0,0,1-6.51-.49c-7.72-5.19-14.63-11.17-19.88-18.91-.5-.74-1.76-1.42-.77-2.65,4.05-6.44,10.45-10.36,16.2-15,1.48-1.18,3.22-1,4.85-.45a10.45,10.45,0,0,0,10.3-1.81c3.15-2.42,6.85-3.85,10.57-5.18A1.81,1.81,0,0,1,285.74,113.05Z" transform="translate(-100.94 -1.08)"/><path class="cls-1" d="M276.67,287.59c2.31-2.91,4.61-5.83,7-8.71.18-.22.66-.2,1-.29a38.89,38.89,0,0,1,10.21,3.27c5.29,5.48,10.59,10.92,17.2,14.89,5.51,3.31,11.51,5.51,17.5,7.68,4.26,1.55,7.82,4.49,12.19,5.76,1.4.41,1.15,1.51,1.1,2.53A59.11,59.11,0,0,1,339.08,330c-2.14,5.92-4.18,11.88-4.86,18.18a2.78,2.78,0,0,1-1.57,2.15c-1.47.22-1.65-1-2-1.9a48,48,0,0,1-2.14-6.43c-2.35-10.39-7.87-18.9-14.76-26.88-9.87-11.43-22-19.56-35.44-26C277.63,288.81,276.53,288.83,276.67,287.59Z" transform="translate(-100.94 -1.08)"/><path class="cls-7" d="M332.89,246.32c.53,5.1-.63,10-1.74,14.88a266.33,266.33,0,0,0-5.21,31c-.3,2.82,1.07,4.42,4,4.48,3.47.08,7,.06,10.43-.08,1.87-.08,2.47.57,2.43,2.41a23.28,23.28,0,0,0,.49,7.21c-1,.46-1.58-.16-2.15-.53-7-4.47-15.11-6.61-22.62-10-6.85-3.14-12.52-7.86-17.81-13.11a2.08,2.08,0,0,1-.54-2.5,21.6,21.6,0,0,0,1.41-8.27c-.06-1.37.46-2.08,1.91-2.21,8.19-.74,14.17-5.51,19.68-11A78.08,78.08,0,0,0,332.89,246.32Z" transform="translate(-100.94 -1.08)"/><path class="cls-9" d="M442.86,516.75l14.66,3.75A16.4,16.4,0,0,0,462,522c.93-.62,1.82-.14,2.69.13,4.21,1.33,8.37,2.8,12.45,4.45.76.36,1.45.85,2.37,1.23-.67-2.51-1.81-4.76-2.52-7.16a32.5,32.5,0,0,1-.89-4.56c-.15-1.42,0-2.78,1.57-3.43,1.71-.28,2.85.68,3.86,1.85a30.55,30.55,0,0,1,3.73,5.63c1.9,3.57,3.66,7.21,5.69,10.7a19,19,0,0,1,1.52,3.64c1.93,5.86-1.35,10.64-7.56,10.93-3,.14-6-.61-9-.78-3.14-.35-6.29-.58-9.44-.81a13.53,13.53,0,0,1-6.18-1.51c-1.56-1.53-.82-2.67.6-3.71a47.78,47.78,0,0,1,15.18-1.81c.27,0,.56,0,.84,0a11.29,11.29,0,0,0,3.55.5c-1.34.14-2.54-.54-3.84-.55-5.1-.4-9.74-2.5-14.55-4a33.84,33.84,0,0,0-5.48-1.55c-3.36-.92-6.68-2-10.06-2.79a6.69,6.69,0,0,1-2.79-1.3c-.25-.27-.75-.6-.7-.8a16.63,16.63,0,0,0-.69-8.68C442.33,517.45,442.7,517.07,442.86,516.75Z" transform="translate(-100.94 -1.08)"/><path class="cls-8" d="M460.42,541.84c4.2,1.62,8.68,1.2,13,1.76.91.12,1.88-.16,2.72.42a8.4,8.4,0,0,0-2,5.71c-.16,11.18-.35,22.37,3,33.22a4.72,4.72,0,0,1,.11,2.5c-1.33.77-3.88.12-3.45,3-6.32-5.08-11-11.79-16.89-17.25-.63-1.12-2.22-1.66-2-3.3,2.92-6.89,3-14.32,4-21.56C459.23,544.73,459.13,543.07,460.42,541.84Z" transform="translate(-100.94 -1.08)"/><path class="cls-7" d="M230.38,186.49c1.93-.44,3.42.35,4.89,1.55,6,4.88,10.35,11.17,15.31,16.94,7.24,8.44,15.92,15.17,25,21.44.36.25.74.66,1.21.15.73,3.79,1.47,7.58,2.34,12.05-8.13-6.82-17.25-10.72-25.57-15.94a22.93,22.93,0,0,1-8.64-10.14,26,26,0,0,0-3.93-6.46,36.39,36.39,0,0,1-7.71-14.54A9.76,9.76,0,0,0,230.38,186.49Z" transform="translate(-100.94 -1.08)"/><path class="cls-7" d="M230.42,62.05c-1.48.15-1.12.8-.43,1.55a24.83,24.83,0,0,1,3.86,5.51c1.7,3.32,1.19,5.51-1.86,7.77a28.53,28.53,0,0,1-3.91,2.72c-1.7.86-1.55,1.36-.38,2.76,4.07,4.88,8,9.92,9.8,16.18.57,2,.36,4.11,1.4,6-2.64-.08-2.88,2.11-3.33,3.82s-.82,2-2.11.75a2.77,2.77,0,0,0-1.7-.93c-3.54.23-3.53-2.36-3.53-4.6,0-7.09-2.93-12.69-8.31-17.11-3.79-3.11-8.28-4.71-13-5.83a18.09,18.09,0,0,1-1.93-.68,44.1,44.1,0,0,1,13.3-4.69c2.84-.56,5.74-.83,8.63-1.16,1.45-.16,3-.32,3.33-2s-1-2.48-2.26-3.17c-4.68-2.59-9.36-5.21-14.56-6.68a2.52,2.52,0,0,1-1.79-1C218.05,60,224.24,60.87,230.42,62.05Z" transform="translate(-100.94 -1.08)"/><path class="cls-7" d="M276.67,287.59c12.35,5.56,23.81,12.52,33.22,22.36,7,7.35,13.89,14.93,17.2,24.87,1.4,4.19,2.58,8.45,4,12.65.33,1,.39,2.28,1.61,2.84-2,3-1.29,6.53-2.22,9.73-.09.34-.11.71-.2,1.28a14,14,0,0,1-1.5-5c-1.61-7.83-3.76-15.51-7.51-22.58s-9-12.88-14.9-18.16c-9.76-8.66-20.09-16.56-30.59-24.29C273.54,289.69,276.33,288.84,276.67,287.59Z" transform="translate(-100.94 -1.08)"/><path class="cls-7" d="M471.6,593.21c-7.82,7.72-18.2,12.08-26.77,7.29a20.72,20.72,0,0,1-9.33-11.3,23.79,23.79,0,0,0-15-15,12.12,12.12,0,0,1-1.46-.84C425,572,430.5,570.75,435.85,569c.27-.09.59,0,.83-.17,7.45-4.23,12.2.44,16.94,5.14-.86,1-2.06.72-3.15.82A37.16,37.16,0,0,0,438,578.16c-1.44.68-1.79,1.51-.75,2.83,2.14,2.74,4.19,5.55,6.35,8.28,3.83,4.86,9.25,5.37,14.79,5.24a34.64,34.64,0,0,0,10.27-1.62A2.89,2.89,0,0,1,471.6,593.21Z" transform="translate(-100.94 -1.08)"/><path class="cls-1" d="M471.6,593.21c-3.94.23-7.64,1.74-11.63,2-8.19.52-15.12-1.07-19.54-8.79a29.06,29.06,0,0,0-4.28-5.6c-1.66-1.74-.87-2.27.83-3.06A37.08,37.08,0,0,1,453.62,574a144.91,144.91,0,0,1,17.31,17.46A1.87,1.87,0,0,1,471.6,593.21Z" transform="translate(-100.94 -1.08)"/><path class="cls-7" d="M230.88,129.49c-11.34-2-21.42,2.27-31.51,6.43-2.86,1.18-5.69,2.43-8.53,3.65,5.1-5.75,10.14-11.55,15.32-17.23a149.35,149.35,0,0,1,11.7-11.77c.64-.56,1.3-1.08,2-1.6a3.49,3.49,0,0,1,4.21-.29c1.33.86,1,2.42.62,3.82-1.62,6.23.14,11,5.47,14.58C231.22,127.81,231,128.59,230.88,129.49Z" transform="translate(-100.94 -1.08)"/><path class="cls-7" d="M365.34,306.92a33,33,0,0,0-13.06.65c-1.09.31-1.34,1.11-1.39,2.16-.61,12.66-3.27,24.95-6.93,37a18.63,18.63,0,0,1-2.23,5.16c-1.38,1-2.4,2.58-4.21,3.21.23-8.52,2.69-16.36,5.44-24.12a68.89,68.89,0,0,0,3.33-31.83c-.24-1.95.36-2.74,2.43-2.58a123.59,123.59,0,0,1,15,2.27A1.85,1.85,0,0,1,365.4,301C365.35,303,365.36,305,365.34,306.92Z" transform="translate(-100.94 -1.08)"/><path class="cls-1" d="M443.8,527.18A113.58,113.58,0,0,1,457,530.66a3.67,3.67,0,0,1,.77,2.92c-.76,10.13-1.43,20.27-3.78,30.19a7,7,0,0,1-1.49,3.61c-.79-.52-1.59-1-2.35-1.55-.48-.33-.9-.69-.32-1.33,2.18-2.41,1.18-5.07.16-7.41C445.83,547.54,444.41,537.45,443.8,527.18Z" transform="translate(-100.94 -1.08)"/><path class="cls-7" d="M189.14,563.33c1.87-3.59,5.11-4.25,8.81-4.54,7.44-.57,14.85-1.56,22.29-2.19,3-.26,6,0,9.54,0-2.37,3.42-4.39,6.59-7.18,9.2a2.11,2.11,0,0,1-1.84.41c-3.71,1.93-7.73,1.48-11.64,1.35a81.57,81.57,0,0,1-15.4-1.82C192,565.31,190.13,565.15,189.14,563.33Z" transform="translate(-100.94 -1.08)"/><path class="cls-7" d="M285.74,113.05a73.54,73.54,0,0,0-14.68,7.61,6.79,6.79,0,0,1-6.51.43c-3.19-1.26-5.64-.53-8.16,1.74-4.38,4-9.39,7.19-13.06,11.93a4.12,4.12,0,0,1-1.13.75c2.19-7.29,6.15-13.64,10.61-19.71,1.22-1.66,2.74-3.09,4-4.72s2.42-1.41,3.87-.44c2.29,1.54,4,3.72,6,5.57,2.18,2,4.33,1.83,6.2-.5a42.55,42.55,0,0,1,7.17-7.15c2.59-2,3.86-1.56,5,1.5A22.83,22.83,0,0,1,285.74,113.05Z" transform="translate(-100.94 -1.08)"/><path class="cls-10" d="M381.86,344.62c-.41-.59-.84-1.16-1.24-1.75-1.37-2-2-2-3.26.18a.51.51,0,0,1-.08-.49c-.4-1.24-.31-2.7-1.61-3.53-2.05-6.3-4.88-12.34-6.26-18.88a56,56,0,0,1-.49-17.86c.17-1.58.9-1.56,2.05-1.1,1.91.76,3.83,1.49,5.75,2.23-1.44,8.79-3.11,17.61.09,26.34,1.38,3.78,3.27,7.37,4.93,11.05C380.89,342.11,382.75,343.32,381.86,344.62Z" transform="translate(-100.94 -1.08)"/><path class="cls-11" d="M452.51,567.38c.44-4.47,1.93-8.74,2.4-13.23.81-7.82,1.94-15.61,2.1-23.49a18.22,18.22,0,0,1,5.07,1.52c-.62,2.26-.23,4.69-1.17,6.89-.81.81-1.33,1.67-.49,2.77-1.07,6.94-1.42,14-2.89,20.85a12.35,12.35,0,0,1-2.29,5.68,1,1,0,0,1-1.24.17A1.66,1.66,0,0,1,452.51,567.38Z" transform="translate(-100.94 -1.08)"/><path class="cls-7" d="M284.72,302.72c-5.45,3-10.4,5.55-16.36,3-1.47-.64-1.89-1.2-1-2.65,1.46-2.52,2.84-5.08,4.2-7.65.72-1.35,1.39-1.66,2.75-.58C277.56,297.44,281,299.91,284.72,302.72Z" transform="translate(-100.94 -1.08)"/><path class="cls-12" d="M189.14,563.33c9.17,3.3,18.67,3.64,28.26,3.11,1.12-.06,2.24-.18,3.36-.27-1.68,2.59-4.61,2.89-7.13,3.21a70.07,70.07,0,0,1-24.6-1.62C186.27,567.13,186.32,566.66,189.14,563.33Z" transform="translate(-100.94 -1.08)"/><path class="cls-13" d="M228.1,116.42c0-.6,0-1,0-1.35.08-1.51.07-3.2,2.08-3.41,1.47-.16,3.44,2.53,3.14,4.11-.38,2-.83,4-1.22,6-.11.55-.11,1.18-.83,1.26s-1-.39-1.35-.85A8.13,8.13,0,0,1,228.1,116.42Z" transform="translate(-100.94 -1.08)"/><path class="cls-14" d="M294.84,281.86a25.42,25.42,0,0,1-10.21-3.27,5.87,5.87,0,0,1,.61-.92c3.09-3.22,3.38-3.22,6.2.09C292.59,279.11,293.71,280.49,294.84,281.86Z" transform="translate(-100.94 -1.08)"/><path class="cls-15" d="M297.72,272.87c-.38,1.6,0,3.33-1.46,4.33-.4.28-3.78-3.52-3.52-4.08.75-1.62,2.47-1.92,3.94-2.13C298.38,270.75,297.19,272.38,297.72,272.87Z" transform="translate(-100.94 -1.08)"/><path class="cls-16" d="M378.38,360.51c.5,3.19,1,6.37,1.57,9.92l-2.09-.72q0-4.63-.08-9.27A.34.34,0,0,1,378.38,360.51Z" transform="translate(-100.94 -1.08)"/><path class="cls-17" d="M382,306.51a3.66,3.66,0,0,1-1.17,1.88l-1.14-2.73C380.61,305.42,381.27,306,382,306.51Z" transform="translate(-100.94 -1.08)"/><path class="cls-18" d="M454,568.54l1.24-.17c.39,1.06,1.71,1.53,1.77,2.79A11.44,11.44,0,0,1,454,568.54Z" transform="translate(-100.94 -1.08)"/><path class="cls-19" d="M350.76,378.56c.6-.19.4-.8.65-1.18.63.88.41,1.88.5,2.92C350.8,380.07,350.89,379.25,350.76,378.56Z" transform="translate(-100.94 -1.08)"/><path class="cls-20" d="M375.67,339c1.86.57,1.62,2.1,1.6,3.53C376.74,341.38,376.21,340.21,375.67,339Z" transform="translate(-100.94 -1.08)"/><path class="cls-21" d="M234.46,144h.92c.25,1-.32,1.67-.92,2.44Z" transform="translate(-100.94 -1.08)"/><path class="cls-22" d="M271.12,391.56,270,390.51V389A3,3,0,0,1,271.12,391.56Z" transform="translate(-100.94 -1.08)"/><path class="cls-23" d="M378.38,360.51l-.6-.07c.05-.93.11-1.86.17-2.79C378.67,358.52,378.4,359.54,378.38,360.51Z" transform="translate(-100.94 -1.08)"/><path class="cls-24" d="M372.83,374l1-.55c.1.6.36,1.44-.19,1.67S373,374.49,372.83,374Z" transform="translate(-100.94 -1.08)"/><path class="cls-1" d="M477.35,585.45c-2.41-5.58-3.27-11.55-3.74-17.49a118.4,118.4,0,0,1,.13-21.71c.19-1.76.93-2.23,2.43-2.23,2.81.22,5.62.63,8.43.62,6,0,9.47-4.56,7.14-10.07a102.29,102.29,0,0,0-10.5-19.27,4.74,4.74,0,0,0-3.36-2.34c-1.29-2.2-1-4.72-1.29-7.1-.86-8.34-.55-16.72-.64-25.08-.15-14.1-.76-28.19-1.25-42.28-.23-6.64-1-13.3-1.38-19.95a47.84,47.84,0,0,1,2.46-17.23,267.48,267.48,0,0,1,11-28.1c6.51-14.51,10.81-29.71,14-45.21a14.31,14.31,0,0,1,8.3-10.86,51.57,51.57,0,0,1,15.25-4.87,201.58,201.58,0,0,0,35.84-8.92c12.54-4.4,23.76-11.26,34.15-19.51,1.4-1.11,2.83-2.18,4.23-3.29,1.22-.95,2.4-2.12,2.49-3.64.17-2.71,1.83-4.42,3.46-6.23,5.79-10.19,7.49-21.58,9.58-32.85,1.48-8,2.58-16,3.49-24,.52-4.59-1.36-8-4.48-11a72.75,72.75,0,0,0-9.79-7.89c2.93-.62,6.53.23,10.11,2.2,7.36,4,11.55,10.6,14.44,18.15,4.13,10.78,6.29,22,7.61,33.45,1.52,13.21,1.41,26.48,1.77,39.73.34,12.32,2.09,24.51,3.69,36.72,1,7.44,1.59,14.94,2.34,22.42,1,10.39,3.44,20.56,5,30.87,3.1,20.73,7.88,41.16,11.27,61.83,1.42,8.71,2,17.55,3.09,26.3,2.44,19.18,3.48,38.61,9.58,57.16,3.05,9.28,8.45,17.41,13,25.93,2,3.82,4.21,7.55,5.38,11.77.56,2,.07,2.88-2.17,3.07-10.53.88-21.07.31-31.6.4-16.2.13-32.08,2-47.32,7.81a7.81,7.81,0,0,1-1.09.23,2.29,2.29,0,0,1-.24-2.16c2-7.23,2.11-14.71,2.53-22.1a97.81,97.81,0,0,0-.5-13.23c-.26-3.19-.32-6.38-.42-9.57-.39-13.64-.7-27.27-.56-40.91.12-10.81.87-21.62.59-32.44-.31-11.93-.56-23.86-1.59-35.77a239.82,239.82,0,0,1,1.72-55.38c1.1-7.53,1.41-15.17,2.12-22.75a10.14,10.14,0,0,0-3.61-9.3c-3.23-1.49-5.26,1-6.59,2.85A53.83,53.83,0,0,0,592,357.41c-1.89,16.33-1.26,32.73-.93,49.08.32,16.18,1.18,32.36.85,48.55-.24,11.48-.8,23-.39,34.44.55,15.33,1.33,30.64,2,45.95.37,8.39-.32,16.74-.82,25.09-.33,5.53-1,11.05-1.26,16.58-.15,2.9-1.71,4.21-4.23,4.84a51.53,51.53,0,0,1-12.85,1.56c-17.7-.19-35.34,1.91-53,1.2-8.37-.33-16.75-.31-25.13-.54C489.86,584,483.62,584.88,477.35,585.45Z" transform="translate(-100.94 -1.08)"/><path class="cls-1" d="M454.72,150.82c5.16.73,6.27.05,7.78-4.9.93-3,1.78-6.13,2.68-9.24,1,0,.94.95,1.26,1.52.79,1.39,1.31,2.94,2.22,4.24,3.39,4.87,6.93,4.64,9.78-.53,1.27-2.3,2.6-4.57,4.21-7.37.29,3.5.5,6.42.79,9.33.32,3.13,2,4,4.85,2.58,3.69-1.86,7.33-3.82,11-5.68a2.6,2.6,0,0,1,2.4-.38c-.87,4-1.75,8-2.62,11.94-.36,1.65-.93,3.39.64,4.73s3,.31,4.47-.31c2.58-1.08,5.15-2.19,8.21-3.5-1,2.77-1.87,5.09-2.66,7.45a54.06,54.06,0,0,0-1.7,5.66c-.88,4,.82,5.76,4.8,5.25,2.66-.34,5.33-.6,8.61-1-2.47,2.74-4.55,5-6.58,7.3a23.5,23.5,0,0,0-3.68,5.32c-1.17,2.44-.5,4,2.1,4.7,2.16.56,4.39.86,7,1.37-3.66,2.54-7.11,4.61-10.15,7.26-.64.55-1.31,1.07-1.94,1.64-4.49,4.11-4.43,5.48.29,9.18,1,.81,2,1.72,3.25,2.86-4.36,1.08-8.45,1-12.45,1.51-3.62.46-4.59,2-3.06,5.31,1.3,2.82,2.67,5.6,3.92,8.44.35.79,1.27,1.75.53,2.5-.42.41-1.61.14-2.43,0-4.82-.75-9.63-1.57-14.46-2.31a19.21,19.21,0,0,0-7,0c-2.8.61-3.76,2.08-3.33,4.9.22,1.49.62,3,.81,4.44.11.87.78,2-.13,2.6s-1.51-.46-2.22-.86c-3.44-1.94-6.85-3.93-10.3-5.84a12.67,12.67,0,0,0-6.19-1.71,4.1,4.1,0,0,0-3.64,1.7c-1.61-.22-1.71-1.65-1.94-2.73-2-9.1-4.06-18.17-5-27.47-.73-7.05-.48-14.1-.55-21.15,0-1.42.27-2.81.38-4.21a7.09,7.09,0,0,1,4.51-6.56c3.54-1.52,5-4.25,4.74-8.12-.19-2.53-.07-5.08,0-7.62C453.91,152.32,453.29,151.15,454.72,150.82Z" transform="translate(-100.94 -1.08)"/><path class="cls-8" d="M604.5,270.69c-1.31,2.1-2.56,4.14-2.67,6.79-.06,1.23-1.11,2.37-2.15,3.22-11.95,9.72-24.6,18.32-39.25,23.46a224.62,224.62,0,0,1-38.81,9.43,40.16,40.16,0,0,0-15.79,6.46,8.81,8.81,0,0,0-3.76,6,244.76,244.76,0,0,1-15.86,50.71c-4.61,10.37-9.27,20.78-11.38,32.07-1.19,6.38-.45,12.72-.13,19.08.17,3.37.7,6.73.82,10.1.32,8.17.38,16.36.75,24.52.54,11.66.35,23.33.57,35,.1,5.15.68,10.29,1,15.44-1.85,1.38-.84,3.17-.67,4.82.12,1.08.38,2.15.58,3.22-.38,2.08,1.29,4.32-.49,6.29L462,522a4.41,4.41,0,0,1-.5-2.45c0-8.81.24-17.64-.15-26.44-.51-11.53-1.85-23-1.48-34.58s1-22.84,2.06-34.24c.76-8.51,1.66-17,3.75-25.26,2.8-11.16,7.66-21.58,11.83-32.24,5.75-14.67,12.25-29.11,15.24-44.71,1-5.41,1.44-10.94,2-16.44.15-1.45.41-2.08,2-2.32A72.14,72.14,0,0,0,511,300.11a33.45,33.45,0,0,0,10.6-6.27,12.27,12.27,0,0,1,6-2.81,66.35,66.35,0,0,1,14-1.14c11.43.35,22.07-3.06,32.46-7.26,8.63-3.48,17.09-7.35,26.3-9.1C602.28,273.18,602.94,271.34,604.5,270.69Z" transform="translate(-100.94 -1.08)"/><path class="cls-8" d="M608.44,329.37c3.32,1.13,4.72,3.59,4.53,6.95q-.91,16-3,31.94c-.8,6-1.07,12.15-1.49,18.23-.94,13.64.94,27.17,1.48,40.76.64,16,1.07,31.93.42,47.94a362.35,362.35,0,0,0,.23,40.63c0,.37,0,.75,0,1.13,0,10.15.88,20.29.94,30.42.06,8.58-.39,17.29-3.13,25.61-3,1.21-6,2.47-9.11,3.6-1.57.58-3.35-1.42-3.28-4.06.13-4.4.53-8.79.83-13.18,0-.56.21-1.11.23-1.67.2-5.63.61-11.26.51-16.88-.2-10.42-.32-20.86-1.16-31.23a440.16,440.16,0,0,1-.84-48.45c.3-10.34.78-20.71.24-31-1-20-1.07-40-.86-60,.09-7.93.61-16,3.71-23.47,2.23-5.41,5.06-10.48,9.44-14.48C609.15,331.17,608.87,330.35,608.44,329.37Z" transform="translate(-100.94 -1.08)"/><path class="cls-8" d="M454.72,150.82c0,3.64-.12,7.28,0,10.91.17,3.42-1,6.14-4.18,7.24-5,1.73-5.22,5.71-5.43,9.87-.78,15.58,1.16,30.89,4.73,46,.49,2.08.66,4.26,1.91,6.11,0,2.44,0,4.89.05,7.33a8.11,8.11,0,0,1-.23,1.15c-2.16-2.52-4.09-4.86-6.12-7.11a40.71,40.71,0,0,0-4-4c-3.07-2.6-5.11-2.38-7.61.71-1.18,1.46-2.3,3-3.77,4.86-1-6-2-11.53-2-17.15,0-2.67-1.25-2.92-3.1-2.53a55.16,55.16,0,0,0-5.77,1.84,41.59,41.59,0,0,1,5.86-11.57c1-1.34,2.11-2.74,1-4.31s-2.79-.84-4.21-.59c-2.28.42-4.51,1.08-6.91,1.37,3.4-4.81,7.18-9.12,12.62-11.62.59-.28,1.26-.41,1.83-.71.86-.45,1.64-1.06,1.47-2.18a2.11,2.11,0,0,0-1.84-1.86c-2.74-.57-5.48-1.17-8.27-1.77-.13-.93.72-1.12,1.28-1.52a97,97,0,0,1,15.39-8.82c3.39-1.62,3.58-3,.83-5.64-2.18-2.14-4.44-4.21-6.48-6.58,3.65.17,7,.48,10.47-.3,3.65-.82,4.6-2,3.86-5.71-.49-2.47-1.32-4.89-.89-7.69Z" transform="translate(-100.94 -1.08)"/><path class="cls-8" d="M528.19,10.77a70.21,70.21,0,0,0-13.77,10.61,9.07,9.07,0,0,0-1.72,1.85c-5,9.33-12.37,17-17.46,26.27-4.38,8-6.39,16.6-7.74,25.45a41.91,41.91,0,0,1-6,16.85c-3.69,5.67-7.1,11.51-11.22,16.91-4.64,6.08-6,13.43-7.49,20.71,0,.11.21.27.33.41-2.29,5.33-2.84,11.21-5.08,16.45-.38.17-.47.08-.48-.2-.09-9.1.52-18.23-.61-27.29-.91-7.39,1.43-13.75,5.64-19.52,10-13.67,16.79-29,24.28-44.08,4.35-8.74,8.51-17.62,14-25.72C507.48,19.71,516.39,13.07,528.19,10.77Z" transform="translate(-100.94 -1.08)"/><path class="cls-8" d="M503.38,232.33c-4.48,4-10.06,6-15.41,8.45a8.22,8.22,0,0,0-3.37,2.47c-3.71,5-9.07,6.28-14.86,6.49-3.47.13-6.94.1-10.41.14a28.35,28.35,0,0,0,3.87-10.46c.36-2,1.31-2.48,3.1-1.36a81.19,81.19,0,0,1,9,6.2c.9.76,1.87,1.38,3.05.63s1.26-2,1-3.26c-.57-3.31-.95-6.67-1.71-9.94-.48-2.07.47-2.2,2-2.27,4.56-.2,8.89,1.23,13.33,1.84A73.1,73.1,0,0,0,503.38,232.33Z" transform="translate(-100.94 -1.08)"/><path class="cls-25" d="M381.86,344.62c.25-1.28-1.39-2.5-.12-3.81.23,1.09.47,2.18.7,3.28.17.57-.07.71-.59.54Z" transform="translate(-100.94 -1.08)"/><path class="cls-26" d="M381.85,344.63l.59-.54c.48.55.89,1.25.19,1.75C382.39,346,382,345.12,381.85,344.63Z" transform="translate(-100.94 -1.08)"/><path class="cls-27" d="M547.19,17.17a5.47,5.47,0,0,1,1.55.8,16.68,16.68,0,0,1,4.41,6.44c.38,1.07.42,2.13-.75,2.65a1.81,1.81,0,0,1-2.52-1.12,19.12,19.12,0,0,0-4-5.73,1.59,1.59,0,0,1-.47-2A2,2,0,0,1,547.19,17.17Z" transform="translate(-100.94 -1.08)"/><path class="cls-28" d="M564.32,249.48a9.74,9.74,0,0,1,.27-1.34q2.35-7.35,4.73-14.68c.42-1.29.95-2.72,2.65-2.12s1.35,1.92.89,3.3q-2.64,8-5.14,16a1.62,1.62,0,0,1-2.09,1.31C564.46,251.72,564.3,250.79,564.32,249.48Z" transform="translate(-100.94 -1.08)"/><path class="cls-10" d="M460.91,539.07c-.12-2.38-.83-4.87,1.18-6.89,5,1.21,9.66,3.3,14.73,4.11a.7.7,0,0,1,0,1A120.8,120.8,0,0,0,460.91,539.07Z" transform="translate(-100.94 -1.08)"/><path class="cls-29" d="M477.3,527.29c.25-2.08-.5-4.25.49-6.29,1,2.69,2,5.38,3.3,8.65Z" transform="translate(-100.94 -1.08)"/><path class="cls-30" d="M481.74,536.85c.56-.09,1.29-.21,1.46.41s-.54.65-1,.62c-1.66-.1-3.36.37-5-.44C478.62,536.17,480.33,537.68,481.74,536.85Z" transform="translate(-100.94 -1.08)"/><path class="cls-31" d="M481.74,536.85c-1.38,1.07-3,.14-4.48.59a1,1,0,0,1-.48-.16l0-1Z" transform="translate(-100.94 -1.08)"/></svg>