<svg id="Capa_1" data-name="Capa 1" xmlns="http://www.w3.org/2000/svg" viewBox="0 0 612 612"><defs><style>.cls-1{fill:#fefefe;}.cls-2{fill:#f49b4b;}.cls-3{fill:#3a4d64;}.cls-4{fill:#70181a;}.cls-5{fill:#fff;}.cls-6{fill:#fac594;}.cls-7{fill:#838898;}.cls-8{fill:#fffefe;}.cls-9{fill:#fac493;}.cls-10{fill:#fffdfb;}.cls-11{fill:#858794;}.cls-12{fill:#f7c496;}.cls-13{fill:#fbf6f3;}.cls-14{fill:#f8ede3;}.cls-15{fill:#f8b77c;}.cls-16{fill:#fcd1aa;}.cls-17{fill:#848998;}.cls-18{fill:#fdfdfd;}.cls-19{fill:#f9f9fa;}.cls-20{fill:#818697;}.cls-21{fill:#8b8f9f;}.cls-22{fill:#868b9b;}.cls-23{fill:#f9ede3;}.cls-24{fill:#5d687c;}.cls-25{fill:#d5d5dd;}.cls-26{fill:#bbbcc6;}.cls-27{fill:#3b4e64;}.cls-28{fill:#d4b7ae;}.cls-29{fill:#f59b4c;}.cls-30{fill:#f3e7de;}</style></defs><title>pose5</title><path class="cls-1" d="M376.58.08Q528.26.08,679.94,0c2.31,0,2.75.48,2.75,2.76q-.11,303.21,0,606.4c0,2.16-.25,2.83-2.68,2.83q-303.36-.12-606.72,0c-2.14,0-2.6-.5-2.59-2.61q.07-303.19,0-606.4c0-2.22.24-3,2.81-3Q225,.14,376.58.08Z" transform="translate(-70.69 0)"/><path class="cls-2" d="M395.59,388.7c8.41,2,17,3.21,25.08,6.52a2.14,2.14,0,0,0,1.88-.06c3.39-1.61,6.79-3.19,10.16-4.77,0-.74-.58-.95-.95-1.33-2.34-2.38-1.83-4.7,1.45-5.2,2.42-.36,2.9-1.36,2.67-3.46-.14-1.4,0-2.83,0-4.24s.22-2.52,1.49-3.13,2.38,0,3.44.67,2.07,2.74,3.27,2.39c1.59-.46,1.9-2.63,2.73-4.09.32-.57.59-1.18.87-1.78.73-1.52,1.29-3.35,3.4-3.32s2.57,2,3.36,3.41c.49.9.89,1.85,1.39,2.92,2.46-1.59,4.75-3.06,7-4.55,1.31-.86,2.71-1.58,4.2-.69s1.12,2.47,1.13,3.86c0,1,0,2,0,3.13,3.05-.16,5.72-1.38,8.51-2.13,5-1.34,6.24-.3,5.68,5,2.39-.06,4.45-1.26,6.68-1.74,1.73-.37,3.58-1.26,5,.42s.42,3.55-.59,5c-1.53,2.14-1.19,3,1.32,3.74,3.34,1,3.66,2.86,1.2,5.34a12.94,12.94,0,0,0-2.33,2.26c4.21-.55,6.48,1.77,8.49,4.49,3.89,5.27,8.08,10.18,14.28,12.93,1.24.55,2.19,1.77,3.28,2.67,1.92,1.58,3.76,3,6.59,1.87a5.6,5.6,0,0,1,5.13.92c7.67,5.15,16.19,8.36,24.93,11.14a35.46,35.46,0,0,1,17,11.75c3.51,4.33,7.65,7.43,13.18,8.64a22,22,0,0,1,5.2,2.17c3.15,1.63,3.56,3.61,1.32,6.33-5.58,6.79-12.63,10.9-21.48,11.72-7.78.72-15.55,1.5-23.33,2.22a22.48,22.48,0,0,1-3.67.08c-3.27-.24-4.6-1.54-4.6-4.8,0-1.85-.36-2.47-2.4-2.09q-10.69,2-21.44,3.63c-4.47.67-9,1.25-13.38-.48-1.18-.46-1.28.31-1.5,1-1.36,4.35-4.71,6.13-8.89,6.92.16,1.3,1.27,1.84,2.07,2.55,3.8,3.36,6.71,7.61,10.86,10.67,2.06,1.52,3.05,4.11,3.85,6.5A42.59,42.59,0,0,0,518.48,509a17.6,17.6,0,0,1,4.66,12.64,52.33,52.33,0,0,0,3.15,17.16c2.92,8.54,4,17.27,1.89,26.15-1.38,5.88-3,7.12-9.09,7.88-6.81.85-13.61.83-20.17-1.22-11-3.45-22-3-33.24-.93a57.3,57.3,0,0,1-36.35-4.84c-8.11-4-16.75-5.63-25.68-5.92a42.93,42.93,0,0,1-17.75-4.14c-7.42-3.64-14.89-4.4-22.64-1.19a34.21,34.21,0,0,1-4.61,1.3c-.54.14-1.12.08-1.47.66-2.66,4.49-7.17,6-11.83,6.89-17.74,3.33-34.7,9.45-52.05,14.19-11.69,3.2-23.53,5.32-35.65,5.31-7.83,0-15.51-1.74-23.23-3a236.26,236.26,0,0,0-23.91-2.4c1.34,1.81,2.53,3.35,3.64,4.94a39.6,39.6,0,0,1,6.16,13.27c1.73,7.06-1.64,11.33-8.83,11.76-3,.18-5.88.33-8.79,1.56-3.88,1.62-7.84.19-11.44-1.47a26.89,26.89,0,0,0-7.8-2.35c-7.77-1-13-5.3-14.74-12.85a122.78,122.78,0,0,0-10-28.45,36,36,0,0,1-3.45-10.73,23,23,0,0,1,1.36-12.49c2.27-5.47,6.91-7.85,12.74-6.9,3.37.55,6.33,2.39,9.73,2.76.85.09,1.09,1,1.59,1.52,1.46,1.57,2.95.55,4.42,0,1.72-.62.22-1.45.11-2.18a2.48,2.48,0,0,1,1.12-2.44,31.33,31.33,0,0,1,3.22-2.29,77.73,77.73,0,0,0,22.13-19.15c5.81-7.4,13.15-10.29,22.1-11.3a34,34,0,0,0,22.05-10.91c3.25-3.59,7.4-5.42,11.92-6.62,7.3-1.94,14.29-4.72,21.35-7.37,10-3.78,16.55-11.18,22.21-19.71a5.33,5.33,0,0,1,1.35-2.57,15.24,15.24,0,0,0,1.21-1.45c4.85-6.12,9.25-12.6,14.25-18.61,1.05-1.26,1-2-.27-3-5.2-3.93-9.62-8.71-14.18-13.33-11.25-11.41-20.32-24.45-28.33-38.26-1.27-2.21-2.89-4.19-4-6.49-2-3.84-3.89-7.77-7.23-10.72-2.3-1.62-3.17-4.37-5-6.33a12.7,12.7,0,0,0-3.08-4,22.74,22.74,0,0,1-2-2.64c-2-2.85-1.91-4.23.54-6.8a19.2,19.2,0,0,1,3-2.15,2.28,2.28,0,0,0,1.35-2.7c-.14-1.25-.43-2.58.61-3.66a3.21,3.21,0,0,1,3.57.91c1.26,3.07,1.26,3.07,5.44,1.73,3.22.68,5.75-.58,7.93-2.83a9.66,9.66,0,0,0,2.08-1.8c4.08-2.65,5.74-6.42,5.93-11.27a12.33,12.33,0,0,1,4.57-8.8,12.65,12.65,0,0,0-3.18,2.16c-1.11.9-2.38,1.32-3.54.2s-.57-2.44.18-3.57a10.42,10.42,0,0,1,4.62-3.56,7.21,7.21,0,0,1,.77-.3c.73-.2,1.42-.5,2.16-.66,3.7-.82,5.84,1.36,5.62,5.76,2.73-.58,5.42-1.47,8.28-1.06A28.47,28.47,0,0,1,310,310c-2-.53-3.45-1.7-3.65-3.8s1.51-2.58,2.93-3.34c1.67-.88,3.57-.66,5.16-1-3.12-.24-6.31,1.58-9.63.09-1.17-2.35-.74-3.56,1.65-4.55,2.59-1.07,5.33-.49,7.6-.63-5-1.35-9.3,1.23-13.64,3.71-1.8,1-3.58,2.06-5.39,3-1.46.8-2.88,1-3.87-.77a4,4,0,0,1,.4-2.64c3.32-3.69,7.94-5.28,12.22-7.37a16,16,0,0,1,14.73.18c2.38,1.17,4.35,2.72,4.28,5.76a3.91,3.91,0,0,0,.71,1.82c1.64,3,.81,4.81-2.52,5.49-.82.17-1.67.08-2.51.26.24.62.88.66,1.32,1,1.63,1.21,2.65,2.74,2.24,4.84s-2.11,2.57-3.82,2.84c-3.92.62-7.71,1.82-11.6,2.59a14.64,14.64,0,0,0-4.72,1.84c-2.67,1.58-3.26,3.25-2.22,6.39.42.54.86,1.07,1.25,1.63,1.17,2.05,2.35,4.11,3.53,6.15a67.55,67.55,0,0,0,14.32,16.21,12.93,12.93,0,0,1,3.77,4.15,4.91,4.91,0,0,1-1.18,4.41c-1,.32-1.63-.26-2.26-.83-6.54-6-13-12-18-19.44-.85-1.26-1.53-2.6-2.25-3.92-1.22-2.22-2.19-2.42-4.24-.9-1.06.79-1.94,1.79-3,2.62a24,24,0,0,1-10.69,4.89c-3.14,1-6.43,1.53-9.46,2.87s-3.4,2.19-1.22,4.62c8.73,9.75,15.65,20.71,22.19,32a178.81,178.81,0,0,0,33.37,41.56c1.72,1.6,3.59,3,5.41,4.54a2.06,2.06,0,0,0,3.2-.21c1.76-1.84,3.6-3.61,5.38-5.43A126.46,126.46,0,0,1,356,407.08c3.61-2.66,3.48-2.73.26-5.61a79.69,79.69,0,0,1-16-18.88c.24-2-.22-4.08,1.14-5.84,1.61.15,1.92,1.65,2.6,2.66A84.61,84.61,0,0,0,360.32,398c3.11,2.56,3.14,2.56,6.49.38A73.09,73.09,0,0,1,386,389a19.36,19.36,0,0,1,5.95-.92C393.13,388.46,394.41,388.3,395.59,388.7Z" transform="translate(-70.69 0)"/><path class="cls-3" d="M286.92,333.65a3.41,3.41,0,0,0-.84.69c-1.83,2.83-4.41,3.15-7.36,2.28-2.13-.07-4.3,0-5.85-1.89a7.65,7.65,0,0,0-3.44-.92c-1.58.27-1.7,1.31-1.58,2.67s1,2.7-.2,3.95l-2.53,1.88c-1.65-1.51-1.32-3.63-1.53-5.51-.29-2.54-1.1-4.46-3.67-5.49a11.16,11.16,0,0,1-5.1-4.73,64,64,0,0,0-8.12-10.85c-3.17-3.21-7.17-4.8-11.17-6.47a3.17,3.17,0,0,0-2.23-.06c-6.38,2.18-12.48.42-18.58-1.3-1.54-.43-3.11-.83-4.61-1.38-4.14-1.53-7.72-.33-10.69,2.47a34.49,34.49,0,0,1-9.4,6.16,23,23,0,0,0-13,16.19,61,61,0,0,1-8.69,20.13c-7.63,11.43-11,24.24-12.56,37.75-.9,7.89-1,15.81-1.46,23.7-.39,7.13.77,14.29,1.22,21.43.3,4.7.47,9.41.92,14.1.12,1.19-.22,2.5.92,3.41a16.27,16.27,0,0,0,9.64,1.4c2.7-.46,5.45-.14,8.17-.59,1.86-.3,2.72-1.07,2.87-3.08.4-5.18.38-10.36.58-15.53.58-15,.47-30,.55-44.94,0-3.6-.85-7.12-.57-10.72.12-1.48,0-3.12,2-3.57,2.46.57,2.34,2.57,2.54,4.45.87,8.46.53,17,.56,25.42,0,9.52.23,19.05-.07,28.56-.2,6.5-.85,13,0,19.46.63,3.72,1.44,7.45-1.17,10.85-1.15,1.5.34,1.71,1.22,2.06,5.23,2.06,10.75,2.65,16.29,3.33,11.05,1.34,22.16,1.74,33.26,2.05a151.34,151.34,0,0,0,18-.73,16.17,16.17,0,0,0,8.47-3.62c2.17-1.67,4.31-3.38,6.62-4.85q5-2.94,10.08-5.74c1.83-1,2.2-2.23,1.6-4.19-1.56-5.14-3.41-10.23-4-15.6-1-7.85-1.87-15.71-1-23.66.39-3.37-.22-6.82.17-10.18,1.41-12.42-2-24.12-5.12-35.86A87.31,87.31,0,0,1,265.4,355c-.17-1.33-.85-3.08,1.25-3.75a6.85,6.85,0,0,1,2.78,3.81c4.66,14.83,9.95,29.56,8.69,45.48-.62,7.91-.4,15.81-.52,23.72-.1,7.05,1.42,13.83,3.28,20.57.52,1.88,1.59,2.51,3.46,2.55a71.91,71.91,0,0,1,21.08,3.52,35.08,35.08,0,0,0,5,1.08c1.14.19,2.55.2,2.6,1.93-.7.65-.49,1.94-1.64,2.27-7.51-1.22-14.59-4.44-22.29-4.8-1.12-.06-2.24-.23-3.37-.24-3.51,0-3.53,0-2.22,3.32.49,1.25,0,1.91-1.06,2.49a192.41,192.41,0,0,0-23.12,14.63c-4.39,3.26-9.86,3-15,3.14A281.16,281.16,0,0,1,191.88,472a48.6,48.6,0,0,1-13.68-4.28c-2.3-1.1-2.53-2.43-.86-4.44.78-.95,1.69-1.78,2.47-2.73a3.05,3.05,0,0,0,.38-3.44c-.66-1.39-1.75-.65-2.71-.62-6.09.2-12.16,1.77-18.27.33-5.32-1.25-6.12-2.14-6.51-7.52-.77-10.71-1.94-21.42-2.11-32.15-.27-16.79.58-33.54,5.61-49.77,2.22-7.18,5.84-13.66,9.92-19.89A47,47,0,0,0,172.7,332c2.28-10,8.13-17.21,17.67-21.26.43-.18.86-.38,1.27-.59a3.11,3.11,0,0,0,.54-.43c-3.68-3.75-7.68-7.14-11.05-11.21-8.1-9.8-10.6-20.95-5.79-32.48,5-11.91,7.48-24.16,9.39-36.75,2.61-17.18,12.27-30,25.87-40.28,11.89-9,25-14.43,40-15.15,4.59-.22,9.16-.92,13.74-1.47a16,16,0,0,0,11.58-7.23c2.22-3.17,4.33-6.28,7.81-8.64,2.92-2,4.68-5.79,7.25-8.56.78-.84,0-1.74-.45-2.56a30.29,30.29,0,0,0-9.82-10c-1.49-1-3-1.95-4.46-3-.91-.66-2-1.38-1.64-2.72a2.93,2.93,0,0,1,2.74-2.12,24.84,24.84,0,0,1,7.31-.33c2.77.45,5.58.63,8.34.93.47-1.16-.36-1.72-.76-2.39-4.74-7.8-11.55-13.61-18.63-19.15-1.19-.93-2.35-1.89-3.52-2.85a2.7,2.7,0,0,1-1.11-3.22c.48-1.23,1.63-1.38,2.82-1.46a45.37,45.37,0,0,1,24,4.95c2.5,1.28,5,2.64,7.58,4-.42-2.46-2.09-4.15-3.56-5.88-4.39-5.15-9.85-9-15.5-12.65-1.13-.72-2.37-1.39-2.06-3s1.75-2,3.21-2.19c13.43-2,26,.6,37.87,7,2.2,1.18,4.3,2.53,6.73,4-.26-2.27-1.63-3.64-2.64-5.13a63.63,63.63,0,0,0-4.05-5.09c-.84-1-1.55-2-.65-3.27s2.13-.77,3.33-.38a53.51,53.51,0,0,1,16.21,9,81.2,81.2,0,0,1,20.52,23.86A42.23,42.23,0,0,1,368,131.15a4.75,4.75,0,0,0,2.62,4.13c5.88,3.48,7.8,10.05,6.83,17.49-1.55,12-8.48,20.67-16.05,29.16-1.88,2.11-4.48,3.95-5.42,6.42-1,2.65,2.35,4.52,3.26,7a56.15,56.15,0,0,0,9.35,16.3c3.46,4.26,4.55,9.62,5.72,14.87,2.34,10.55,5.27,21,6.37,31.77.7,7,1,13.94-1,20.74a27.1,27.1,0,0,0,.28,17.14c2.75,7.79,1.65,15.78-.43,23.4-3,11-4.1,22.19-5.33,33.41-.25,2.29-.72,4.54-2.67,6-1.35,1-.45,1.44.28,2.05,2.26,1.85,4.52,3.7,6.74,5.59a42.08,42.08,0,0,1,8.57,10.09c2.13,3.44,4.15,7,7.46,9.5a2.21,2.21,0,0,1,1,2.44c-1.12.93-2.21.57-3.3-.07-2.38-1-3.82-3-5.19-5C384,379,381.27,374,377,370.15c-3.21-2.9-6.69-5.46-10-8.22a4.58,4.58,0,0,0-3.19-.81,29.68,29.68,0,0,1-7.15-1.63,20,20,0,0,0-8.64-1c-3,.3-3.52.85-3.65,3.86-.18,4.54-1.44,8.93-1.86,13.44a1.49,1.49,0,0,1-.86,1.36c-.26,1.94-.53,3.87-.79,5.81a7.13,7.13,0,0,1-6.54,8.69,39.17,39.17,0,0,1-22.14-5.29,8.28,8.28,0,0,1-2.11-7c-.81-6.77,2.27-11.63,7.48-15.54,1.77-1.33,2-3.74,3.38-5.42a10.58,10.58,0,0,0,1.21-4.57,4.69,4.69,0,0,1,.26-2.77c.76-1.9,1.35-3.63-.77-5.24-1.06-.79-.68-2.25-.29-3.45,1-3,1.9-5.92,3-8.83,1.08-4.33,1.06-4.42-3.09-3.3a22.26,22.26,0,0,1-11.43.08c-3.18-.8-6.36-1.63-9.47-2.69l-1.21-1.13c-.38-2.34,0-2.86,2.32-2.76a26.85,26.85,0,0,1,7.14,1.64,23.3,23.3,0,0,0,14.42-.16c2.51-.75,3.62-2.05,3.68-4.53.15-5.46.89-10.88.8-16.36-.17-9.9-.19-19.83,2.1-29.53,3-12.79,7.88-25,13-37,.15-.34-.07.07.13-.25.82-1.32,1.76-2.76,3.55-1.92s1.19,2.32.64,3.69c-6.2,14.88-12.26,29.8-14.29,46a24.06,24.06,0,0,0-.17,3.39c0,11.2-.45,22.39-1.22,33.56A63.86,63.86,0,0,1,328,337.39a25.87,25.87,0,0,0-1.42,4.89,49.75,49.75,0,0,1,11.06-.8,69.21,69.21,0,0,1,24.66,5.67c2,.82,4,1.62,6,2.54,1.75.83,2.38.25,2.54-1.51.46-5.17,1.05-10.32,1.71-15.46.86-6.67,3.34-13,4.26-19.64a39.26,39.26,0,0,0-1.18-17.9,22.3,22.3,0,0,1-.51-13.39c3.37-11.44,2.24-22.81-.08-34.17-1.78-8.69-3.71-17.35-6.08-25.9a24.17,24.17,0,0,0-4.15-8.62,58.72,58.72,0,0,1-9-16,15.42,15.42,0,0,0-.69-1.56c-1.61-3.17-2.18-3.31-5-1-2,1.6-3.9,3.29-5.89,4.87-1.23,1-2.64,1.68-4.1.45s-.73-2.68.05-4c1.29-2.27,3.17-4.16,4.5-6.77a8.47,8.47,0,0,0-3.75,1.78,66.38,66.38,0,0,1-8.62,4.86c-3.17,1.35-6.22,1.62-8.88-1.11a36.7,36.7,0,0,1-2.87-3.47c-.77-1.09-1.35-1-2.15,0-6.12,7.47-11.38,15.43-14.19,24.77-.76,2.51,0,5.22-.09,7.85a31.24,31.24,0,0,1-.9,9,171.87,171.87,0,0,0-4.13,25.11c-.11,1.43,0,3.39-2.19,3.25s-2.24-2-2.25-3.63a81.43,81.43,0,0,1,2.17-17.66c.78-3.6,1.67-7.17,2.28-10.8,1.39-8.29-.34-16.16-3.2-23.84-3.49-9.38-7.88-18.38-12.22-27.39a30.91,30.91,0,0,1-3.14-10.52,5.52,5.52,0,0,0-.28-1.89c-3.22,5.22-7.24,9.1-13.17,10.42-5.05,1.25-10.24,1.36-15.38,1.84-5.7.53-11.43,1-16.85,3.06-9.4,2.11-16.89,7.66-24.33,13.35-13.74,10.51-21.14,24.54-23,41.59a89,89,0,0,1-7.51,28.56c-3.49,7.45-4.31,15.36-1.21,23.36,2.21,5.71,6.33,10,10.42,14.27a5,5,0,0,0,.88.7c1.62,1.09,2.49,3.52,4.59,3.48,1.85,0,3.06-2,4.78-2.81,3.31-2.17,6.9-2.28,10.61-1.46,5,1.09,9.7,3.11,14.77,3.83,3.9.55,7.2-.09,9.81-3.42s6.62-5.25,10.28-7.39c3.31-1.94,3.36-2.47.24-4.86-4.62-3.56-9.43-6.88-13.26-11.39a17.34,17.34,0,0,1-3.73-8.72,29.94,29.94,0,0,0-4.51-10.9,55.54,55.54,0,0,1-5.88-12.2,11.41,11.41,0,0,1-.52-5.58c.52-2.81,2.21-3.78,5.13-3,2.82,2,2.94,2.8.4,4.63-1.05.75-.85,1.52-.58,2.44a36.88,36.88,0,0,0,4.33,9.44,34.58,34.58,0,0,1,2.32,4c1-3,1.07-6.37,3.6-8.81a3.07,3.07,0,0,1,3.06,3.11c-1.92,4.12-3.64,8.34-3.45,13,.26,6.3,3.51,11,8.33,14.79q4,3.15,8.08,6.22a8.63,8.63,0,0,1,3.77,5.45,2.89,2.89,0,0,0,2.23,2.53c3.65,1.29,7.24,2.71,11,3.71a8.36,8.36,0,0,0,6.79-.87c5.37-3.16,11-2.51,16.7-1,1.69.45,3.12,1.44,3,3.59l-.54,2.22c-.9,2.07-3,2-4.69,2.58a7.9,7.9,0,0,0-1.82.77c-3.25,1.87-3.57,4.3-.73,6.71a47.16,47.16,0,0,1,5.92,5.64c1.7,2.06,2.67,4.22,1,6.94-1.14,1.8-.26,4.64-2.83,5.8C287.46,331.68,287.74,332.94,286.92,333.65Z" transform="translate(-70.69 0)"/><path class="cls-4" d="M387.49,317.56a319.67,319.67,0,0,0,7-39c1-9.56,1.78-19.15,2.74-28.72.19-2-.07-5.23,2.1-5.25s2.16,3.26,2.55,5.29c2,10.24,1,20.51-.08,30.73a327.16,327.16,0,0,1-6.7,41.28c-.11.45-.29.89-.45,1.4,1.07.85,1.79-.1,2.6-.62,1.59-1,3.2-2,4.76-3,1.94-1.3,2.24-.09,2.21,1.45a4.86,4.86,0,0,1-.47,2.18c-2.75,5.16-6.28,9.68-11.51,12.47-3.87,2.06-7.09.53-8.29-3.72a71.41,71.41,0,0,1-2.37-19.31,12,12,0,0,1,.38-2.19c.16-.89.46-1.67,1.53-1.72s1.48.81,1.74,1.58C386,312.59,386.65,314.84,387.49,317.56Z" transform="translate(-70.69 0)"/><path class="cls-5" d="M323.7,193.91c2.32,2.65,5.09,2.38,8,1.24,4.15-1.62,7.7-4.3,11.44-6.63.94-.58,1.86-1.25,2.67-.23.63.78-.37,1.43-.8,2.06-1.45,2.09-2.95,4.14-4.41,6.22-.67,1-1.29,2-.16,3s2.15.23,3-.49c2.62-2.14,5.3-4.24,7.79-6.54,1.49-1.38,2.37-1.11,3.25.49a29.38,29.38,0,0,1,1.62,3,73.41,73.41,0,0,0,10.13,17.83c3.32,4.22,4.12,9.62,5.25,14.76,1.91,8.63,4.13,17.18,5.53,25.94A65.83,65.83,0,0,1,375.63,283a15.58,15.58,0,0,0,.15,9.48c3.47,9.64,2.83,19.28.08,28.89-2.82,9.83-3.55,20-4.63,30.28-10.79-4.64-21.45-9.1-33.26-9.48-1.57-2.23-1-4.75-.71-7.11a126.1,126.1,0,0,0-.33-31.24c-1.05-8.08-.76-16.11,2.18-23.95,2-5.37,3.57-10.92,5.31-16.39a29.94,29.94,0,0,0,1.16-8.65c.09-5.24-.61-10.54.83-15.72a14.3,14.3,0,0,0,.37-1.91,1.33,1.33,0,0,0-.88-1.33,1.24,1.24,0,0,0-1.51.46,8,8,0,0,0-1,1.71c-5.62,13.14-10.93,26.4-13.77,40.48a92,92,0,0,0-1.34,18,250.46,250.46,0,0,1-1.11,26.55c-.14,1.29-.52,1.7-1.83,2.21-7.16,2.82-14.13,2.35-21.12-.46a15.21,15.21,0,0,0-3.35-.48c-1.74-.25-2,.72-1.76,2.1a5.45,5.45,0,0,1,2.17-7.65c4.66-2.83,10-3,15.05-4.4,1.87-.54,4.6.32,5.07-2.48.51-3-1.84-4.26-4.16-5.3-.39-.18-.94-.09-1.25-.94,1.88-.2,3.72-.28,5.51-.62,2.41-.46,3.08-2.21,1.53-4.1-.8-1-1.39-1.69-1.07-3.14.39-1.74-1.13-2.73-2.38-3.52a15.12,15.12,0,0,0-13.54-1.72A53,53,0,0,0,292,300.29a5.75,5.75,0,0,0-4.77-3.44c-5.35-.83-10.64-1.53-15.42,2.06a6.06,6.06,0,0,1-5.7.58c-4.46-1.43-8.88-3-13.28-4.59-.4-.15-1.5.19-1.23-1,.74-3.32-1.63-5-3.76-6.63-4-3.09-8.24-6-11.69-9.75a16.8,16.8,0,0,1-4.28-15.75c.73-3.23,1.19-6.61,3.38-9.34,1.28.31,2,1.38,2.79,2.25,6,6.44,12.88,11.72,20,16.72,1,.68,2.19,1.16,2.46,2.54-.18.64-.71.84-1.27,1-1.6.22-3.2,0-4.8.16-.48,0-1,.13-1.19.6s.1,1.08.51,1.49a9,9,0,0,0,2.1,1.42,41,41,0,0,0,12.05,3.89c4.17.8,6.15-1.06,5.8-5.31a46.74,46.74,0,0,0-4.48-16.59c-1,2.44-.75,4.46-.79,6.44,0,.85,0,1.7-.06,2.55-.27,2.27-1.2,2.83-2.89,1.43-8.7-7.21-18.47-13.07-26.41-21.22-.91-.93-2-1.76-2.37-3.11.64-4.2,3.14-7.57,5.09-11.18a41.4,41.4,0,0,0,3.43-7.7,9.9,9.9,0,0,0,.2-3.64c-.07-1-.2-2.17-1.37-2.56-1.45-.48-1.95.71-2.52,1.69-3.71,3.71-7.47,7.37-11,11.25a2.67,2.67,0,0,1-2.48,1.06c-2.27-1.66-3.21-4.29-4.68-6.53-.53-.79-.86-2.37-2-1.83-1,.44-.4,1.87-.14,2.85a32.55,32.55,0,0,0,2.27,5.13c.46,1,1.2,1.94.85,3.17-.54.76-1.22.58-1.91.27-3.39-.66-4.6.24-4.53,3.68.09,5.08,2.43,9.44,5,13.6,3,4.93,5.66,9.9,6.52,15.72.53,3.58,2.77,6.31,5.31,8.78a116.46,116.46,0,0,0,11.64,9.38c3.3,2.46,3.23,3.24-.26,5.23-4.5,2.56-8.85,5.22-12.28,9.29-2.27,2.69-5.74,2.4-9,2a77.26,77.26,0,0,1-13-3.43c-4.12-1.3-8.13-1.31-12,.87-.77.2-1-.39-1.18-.9-1.43-4.31-3.9-8.17-5.41-12.45-2.06-5.78-2.65-11.51.31-17.27,1.5-2.93,2.45-6.16,4.09-9,3.43-6,4-12.17,3-18.84a41.64,41.64,0,0,1,.62-15.71,87.16,87.16,0,0,1,13.53-31.49c3.26-4.65,7.65-8.06,11.82-11.72a58.36,58.36,0,0,1,7.76-6.12c4.53-2.31,9.55-2.63,14.43-3.11,6.32-.62,12.66-1.11,19-1.9a74.25,74.25,0,0,1,13.54,19.3,3.66,3.66,0,0,0,.57-3.64c-.93-4.71-2.31-9.32-3.14-14.06a16.71,16.71,0,0,1,.2-7.83c.34-1.15.67-2.43,2.35-2.22.58,7.37,4.62,13.44,7.58,19.9,3.75,8.21,7.6,16.36,10.08,25.08,2.54,8.92,1.45,17.71-.81,26.48a95.69,95.69,0,0,0-2.66,18.13,19.54,19.54,0,0,0,.07,2.54c.07,1.06.5,1.85,1.71,1.8s1.23-1,1.24-1.84c.1-8.91,2.17-17.53,4-26.17a52.34,52.34,0,0,0,1.07-9.25c2.66-6.62,7-12.27,10.58-18.36a84,84,0,0,1,6.73-9.78C321.53,194.41,322.11,193,323.7,193.91Z" transform="translate(-70.69 0)"/><path class="cls-5" d="M337.32,493.6c-5.44-.1-10.48-1.89-15.54-3.62a196.05,196.05,0,0,0-19.45-5.57c-.16-1.31,1-1.49,1.75-1.87,9.86-5,18.27-12,26.23-19.51a419.62,419.62,0,0,0,35.14-38.34c6.29-7.67,13.68-14.26,21-20.95a100.3,100.3,0,0,1,12-8.89c1.51-1,3-.76,4.59-.56,4.75.77,9.53,1.62,13.89,3.66s9,4,13.41,6.24c7.35,3.72,12.18,9.57,15.93,16.64,3.22,6.07,6.22,12.31,11.91,16.64a67.37,67.37,0,0,0,12,6.79c5.68,2.73,8.23,7.25,8.55,13.23a24.35,24.35,0,0,0,8.93,18.21c5.65,4.73,10.06,10.7,15.56,15.6,1.18,1.06,1.8,2.87,2.36,4.45,2,5.5,4.65,10.61,8.87,14.63,4.54,4.32,4.66,9.83,5,15.38a57.31,57.31,0,0,0,3.23,15.14,43.56,43.56,0,0,1,2,21.45c-.88,5.28-1.75,6.1-7,6.54-2,.16-3.9.68-5.9.44-5-.38-9.77-2-14.52-3.46a73.27,73.27,0,0,0-27.57-3.24,86.22,86.22,0,0,1-35.59-5.2c-11.6-4.25-23-9-34.35-13.92-2.51-1.09-5.17-1.77-7.75-2.68s-2.64-1.6-1.13-3.69c1-1.38,1.95-2.82,3.74-3.3,3.24.46,6.4,1.16,9.79.74,1.9-.23,4,.72,5.95,1.45,11.54,4.45,23.29,3.67,35.07,1.42,8.51-1.63,17-3.5,25.57-4.64,9.08-1.19,17.81.57,26.39,3.41a37.78,37.78,0,0,0,13.32,2.15c1.48,0,2.92-.17,3.3-2s-.66-2.57-2-3.33a485.77,485.77,0,0,1-44.24-28.39,76.91,76.91,0,0,0-39-14.45,13.78,13.78,0,0,0-3.95,0c-7.87,1.61-15.68-1.1-23.51.19,0-.54-.12-.82-.05-.87,6.06-4.35,7.29-11.15,9-17.72.34-1.29.18-2.42-1.15-3.11-1.65-.74-2.81.48-4,1.13-8.5,4.47-17,8.94-25.67,13.07a162.22,162.22,0,0,1-21.67,8.9c-4.47,1.39-9.1,1.33-13.68,1.69C341.81,493.66,339.56,493.58,337.32,493.6Z" transform="translate(-70.69 0)"/><path class="cls-5" d="M182.85,453.25c-1.14-4.81-.67-9.7-.43-14.53.71-14.4.33-28.81.51-43.22.08-5.94-.53-11.84-.69-17.76a2.5,2.5,0,0,0-1.64-2.66c-2.59-1.2-3.2-1-4.16,1.62a63.76,63.76,0,0,0-2.19,7.9c-2.77,12.15-6.11,24.14-8.86,36.29-1.48,6.52-1.74,13.28-3.91,19.68-1.09,3.22-2.08,6.47-3.28,9.65-.35.92-.52,2.11-2,1.94-.9-3.31-.71-6.72-1-10.09-.65-7.88-1.48-15.78-1.52-23.68-.1-18.28.36-36.55,6.95-54a81.63,81.63,0,0,1,8.39-15.63A46.12,46.12,0,0,0,175.61,333c2-9.11,7.18-15.81,15.88-19.55a18.89,18.89,0,0,0,6.25-4.14c3.59-3.68,7.83-5.15,13.07-3.44s10.52,3.58,16.17,3.58a9.6,9.6,0,0,0,3.09-.14c7.32-2.58,12.28,1.87,17.2,5.93,3,2.46,5.08,5.8,7,9.15s4.22,6,8,7.23a2.16,2.16,0,0,1,1.55,2.07c.35,2.88.88,5.75,1.33,8.62-2.74,2.67-2.76,3.37-.26,6.48.63.79,1.19,1.64,1.79,2.47-1.38,1.4-.66,3-.34,4.5,1.7,8.19,3.95,16.24,6.16,24.29,2.25,8.23,1.68,16.61,1.45,25-.3,11-1,22,1.13,32.93a111.43,111.43,0,0,0,4.19,14.91c.59,1.72.26,2.51-1.31,3.28-3.86,1.9-7.32,4.53-11.34,6.15-5.13-1.6-10.06.08-15,1.07a67.13,67.13,0,0,1-28.53-.59c-12-2.7-24-5.77-36.17-7.67A8.17,8.17,0,0,1,182.85,453.25Z" transform="translate(-70.69 0)"/><path class="cls-6" d="M260.9,535.42c0,2.83,0,5.66,0,8.5.08,3.7,2.17,5.74,5.79,5.72,7.3,0,13.66-2.27,18.67-7.8a127.3,127.3,0,0,1,21-18c5-3.53,10.82-4.71,16.63-5.86a97,97,0,0,1,22.44-1.76c3.12.12,3.51.69,3.3,3.94a44.88,44.88,0,0,0,2.08,16.71A113.53,113.53,0,0,1,354,549.43c.76,3.89-.27,6.25-3.8,8.17s-7.73,2.18-11.66,3.08c-9.89,2.28-19.64,5.1-29.34,8.1-13.11,4-26.27,7.88-39.94,9.64a82,82,0,0,1-23.56-.69c-10.28-1.64-20.53-3.52-31-3.84-2.6-.08-5.15-1-7.75-1.36s-2.25-1.63-1-3.19a48.53,48.53,0,0,1,13-11.53c11.3-7,23.6-11.68,36-16.13.45-.16.88-.33,1.31-.53,3.49-1.63,3.73-2.72,1.19-5.58C258.56,534.42,259.72,534.6,260.9,535.42Z" transform="translate(-70.69 0)"/><path class="cls-5" d="M497,422.08c-.67-1-1.31-2.06-2-3.05a2.08,2.08,0,0,0-3-.71c-1.11.67-1,1.76-.43,2.74,1.37,2.57,2.72,5.16,4.2,7.66a13.45,13.45,0,0,1,1.41,11.87c-1.41,4.07-1.21,8.32-.41,12.53a19.69,19.69,0,0,1,.73,5.29c-3.47,4.26-10.2,5.08-14.19,1.73-.34-1.92-.78-3.83-1-5.76-.71-6.39-4.37-10.58-9.83-13.47-.39-.41-.89-.78-1-1.35-.78-4.25-3.79-7.05-6.48-10.06a51.29,51.29,0,0,1-9.31-13.73c-2.88-6.68-2.11-13.46-1.09-20.29a3.32,3.32,0,0,1,2.17-2.75,67.72,67.72,0,0,0,12.95-.91c3-.41,5.79.55,8.49,1.63s5.12,2.39,7.69,3.59,4.92,1.83,7.57.5a3.28,3.28,0,0,1,4.48,1.09c1.27,1.65,2.69,3.17,3.9,4.86A26.93,26.93,0,0,0,512,412.31a24,24,0,0,1,4.82,3.43c2.93,2.48,6,4.77,10.2,3,1.05-.44,2,.18,2.9.75,7.28,4.9,15.28,8.12,23.62,10.65a33.7,33.7,0,0,1,16.91,11.32c4,5,8.8,8.46,15.14,9.68a20.32,20.32,0,0,1,2.1.83c2.4.75,2.33,1.74.32,2.95-4.85,3.19-10.51,4-16,5.27a7.43,7.43,0,0,1-5.92-1.35,22.15,22.15,0,0,0-5.73-2.37,218.64,218.64,0,0,1-31.32-12.93c-6-3.14-11.73-6.82-17.42-10.52a10.14,10.14,0,0,0-1.53-1.32A37.06,37.06,0,0,1,497,422.08Z" transform="translate(-70.69 0)"/><path class="cls-5" d="M301.13,488.37a116.45,116.45,0,0,1,19.27,5.48c12.05,4.76,24.49,4.61,37,3.48,12.08-1.08,24.11-2.57,36.28-2.8,5.06-.1,10.17.09,15.2-.42,6.68-.68,11.67,1.81,15.49,7.06,2.77,3.82,5.3,7.8,6.51,12.45s.39,6.52-4.06,8.37c-2.43,1-4.94,1.84-7.41,2.75-5.15.8-10.2-.33-15.29-.75a3.34,3.34,0,0,1-2.22-1.08c-1-1.51-2.62-1.76-4.16-2.11-15.34-3.42-30.95-5.23-46.43-7.8-13.35-2.23-26.68-.49-39.53,3.81-8.59,2.87-15.13,9-21.77,14.88a62.11,62.11,0,0,0-4.88,4.72c-4.71,5.15-9.94,9.22-17.38,9.18-.63-.56-.33-1.2-.16-1.83a85.61,85.61,0,0,1,15.13-30.4A198.71,198.71,0,0,0,295.91,495a24.26,24.26,0,0,0,2.73-5.25C299,488.46,299.71,487.74,301.13,488.37Z" transform="translate(-70.69 0)"/><path class="cls-6" d="M403,394.29c-2.27-.39-3.74,1-5.5,2.13-13.81,8.85-24.84,20.66-35.22,33.1-13.48,16.15-27.73,31.51-44,44.87-4.88,4-10.57,6.78-15.95,10-2.44.09-4.65-1.15-7.15-1-3.56.23-4.65,3.45-6.88,5.23a71.28,71.28,0,0,0-6.44,6.56C264.29,507.31,247.75,521,228.39,529c.69,0,2.12-1.33,3.17.68-3.49,0-7,.07-10.46,0a109.08,109.08,0,0,0-23.75,2.64c-.63.13-1.29.16-2.77.35,2.27-1.67,4-2.82,5.55-4.12a125.62,125.62,0,0,0,16.58-16,19.38,19.38,0,0,1,13.86-7.17c9.05-.79,17.58-3.09,24.73-9.09a5.5,5.5,0,0,0,1.28-1.1c3.76-5.83,9.87-7.51,16-9.12A126,126,0,0,0,298,476c6.21-3.19,10.2-8.77,14.4-14.12,10.91-13.89,20.67-28.75,33.7-40.91,5.3-4.95,11.56-8.74,16.89-13.63,5.5-5.05,11.87-8.58,18.46-11.87C388.49,392,395.68,391.9,403,394.29Z" transform="translate(-70.69 0)"/><path class="cls-6" d="M394.59,533.84c-1.22,1.43-2.42,2.88-3.67,4.29-.7.77-1.06,1.37.29,1.78,12.72,3.86,24.69,9.63,37,14.61,12.64,5.13,25.84,8.29,39.3,7.29s25.93,1.61,38.35,5.92c1.94.67,4,1.07,5.94,1.6a24.37,24.37,0,0,1-8.66-.92,5.19,5.19,0,0,0-3.82-.73C492.61,566,486,564.18,479,565c-5.78.64-11.53,1.48-17.29,2.28a50,50,0,0,1-27-3.54c-7.19-3.09-14.34-6.16-22.2-7-4.75-.53-9.52-.87-14.28-1.32a33.12,33.12,0,0,1-11-3.26,31.2,31.2,0,0,0-25.45-.86c-3.27,1.24-3.47,1.16-3.83-2.3-.49-4.73-2-9.17-3.37-13.67a44.08,44.08,0,0,1-1.9-13.35c0-1.72.2-2.4,2.2-1.58C367.76,525.66,381.18,529.74,394.59,533.84Z" transform="translate(-70.69 0)"/><path class="cls-5" d="M248.35,539.9c-13.57,4.5-26.4,10.5-38,19a34.22,34.22,0,0,0-7.7,8.23c-1.37,2-2.36,1.94-3.8.3-.68-.78-1.52-1.41-2.24-2.16-.91-.93-2-1.88-3.13-.76s-.76,2.66.38,3.73a106.1,106.1,0,0,0,8,7.19,41,41,0,0,1,13.91,19.17,11.33,11.33,0,0,1,.91,4.11c-.1,3.38-1.35,4.47-5.56,4.8a1.41,1.41,0,0,1-1.47-.65c-2.47-4.3-7-5.84-10.91-8.21-5.5-3.32-10.81-6.87-14.87-12-3.46-4.36-4.9-9.36-5.31-14.91-.6-8-.76-16.18-2.71-24.1-.25-1-1.28-2.61.75-3.28,1.23.58,1.56,1.82,2.1,2.9,2.36,4.72,4.5,9.57,8.25,13.42a16.67,16.67,0,0,0,1.42,1.37c1,.85,2.2,1.87,3.46.64s.18-2.35-.81-3.27c-.27-.26-.52-.55-.78-.82,0-.09-.08-.21,0-.27,3.62-6.48,7.4-12.94,15.47-14.47A123.81,123.81,0,0,1,240,538.49c1.88.16,3.77,0,5.65.15C246.67,538.72,248,538.32,248.35,539.9Z" transform="translate(-70.69 0)"/><path class="cls-6" d="M503.78,533.8c-4.32-1.18-8.64-2.33-13-3.54-8-2.26-16.1-1.81-24.29-.72-9.59,1.28-18.93,3.89-28.5,5.16-8.68,1.15-17.38,1.16-26.08-2.53,3.43-2.07,7-2.78,10.35-4.14,2.08-.86,4.25-1.52,6.35-2.35,5.74-2.27,7.73-6.22,6.33-12.35-1.56-6.77-5.1-12.49-9.36-17.83-.28-.35-.76-.59-.59-1.4,7.39-.38,14.42,1.43,21.32,3.86,9.25,3.26,17.29,8.58,25.13,14.37,10,7.39,20.65,13.79,31.34,20.12.38.23.75.49,1.13.74Z" transform="translate(-70.69 0)"/><path class="cls-6" d="M340.19,421c-1.49,1.56-3,3.14-4.48,4.68-2.9,3-2.91,3-6.14.23-15.54-13.26-28.06-29-38.49-46.53-2.64-4.44-5.23-8.92-7.86-13.37-4-6.85-9.71-12.42-14.65-18.56-1.31-1.64-1-2.35.4-3.26a11.45,11.45,0,0,1,3.23-1.69c2.88-.8,5.74-1.66,8.61-2.49,5.37.84,8.57,4.75,11.75,8.57a60.79,60.79,0,0,1,8.8,14.74c2.65,6,5.76,11.84,8.62,17.77a13.85,13.85,0,0,0,2.83,5.67c6.48,11.36,15.5,20.7,24.15,30.34C338.09,418.39,339.17,419.7,340.19,421Z" transform="translate(-70.69 0)"/><path class="cls-7" d="M313,453.92a1.59,1.59,0,0,0-1.32-.95c-9.59-1.63-18.83-5.38-28.77-4.72-2.06.14-2.22-1.2-2.67-2.54-3.6-10.82-3.73-22-3.43-33.23.15-5.65.47-11.29.52-16.94a80.39,80.39,0,0,0-4.16-25.48c-1.58-4.9-3.52-9.73-3.71-15,2.18,1.83,3,4.67,5,6.64,1.7,1.22,2.31,3.21,3.43,4.85.59,1.38,1.15,2.78,1.76,4.16,6.32,14.59,10.51,29.89,14.88,45.13,2.32,8.07,4.7,16.13,7.34,24.11a9.75,9.75,0,0,0,3.44,5c2.18,1.66,4.38,3.29,6.53,5,.94.75,2.05,1.41,2.15,2.82A1.79,1.79,0,0,1,313,453.92Z" transform="translate(-70.69 0)"/><path class="cls-6" d="M497,422.08c2.59,2,5.18,3.94,7.79,5.87a17.33,17.33,0,0,0,5.84,3.15,4.21,4.21,0,0,0-1.38,4.27c.56,3.61.8,7.27,1.46,10.87a13.71,13.71,0,0,0,.37,1.93c.33,1,.34,2.77,1.67,2.51s.74-1.87.51-2.9A115.12,115.12,0,0,1,511.33,435c-.1-.91-.42-1.87.36-2.67,11.91,7.59,24.16,14.46,37.49,19.35,5.29,1.94,10.8,3.34,15.85,5.8,2.7,1.3,5.22,2.72,8.22,1.92,4.16-1.1,8.26-2.47,12.38-3.73l2.41-.74c-4.19,5.23-9.9,7.73-16.31,8.47-7.63.89-15.33,1.22-23,2.32-.92.13-1.89,0-2.83,0-1.38.1-2-.34-2.06-1.87-.36-4.78-1.51-5.71-6.24-4.93-6.75,1.13-13.47,2.48-20.21,3.63a43.56,43.56,0,0,1-9.8.89c-4.16-.23-5.83-2-6.18-6a43.33,43.33,0,0,0-1.23-7.78,9.77,9.77,0,0,1,.41-6.35c2.79-6.91,1.25-13.08-2.59-19C497.6,423.65,496.89,423.05,497,422.08Z" transform="translate(-70.69 0)"/><path class="cls-5" d="M314,452.78c-3-2.4-6-4.88-9.07-7.17a10.35,10.35,0,0,1-3.75-5.43c-5.14-15.65-9.29-31.59-14.18-47.3-2.35-7.52-5.3-14.86-8-22.28-.36-.56-.3-1,.35-1.29,1.47.45,1.63,2,2.52,3,7.35,12,14.55,24.05,23.6,34.86,7,8.4,14.48,16.4,23.16,23.14,1.55,1.21,1.65,1.82.36,3.41-4.74,5.86-9.25,11.9-13.86,17.86A14.94,14.94,0,0,1,314,452.78Z" transform="translate(-70.69 0)"/><path class="cls-6" d="M176.62,540.42c-.83.58-.46,1.3-.27,2,2.12,7.95,2.6,16.14,2.87,24.27.32,9.48,4.46,16.46,11.88,21.89a67.81,67.81,0,0,0,9.66,6.29c4.12,2.05,8.1,4.34,10.38,8.64-1.31.8-2.76.39-4.14.4-1.9,0-3.73.06-5.42,1.15-1.92,1.26-4,.48-5.67-.33a36.43,36.43,0,0,0-11.29-3.28c-7.36-.9-11.49-5.29-12.66-12.37-1.63-9.88-5.8-18.8-9.87-27.8-2.43-5.37-4.07-10.92-2.49-16.94,1.44-5.46,4.13-7.48,9.65-6.57A20.36,20.36,0,0,1,176.62,540.42Z" transform="translate(-70.69 0)"/><path class="cls-5" d="M341.66,377.11c.27-5.82,2.12-11.45,2-17.31,0-1.27.83-1.47,1.8-1.72a17.86,17.86,0,0,1,10.51.38,35.18,35.18,0,0,0,8.47,2,3.72,3.72,0,0,1,1.86,2c5,9,11.39,17,18.27,24.68.68.75,1.62,1.35,1.58,2.55a73,73,0,0,0-20.77,10.5c-1.41,1-2.2,1-3.58-.11C353.61,393.71,347.21,385.79,341.66,377.11Z" transform="translate(-70.69 0)"/><path class="cls-5" d="M340.19,421c-1.89-.21-2.32-2.06-3.42-3.14-7.06-6.92-12.82-15-19.34-22.38a35.82,35.82,0,0,1-5-8.49.93.93,0,0,1,0-1.26c5.8,3.39,12.21,4.74,18.79,5.16,6.26.39,8.72-1.85,9.62-8,5.34,7.31,11,14.39,18.21,19.95,1.18.9,1.31,1.48,0,2.49q-6.27,4.8-12.37,9.84C344.46,417.05,342.36,419.09,340.19,421Z" transform="translate(-70.69 0)"/><path class="cls-5" d="M309.57,381.39a160.37,160.37,0,0,1-7.85-15.61c-3.39-7.6-7.36-14.79-13.26-20.82-2.23-2.28-5.18-3.16-7.65-4.91a22.78,22.78,0,0,0,12.26-6.54,6.42,6.42,0,0,1,3-2c1.06-.27,2-.37,2.6.87,4.5,9,11.42,16.07,18.86,22.66,1.19,1.06,2.27,2.25,3.41,3.38-.14,3-1.72,5.07-3.86,6.9s-4.25,3.48-5.4,6.05c-.81,1.81-1.41,3.74-.58,5.71.37.89-.06,1.43-.46,2.05C310,379.74,311.17,381.22,309.57,381.39Z" transform="translate(-70.69 0)"/><path class="cls-6" d="M456.82,392.73c-1.64,1.83-1.45,4.16-1.86,6.37-1.88,10.14,1.19,18.78,7.7,26.43,1.65,1.94,3.37,3.81,5.07,5.71,2.49,2.78,4.54,5.77,4.79,9.67-6.12-3.22-12.69-5.81-16.83-11.86-2.78-4-4.93-8.43-7.3-12.71a37.07,37.07,0,0,0-18.18-16.59c-1.1-.47-2.15-1.1-3.93-2C436.51,393.51,446.06,389.63,456.82,392.73Z" transform="translate(-70.69 0)"/><path class="cls-5" d="M231.56,529.7a3.51,3.51,0,0,0-2.17-.45l-2.64-.18c12.64-5.4,23.52-12.29,34.07-19.7,6.47-4.54,12.66-9.48,19.51-13.47a16.16,16.16,0,0,1,1.53-.68c-5.1,7.38-11.26,13.88-17.11,20.64-2.31,2.67-3.66,5.31-3.36,8.87a34,34,0,0,1-.49,10.69l-3.43.15c-4.47-3.55-9.93-4.25-15.26-5.18A52,52,0,0,0,231.56,529.7Z" transform="translate(-70.69 0)"/><path class="cls-6" d="M301.13,488.37c-.53.11-1.24-.06-1.49.57-4.36,10.85-12.46,19.21-19,28.6a73.12,73.12,0,0,0-11,22.46c-.52,1.89-1.25,3.73-1.88,5.59-2.09.41-2.89-.49-2.94-2.59-.15-6.88,1.08-13.71.63-20.6a3.65,3.65,0,0,1,1.34-2.73c7.68-7.55,13.89-16.31,20.41-24.82a32.14,32.14,0,0,1,6.92-6.2C296.19,487.17,298.76,487.62,301.13,488.37Z" transform="translate(-70.69 0)"/><path class="cls-6" d="M248.35,539.9c-3.65-1-7.44-.69-11.14-.87a155.12,155.12,0,0,0-29.82,1.32c-6.46.91-10.08,5-13.61,9.56-1.2,1.57-2.35,3.17-3.52,4.75a35,35,0,0,1-6.7-9.68c-.58-1.14-.55-1.63.82-2.27,2.94-1.37,6-2.42,8.36-5.05,1.44-1.62,4.24-1.12,6.42-1.58,7.55-1.59,15.21-2.06,22.91-2.49a108,108,0,0,1,22.67,1.31,22.59,22.59,0,0,1,8.09,3.08C251.26,538.84,250,539.77,248.35,539.9Z" transform="translate(-70.69 0)"/><path class="cls-6" d="M337.32,493.6c3.23-1.28,6.73-1,10-1,7.67-.19,14.49-2.82,21.34-5.72,12.57-5.32,24.6-11.75,36.65-18.11,1.28-.67,2.49-1.41,3.76-.05-2.06.11-2.35,1.87-2.54,3.23-.7,5-4.45,7.14-8.3,9.08A37,37,0,0,1,388,484c-5.85,1.06-11.83,2.67-16.62,5.86-5.51,3.65-11.35,2.66-17,3.67-4.64.82-9.36.58-14.05.55C339.3,494.05,338.22,494.34,337.32,493.6Z" transform="translate(-70.69 0)"/><path class="cls-5" d="M465.91,379.75c4.2.07,7.88-2.15,12.24-3-.24.82-.38,1.32-.53,1.81-1,3.28.47,4.93,3.87,4.1,2.53-.61,5-1.51,7.53-2.29.26.88-.38,1.29-.67,1.8-1.71,3.07-1.39,4.35,1.84,5.62,1.62.64,2,1.11.54,2.33a27,27,0,0,0-2.45,2.34,1.72,1.72,0,0,1-2.47.35,32.33,32.33,0,0,0-23.29-4.14,23.27,23.27,0,0,1-4.49-.05c-.65-1.33.13-2.36.81-3.33C460.63,382.75,462.73,380.55,465.91,379.75Z" transform="translate(-70.69 0)"/><path class="cls-6" d="M465.91,379.75c-3.26,2.39-6.79,4.56-7.88,8.88a9.68,9.68,0,0,1-4.17-.47c-4.88-1.17-9.7-.5-14.45.67-1.8.45-2.81-.13-4-1.58,6.47-.57,3.58-5.55,4.61-8.89,2,1.2,3.84,4.19,6.64,1.44,1.88-1.86,2.75-4.42,4.11-6.6.78.2.89.82,1.12,1.31,1.53,3.35,3.41,3.89,6.63,1.88,1.59-1,3.15-2.05,4.73-3.05a2,2,0,0,1,.68-.1C464.14,375.55,461.92,378.65,465.91,379.75Z" transform="translate(-70.69 0)"/><path class="cls-6" d="M401.93,522.91l17.51,1.83c-3.85,1.48-7.77,2.79-11.51,4.49-4.9,2.23-9.67,1.6-14.53.06q-13.57-4.32-27.16-8.59c.16-1.39,1-.73,1.69-.57,10.3.21,20.28,2.44,30.24,4.77C400.24,525.39,401.48,525.11,401.93,522.91Z" transform="translate(-70.69 0)"/><path class="cls-5" d="M324.91,333.77c-1,3-1.93,6.05-3,9.06-.39,1.14-.77,2.62.43,3,2.81.86,1.66,2.51,1.17,4.08-.41,1.32-.93,2.62-1.4,3.93-6-5.47-12.26-10.76-16.83-17.63-.51-.77-1-1.59-1.44-2.39.89-1,2-.79,3.14-.64a52.86,52.86,0,0,0,14.81-.07C322.83,333,324.21,332.12,324.91,333.77Z" transform="translate(-70.69 0)"/><path class="cls-7" d="M386.15,389.71a125.39,125.39,0,0,1-21.71-29.25c2.62-.58,3.81,1.71,5.47,2.89a54.61,54.61,0,0,1,16.86,18.57c1.41,2.6,3.58,4.56,5.52,6.71Z" transform="translate(-70.69 0)"/><path class="cls-6" d="M287.58,330.43a3.39,3.39,0,0,0,2.28-4c-.06-.53-.31-1.2.2-1.58,2.87-2.16,1.05-4.25-.31-6a42.55,42.55,0,0,0-5.25-5.05c-4.68-4.15-4.18-6.8,1.79-9.22,3.74.41,7.49.81,10.9,2.6-1.55,1-3.3,1.83-4.32,3.49-.52.85-1.3,1.84-.27,2.78s2.16.56,2.91-.45c1.27-1.71,3.21-2.11,5.74-3.29-1.74,2.06-3,3.43-4.14,4.94-2.19,3-2.38,6.7-2.64,10.2a5,5,0,0,1-2.55,4.49,22.16,22.16,0,0,0-3.17,2.76C287.9,331.88,287.32,331.45,287.58,330.43Z" transform="translate(-70.69 0)"/><path class="cls-6" d="M483.35,460.14a14.06,14.06,0,0,0,14.19-1.73c2,8.23-1.25,11.84-7.31,12a4.2,4.2,0,0,1-3.82-1.91C484.64,466,483.27,463.31,483.35,460.14Z" transform="translate(-70.69 0)"/><path class="cls-7" d="M324.91,333.77c-4.89.1-9.72,1.25-14.67.67-2.11-.24-4.17-1.17-6.36-.63l-3.53-6.18a9,9,0,0,1,5,.62c6.29,2.35,12.6,2.92,18.94.2,1.88-.81,2.24,0,1.69,1.58C325.54,331.26,325.74,332.66,324.91,333.77Z" transform="translate(-70.69 0)"/><path class="cls-8" d="M297.19,307.2a41.28,41.28,0,0,1-10.9-2.6c1.71-.71,3.59-1,5.15-2.09,1.15,1.5,2.32,1,3.68.21,3.5-2,7-4,10.63-5.84a11.62,11.62,0,0,1,10.77.21c-2,.79-4.09.36-6.13.44a9.54,9.54,0,0,0-4.15.66c-1.34.68-2.41,1.63-1.23,3.32.89,1.37-.41,1.58-1.12,1.92-2.18,1-4.15,2.44-6.23,3.64Z" transform="translate(-70.69 0)"/><path class="cls-9" d="M297.66,307.07c1.29-2,3.36-2.88,5.32-4,.74-.41,2-.28,2-1.59,2.4,1.06,4.77-.47,7.19-.05,1.16.19,2.38,0,3.61.32-2.12.6-4.29,1.09-6.36,1.84-1.24.44-3.09.86-2.55,2.75a4,4,0,0,0,3.63,3.05c1.57.15,3.13.42,5.33.73-4.11,1.29-7.9,1.05-11.87,2.81.83-1.94,1.62-3.51.57-5.1a4.29,4.29,0,0,0-2.57-1.62C300.45,305.8,299.16,307.08,297.66,307.07Z" transform="translate(-70.69 0)"/><path class="cls-10" d="M400.46,484.59c-3.36,3-6.18,6.8-11.61,6.15-3.1-.36-6.33.28-10.35.53C385.89,487.42,393.63,487.61,400.46,484.59Z" transform="translate(-70.69 0)"/><path class="cls-11" d="M267.65,340.43a36.9,36.9,0,0,0-.57-5c-.71-2.86.56-2.53,2.35-1.66a9.79,9.79,0,0,0,.11,3.26C270.34,339.15,269.38,339.94,267.65,340.43Z" transform="translate(-70.69 0)"/><path class="cls-12" d="M281.88,372.27c-1.19-.58-1.46-1.92-2.3-2.8-1.12-.66-1.4-2-2.24-2.84q-1.44-2.47-2.88-4.92c.19-.48.57-.55.83-.19C277.74,365,280.34,368.29,281.88,372.27Z" transform="translate(-70.69 0)"/><path class="cls-13" d="M272.87,334.73l5.85,1.89a15.35,15.35,0,0,1-1.78.76C273.37,338.46,273.37,338.45,272.87,334.73Z" transform="translate(-70.69 0)"/><path class="cls-14" d="M287.58,330.43l1.17,1.69a3.41,3.41,0,0,1-1.83,1.53C287.33,332.62,286.23,331.28,287.58,330.43Z" transform="translate(-70.69 0)"/><path class="cls-15" d="M367.93,520.13c-.6.07-1.29-.11-1.69.57l-3-1.21C364.85,519.6,366.5,519.25,367.93,520.13Z" transform="translate(-70.69 0)"/><path class="cls-16" d="M499.28,567.68c1.41-1.15,2.68-.19,4,.27,0,0,0,.17,0,.25a.78.78,0,0,1-.16.21A11.31,11.31,0,0,1,499.28,567.68Z" transform="translate(-70.69 0)"/><path class="cls-5" d="M310.83,181.9c0-.47-.06-1-.14-1.41-.18-1.08-.58-2-1.8-2.25s-1.69.63-2.21,1.43c-1.12,1.73-2.22,3.47-3.53,5.53-.61-1.73-.62-3.49-2.56-4.1-1.25-.39-.18-1.31.09-1.81,5.79-10.53,10.1-21.78,15.56-32.48a65.39,65.39,0,0,0,2.84-7.33,1.6,1.6,0,0,0-.73-2.18,1.21,1.21,0,0,0-1.81.79c-.35,3.77-2.46,2.79-4.61,1.86-4,.15-6-2.15-7.65-5.5-3.67-7.45-7.07-15-11.3-22.2-1.11-1.87-2.32-3.66-3.6-5.42-.42-.58-1.56-1.31-.12-2.07a91,91,0,0,1,13.63,6.77c1.24.7,2.65,1.48,3.9.27s.79-2.66.24-4c-2.86-6.87-8.22-11.61-13.91-16-1.84-1.43-3.81-2.71-5.76-4.09,4-1.35,12-1.13,18.57.44A63.43,63.43,0,0,1,330,99.46c1.06.81,2.2,2.26,3.7,1.14s1-2.89.52-4.43c-1-3.48-3.19-6.34-5.26-9.24a2.76,2.76,0,0,1,2.75.39C346.55,96.21,358,108,363.47,124.8c1,3.22,2.32,6.59,1,10.16a1.12,1.12,0,0,0,.89,1.53c4.14.44,6.59,3.13,8.23,6.53,1.8,3.72,1.46,7.72.34,11.6-4,13.92-13.47,24.14-23.61,33.91,2-3.62,4.16-7.19,6.08-10.87,4.06-7.85,8.38-15.58,11.25-24a26.42,26.42,0,0,0,1.22-4.34c.65-4.05-1.43-6.15-5.47-5.7a28.28,28.28,0,0,0-7.73,2,19.59,19.59,0,0,0-2-4.9,9.9,9.9,0,0,0-14.7-2.81c-4.5,3.44-7.4,8.24-10.46,12.88-6.62,10-11.85,20.74-16.8,31.63C311.17,182.78,311,182.27,310.83,181.9Z" transform="translate(-70.69 0)"/><path class="cls-7" d="M234.31,180.22a9.78,9.78,0,0,1-3.67,3.82,65.76,65.76,0,0,0-24.42,31.12c-4.21,11-6.93,22.35-4.53,34.31A18.23,18.23,0,0,1,200,260.75c-1.92,4.2-3.72,8.46-5.81,12.58-2.92,5.78-2.32,11.53-.08,17.24,1.74,4.45,3.79,8.78,5.71,13.16-.7.46-1.42.89-2.11,1.38-3.45,2.44-3.35,2.34-6.55-.57a82.73,82.73,0,0,1-7.94-8.38c-7.65-9.14-8.55-19.28-4.7-30.15,1.07-3,2.37-5.95,3.73-8.84,3.06-6.52,3.74-13.6,4.45-20.56,2-19.28,10.76-34.36,26.51-45.52,6-4.26,12-8.42,19.21-10.51C233,180.4,233.67,180.34,234.31,180.22Z" transform="translate(-70.69 0)"/><path class="cls-5" d="M362.8,157c-4,12.26-11.22,22.18-22,29.33-3.28,2.17-6.5,4.49-10.2,6-2.34,1-4.08.65-5.64-1.47-2.41-3.25-5-6.38-7.53-9.53a2.3,2.3,0,0,1-.33-2.77,186.35,186.35,0,0,1,15.76-28.3,6.44,6.44,0,0,1,3.49-1.71c8.33-.85,16.31,0,23.4,4.94C361,154.4,362.4,155.29,362.8,157Z" transform="translate(-70.69 0)"/><path class="cls-7" d="M156.21,452.16c.93-.25.85-1.12,1.12-1.79,3.83-9.48,5.28-19.53,7.4-29.45,3.16-14.7,7.09-29.23,10.71-43.82a11.66,11.66,0,0,1,.83-2.39c.47-1,1.18-1.82,2.37-1.66a2,2,0,0,1,2,2c-2.43,1.94-1.27,4.64-1,6.84.79,8,.41,16,.39,24,0,12.61-.35,25.21-.58,37.81,0,1.59-.4,3.17-.45,4.76-.15,4.43-.1,4.85-4.41,5.11-4.73.29-9.5,1.62-14.26.27C158.84,453.45,157.26,453.42,156.21,452.16Z" transform="translate(-70.69 0)"/><path class="cls-7" d="M182.85,453.25c15.74,3.31,31.48,6.65,47.24,9.92,9.78,2,19.29-.19,28.79-2.15,2.81-.58,5.37-.55,7.71,1.27-4.72,3.62-8.9,8.2-15.34,8.85-1,.11-2.05.22-3.08.27a238.05,238.05,0,0,1-30.69-.18c-11.35-.86-22.93-.73-33.88-4.74a9.37,9.37,0,0,1-3.43-1.74C184.36,461.68,183.82,457.51,182.85,453.25Z" transform="translate(-70.69 0)"/><path class="cls-7" d="M346.41,239.15c0,4.28-.15,8.57.13,12.84.61,9.29-3,17.62-6,26-3.41,9.56-3.86,19.17-2.41,29,1.36,9.14,1,18.24.1,27.36-.27,2.62-.71,5.24-.24,7.89a48.23,48.23,0,0,0-12.82,1.31c1.62-5.32,3.37-10.16,4.42-15.22A100.31,100.31,0,0,0,331,315.42a183.84,183.84,0,0,0,.56-20.05c-.45-13.19,2.89-25.54,7.33-37.72,1.88-5.13,3.84-10.23,5.79-15.33A6.9,6.9,0,0,1,346.41,239.15Z" transform="translate(-70.69 0)"/><path class="cls-7" d="M289.26,104.76c-.12.2-.4.52-.35.58,7.22,8.44,10.93,18.88,15.93,28.55,1.66,3.2,3.55,5.41,7.09,6.06-8.3.37-13.63,10.33-9.71,18.57,1.11,2.34.82,3.19-1.38,4.45-4,2.29-7.7,5.06-12.11,7.43,1.19-2.83,2.31-5.36,3.29-8,.51-1.36,1.32-2.9,0-4.22s-2.65-.17-3.94.21a1.52,1.52,0,0,1-1.54-.1c1.84-3.05,3.74-6.16,6.65-8.2,2.11-1.48,1.76-2.69.86-4.46-3-5.88-7.59-10.21-13.09-13.7-.53-.34-1.25-.48-1.53-1.41,4.65-.76,9.09.26,13.53,1.16,1.49.31,3,.88,4.18-.56s.12-2.9-.57-4.17c-4.41-8.2-10.79-14.66-18-20.38-1.66-1.32-3.29-2.67-5.56-4.51A39.22,39.22,0,0,1,289.26,104.76Z" transform="translate(-70.69 0)"/><path class="cls-5" d="M254.7,299.22c3.57,1.13,7.13,2.28,10.71,3.39a10.15,10.15,0,0,0,9.08-1.59c4.34-2.9,8.94-1.79,14.22-.61-3.52,1.27-6.43,2.13-8.58,4.41-3.63,2.54-3.8,3.81-1.1,8,3.08,3.23,7.2,5.51,9,10l-9.92-5.9c-.57-.33-1.17-.6-1.73-.93-1-.59-2.07-.92-2.76.15s.28,1.86,1.21,2.39c2.45,1.4,4.92,2.76,7.33,4.21a33.89,33.89,0,0,1,3.68,2.6c.6.48,1.66,1.2.87,2a1.87,1.87,0,0,1-2.74.11c-2.8-2.71-6.24-4.5-9.49-6.57-1-.62-2.1-2-3.11-.47s.5,2.34,1.58,3.05c3.14,2.05,6.55,3.72,9.27,6.39.64.63,1.5,1.09,1.82,2.31-3.62-2.05-7.06-4-10.53-5.94-1.5-.83-3-1.32-2.95,1.33-1.13.69-1.16.76-2.15.27a36.44,36.44,0,0,1-11.86-8.85c-1.45-1.72-2.79-3.54-4.14-5.34C248.64,308.54,249.5,303.15,254.7,299.22Z" transform="translate(-70.69 0)"/><path class="cls-4" d="M237.08,246.46A86.73,86.73,0,0,0,250,258.26c5.69,4.32,11.58,8.38,17.48,13.47.21-4.57-.12-8.68,1.08-12.66,1.44,0,1.49,1.32,1.84,2.11a51.54,51.54,0,0,1,4.17,15.45c.62,5.53-2.28,7.92-7.7,6.46-2.91-.78-5.79-1.64-8.65-2.56A15.29,15.29,0,0,1,253,277.7c-.74-.63-1.4-1.36-1-2.42s1.24-1.1,2.09-1.1c1.69,0,3.38.12,5.07.19.54.07,1.39.72,1.19-.63-8.1-5.53-16.08-11.2-22.72-18.53-.82-.91-1.58-1.86-2.38-2.8l-2.56-2.57c-3.59-3.35-6.87-6.92-8.4-11.74a44.52,44.52,0,0,1-3.87-8.42c-.35-1.28-1.1-3.09.55-3.76s2.06,1.17,2.74,2.23c1.49,2.38,3,4.78,4.45,7.17,2.12,1,2.88,3.15,4.27,4.77.92,1.06,1.75,2.21,2.68,3.28A28.52,28.52,0,0,1,237.08,246.46Z" transform="translate(-70.69 0)"/><path class="cls-5" d="M339.6,353.6c2.71,10-1.18,19.67-2,29.48-.33,4.06-2.62,5.27-6.74,4.75A54.8,54.8,0,0,1,317,384.55c-1.17-.48-2.57-.85-2.73-2.5,1.69-2.42,4.58-3.31,6.64-5.25,2.05-1.6,4.14-3.16,6.15-4.81,1.2-1,2.18-2.16.74-3.74a16.25,16.25,0,0,0-7,1.13,8.94,8.94,0,0,1-3.15,1c-.47-.11-.84-.3-.72-.89,5.36-3.48,7.11-9,8.44-14.81A18.4,18.4,0,0,1,339.6,353.6Z" transform="translate(-70.69 0)"/><path class="cls-7" d="M308.49,198.39a61.42,61.42,0,0,0-6.42,12.8,121.49,121.49,0,0,0-7-18.15c-2.45-5.09-4.88-10.19-7.34-15.28-.6-1.23-1.3-2.26.44-3.29,5.16-3.06,10.25-6.25,15.39-9.4.71,1.11-.15,1.85-.51,2.63-2.45,5.42-5.49,10.53-8.37,15.72-.52,1-1.38,1.94-.17,3s2,.1,3-.43c.63-.35,1.18-1.3,1.92-.94.92.44.33,1.52.49,2.3.27,1.37-.83,3.37,1.16,4,1.77.51,2.5-1.4,3.42-2.48a49.73,49.73,0,0,0,3.08-4.64,10.2,10.2,0,0,1-.06,4.36c-.28,1.61-.81,3.4.94,4.66C308.93,195,308.11,196.67,308.49,198.39Z" transform="translate(-70.69 0)"/><path class="cls-7" d="M254.7,299.22c-.5.79-1,1.6-1.51,2.36-3.33,4.73-3.23,7.4.15,12.13,4.06,5.66,8.79,10.5,15.27,13.37.6.27,1.13,1.08,2,.44,2,2.26,4.79,3.14,7.26,4.59.19.51.08.75-.5.55-3.57-1.18-7.21-2.09-10.88-2.91-4-.88-7.3-2.83-9.39-6.59-4.44-8-10.42-14.28-19.47-17a3.21,3.21,0,0,1-.71-.47c2.83-4.11,7.12-6.24,11.33-8.21C250.3,296.5,252.63,298.21,254.7,299.22Z" transform="translate(-70.69 0)"/><path class="cls-7" d="M362.8,157c-8.68-8-18.85-9.5-30-6.75a40.52,40.52,0,0,1,6.48-8.46c2.14-2.1,4.6-3.7,7.82-2.51,3.49,1.28,5,4.1,5.42,7.57.36,3,1,3.43,3.76,2.06a24.59,24.59,0,0,1,5.85-2c3.07-.68,4.12.34,3.31,3.31A23.81,23.81,0,0,1,362.8,157Z" transform="translate(-70.69 0)"/><path class="cls-7" d="M323.7,193.91c-1.34-.19-1.73,1-2.3,1.72a229.23,229.23,0,0,0-15.24,23.88c-.78,1.38-1.36,2.89-2.64,3.92-1.44-9.58,3.61-17,8.25-24.53,1.92-3.09,4.39-5.84,6.52-8.81,1-1.35,1.62-1.18,2.48.07S322.72,192.67,323.7,193.91Z" transform="translate(-70.69 0)"/><path class="cls-17" d="M281.22,166.76c-2.9,2.56-2.44,6-1.89,9.13.9,5.27,2.24,10.46,3.37,15.69a14.27,14.27,0,0,1,.26,1.95,1.44,1.44,0,0,1-.57,1.5c-.71.38-1.28-.07-1.71-.56a9.2,9.2,0,0,1-1.49-2c-2.56-5.64-6.36-10.4-10.41-15a3,3,0,0,1-1.08-2.22c5.77-2,9.87-6,12.84-11.52A3.73,3.73,0,0,1,281.22,166.76Z" transform="translate(-70.69 0)"/><path class="cls-7" d="M342.47,353c.11-7.06.57-7.4,7.11-5.78,6.7,1.66,13,4.37,19.37,7,.61.26,1.7.35,1.54,1.34-.12.74-.88,1.15-1.61,1.46-2.73,1.17-5.37.24-8-.38s-5.12-1.21-7.62-2c-2.77-.88-5.48-.37-8.07.34C342.83,355.57,342.21,354.89,342.47,353Z" transform="translate(-70.69 0)"/><path class="cls-7" d="M224.27,238.1c2.48,4.14,5.61,7.82,8.4,11.74-1.64,3.06-2.3,6.49-3.57,10-3.28-5-6.39-9.85-7.84-15.5-.23-.89-.73-1.8.58-2.35,3-1.25,3-1.38.58-3.41C223.08,238.6,223.83,238.88,224.27,238.1Z" transform="translate(-70.69 0)"/><path class="cls-7" d="M339.6,353.6c-4.75.16-9.51,0-14.2,1a15.86,15.86,0,0,1,.82-2.95c.9-1.89.44-4.87,2.65-5.57a21.82,21.82,0,0,1,10.51-.77c1,.18,1.2.79,1,1.87C340,349.32,339.84,351.47,339.6,353.6Z" transform="translate(-70.69 0)"/><path class="cls-7" d="M311.19,142.93c2.21.63,2.82,1.94,1.77,4-2.11,4.18-4.19,8.37-6.36,12.71-1.56-1-2.05-2.48-2.53-4,.66-3.79,2.75-7,4.43-10.34A5.77,5.77,0,0,1,311.19,142.93Z" transform="translate(-70.69 0)"/><path class="cls-7" d="M317.57,370.07c3.26-1.46,6.39-3.59,10.22-1.82-2.48,0-3.57,2.2-5.26,3.4a18.87,18.87,0,0,1-7.18,3.61c-2,.4-1.9-.23-1.38-1.64.42-1.13.62-2.37,1.75-3.09A14.71,14.71,0,0,0,317.57,370.07Z" transform="translate(-70.69 0)"/><path class="cls-18" d="M308.49,198.39c-1.59-1.72-.84-3.44,0-5.16,1.59.35,2.15-.77,2.68-1.9l3.72-8a2.4,2.4,0,0,1,.4.21c2.14,1.85,2.41,3.46.2,5.77C312.86,192,310.8,195.33,308.49,198.39Z" transform="translate(-70.69 0)"/><path class="cls-19" d="M311.19,142.93c-3.33,3.73-4.79,8.49-7.12,12.77-1.2-4.81.75-8.5,4.15-11.68C309.07,143.23,309.94,142.58,311.19,142.93Z" transform="translate(-70.69 0)"/><path class="cls-20" d="M285,170.51c-1.87-7.25-1.77-7.47,3.92-8.89C288.14,164.73,286.58,167.34,285,170.51Z" transform="translate(-70.69 0)"/><path class="cls-21" d="M279,312.81c-2.28-1.24-2.59-3.53-2.65-5.7-.07-2.59,2.56-1.4,3.75-2.29C278.14,307.26,278.06,310,279,312.81Z" transform="translate(-70.69 0)"/><path class="cls-22" d="M320.9,376.8c-1.55,2.59-4.22,3.76-6.64,5.25-.71-1-.79-1.89.53-2.48C316.83,378.66,318.86,377.73,320.9,376.8Z" transform="translate(-70.69 0)"/><path class="cls-23" d="M309.57,381.39c.92-.49.23-1.74,1.07-2.28a10.31,10.31,0,0,0,1.82,6.66c0,.42,0,.84,0,1.26A17.86,17.86,0,0,1,309.57,381.39Z" transform="translate(-70.69 0)"/><path class="cls-24" d="M277.33,332.66c.17-.18.34-.36.5-.55a4,4,0,0,1,2.2,1.5A4.21,4.21,0,0,1,277.33,332.66Z" transform="translate(-70.69 0)"/><path class="cls-25" d="M317.57,370.07c-.56.38-1,1.41-1.85.46l1.24-1.08Z" transform="translate(-70.69 0)"/><path class="cls-26" d="M310.83,181.9l.95.54c-.11.53-.38,1.37-.8,1.18C310.4,183.35,310.74,182.5,310.83,181.9Z" transform="translate(-70.69 0)"/><path class="cls-7" d="M234.84,243.8c-2.67-2.49-4.6-5.56-6.7-8.49,2.29-.93,3.58-3,5.13-4.7a70.6,70.6,0,0,1,7.74-7.34c2.57,0,3.25.73,2.88,3a15,15,0,0,1-1.46,3.93c-1.81,3.8-3.88,7.46-5.66,11.27C236.34,242.44,236,243.44,234.84,243.8Z" transform="translate(-70.69 0)"/><path class="cls-27" d="M234.84,243.8c2.55-5.11,5.26-10.14,7.58-15.35,1.45-3.27,1.71-4.43-1.41-5.18,0-1.63.53-2.73,2.33-2.91s2.45,1.23,2.74,2.59c.87,4.15-.72,7.81-2.76,11.23a84.83,84.83,0,0,0-6.24,12.28A4.89,4.89,0,0,1,234.84,243.8Z" transform="translate(-70.69 0)"/><path class="cls-28" d="M260.33,273.74c.49.06,1.11.5.9.75-.63.73-1.41.33-2.09-.12Z" transform="translate(-70.69 0)"/><path class="cls-29" d="M511.69,432.32c.91,5.53,1.23,11.14,2.69,16.58.33,1.21.61,2.84-1.26,3.19s-2.21-1.15-2.51-2.44c-1.24-5.29-1.63-10.7-2.35-16.07-.25-1.88.63-2.58,2.39-2.47Z" transform="translate(-70.69 0)"/><path class="cls-30" d="M277.34,366.63a4.92,4.92,0,0,1,2.24,2.84c-.46.24-.5.69-.57,1.13C278.46,369.27,277.9,368,277.34,366.63Z" transform="translate(-70.69 0)"/></svg>