<svg id="Capa_1" data-name="Capa 1" xmlns="http://www.w3.org/2000/svg" viewBox="0 0 612 612"><defs><style>.cls-1{fill:#fffefe;}.cls-2{fill:#aeb0bc;}.cls-3{fill:#c7c8d1;}.cls-4{fill:#c3c4cd;}.cls-5{fill:#3a4d64;}.cls-6{fill:#f49b4b;}.cls-7{fill:#70181a;}.cls-8{fill:#f49b4c;}.cls-9{fill:#70191b;}.cls-10{fill:#f49c4d;}.cls-11{fill:#fff;}.cls-12{fill:#fac595;}.cls-13{fill:#818798;}.cls-14{fill:#828799;}.cls-15{fill:#858999;}.cls-16{fill:#fefefe;}.cls-17{fill:#fac495;}.cls-18{fill:#fdfdfd;}.cls-19{fill:#f7f7f9;}.cls-20{fill:#f29a4d;}.cls-21{fill:#7e8496;}.cls-22{fill:#fefbf9;}.cls-23{fill:#f2f2f5;}.cls-24{fill:#f4f4f6;}.cls-25{fill:#7e8395;}.cls-26{fill:#546276;}.cls-27{fill:#efedef;}.cls-28{fill:#f09c52;}.cls-29{fill:#ee9e59;}.cls-30{fill:#c9cad2;}.cls-31{fill:#ceced6;}.cls-32{fill:#b5b6c0;}.cls-33{fill:#e29351;}.cls-34{fill:#ebebef;}.cls-35{fill:#e4e4e9;}.cls-36{fill:#fbf2e9;}.cls-37{fill:#e2e2e8;}.cls-38{fill:#cdcdd6;}.cls-39{fill:#e8d7ca;}.cls-40{fill:#fac596;}.cls-41{fill:#fdfaf8;}.cls-42{fill:#f9bb85;}.cls-43{fill:#fff6ee;}.cls-44{fill:#f0ddd2;}.cls-45{fill:#fde0c4;}.cls-46{fill:#fddec2;}.cls-47{fill:#3a4e64;}.cls-48{fill:#848b99;}.cls-49{fill:#f59b4c;}.cls-50{fill:#3b4f65;}.cls-51{fill:#3d5066;}</style></defs><title>pose2</title><path class="cls-1" d="M229.44,612q-75,0-150,0c-1.94,0-2.32-.38-2.32-2.32q.09-303.67,0-607.36C77.12.38,77.5,0,79.44,0Q383.11.09,686.78,0c1.94,0,2.32.38,2.32,2.32q-.09,303.68,0,607.36c0,2.44-1,2.29-2.62,2.29q-222.87,0-445.74,0a.67.67,0,0,1,.15-.89,8.27,8.27,0,0,1,3.16-1.17c2.91-.82,5.11-2.51,6-5.48.65-2.24,2.11-2.92,4.22-2.92,3.68,0,7.36,0,11,0,4-.07,5.47-1.12,6.55-4.93a119.8,119.8,0,0,0,3.73-22c.81-8.82,1.76-17.64,2.57-26.46.5-5.45.75-10.91,1.43-16.34.15-1.21.1-2.51,1.57-3a6.87,6.87,0,0,1,3.34.16c7.36,1.49,14.91,1.86,22.21,3.7.49.12,1.09.37,1.53-.29-.57-1-1.7-1-2.63-1.32-6.95-2.35-14.07-4-21.2-5.72a6.92,6.92,0,0,1-3.59-1.48c-1-2.33-.14-4.69.11-7,1.36-12.27,3-24.51,4.24-36.8a79.16,79.16,0,0,0,.1-9.62c-.05-2.76.53-5.44.69-8.17.05-.87.29-1.8,1.24-2,1.17-.3,1.6.72,2.06,1.53a9.49,9.49,0,0,1,.73,1.85c4.58,14.29,10.1,28.24,16.06,42,5.48,12.64,9.89,25.71,15,38.52,1.94,4.93,4.45,9.57,6.83,14.29,2,4,5.18,6,9.79,5.82a32.57,32.57,0,0,0,11.79-2.59c5.54-2.43,11.12-4.68,17.39-4.26a41.59,41.59,0,0,1,8.61,1.56,57.85,57.85,0,0,0,20.09,2.21A35,35,0,0,1,409.68,563c3.43,1.23,5,2.73,4.33,6.23-1.59,7.88,1.95,13.69,6.61,19.28,3.19,3.84,6,8,9.44,11.64,4,4.18,8.55,5.3,13.87,3.15a13.75,13.75,0,0,1,7.47-.91c2.85.44,4.89-1.07,6.61-3.07a10.29,10.29,0,0,1,4.94-3.59c2.32-.68,2.54-2.61,2.18-4.59a23,23,0,0,0-4.13-8.92c-3.06-4.43-6.77-8.34-10.27-12.42-3.15-3.68-3.21-3.63-.14-7.26a3.31,3.31,0,0,1,1.54-.66c9.23-1.26,16.54-6.53,24-11.52a51.46,51.46,0,0,1,6.21-3.92c2.09-1,3.83-.79,5.07,1.36,4.06,7.09,9.68,13,14.54,19.49,2.23,3,2.08,3.71-1.29,5.14a41.94,41.94,0,0,0-5.59,2.74c-4.39,2.7-4.25,7.34.32,9.79a25.46,25.46,0,0,0,6.94,2.38c5.46,1.1,11.08,2.11,16.55,1.62,7.25-.65,14.65.34,21.79-2.17,6.85-2.41,13.73-4.72,20.38-7.67a4.26,4.26,0,0,0,2.72-4.22,29.14,29.14,0,0,0-.46-5.35c-.4-2.49.47-4.24,3-5,.35-.12.7-.27,1-.41,5.4-2.16,6.6-6.35,2.91-10.94-2.77-3.45-5.79-6.7-8.64-10.11-7.87-9.41-13.09-20-14.61-32.29a32.64,32.64,0,0,1-.18-3.95c0-9.26,0-18.51,0-27.76a156.75,156.75,0,0,0-6-42.74c-4.35-15-7-30.16-6.34-45.78.55-12.51,1.18-25,2-37.54.71-10.52,1.07-21.08-.57-31.59-1.19-7.66-4-14.6-9.2-20.34-2.67-2.92-2.86-5.73-1.45-9.29a121.08,121.08,0,0,0,5.87-17.4c.37-1.62,1.66-2.19,2.9-2.86a65.45,65.45,0,0,0,13.94-9.59,39.53,39.53,0,0,0,10.38-16c4.25-11.83,8.19-23.78,9.69-36.32,2-16.48,1.19-32.8-4.51-48.57-2.49-6.9-7-12.47-12.6-17.14-3.91-3.25-8.06-6.22-11.26-10.27a23.5,23.5,0,0,1-3.9-7.17c-.66-2-1-4.17-2.18-5.81-2.2-2.92-1.44-6-1-9.09.18-1.32,1.1-1.26,2.08-1.35,2.33-.24,2.81-.91,2.12-3.11a33.29,33.29,0,0,1-1.44-4.88c-.37-2.33.26-2.92,2.58-2.63,1.34.16,2.93,1.2,4-.23s0-2.9-.53-4.29c-1.52-3.77-3.18-7.48-4.45-11.34-.91-2.77-.55-3.39,2.23-4.43a32.83,32.83,0,0,0,3.19-1.16c.79-.39,1.46-.92,1.37-1.94s-.74-1.27-1.45-1.58a28.82,28.82,0,0,0-4.31-1.37,51.45,51.45,0,0,1-5.19-1.37c-2.11-.78-2.44-1.79-1.17-3.65,1.39-2,3.17-3.76,4.42-5.88.7-1.21,1.69-2.51.63-3.91s-2.4-.85-3.69-.56c-3.5.77-7,1.6-10.55,2-2.73.35-3.36-.5-2.2-3s2.8-4.91,4-7.5a10.63,10.63,0,0,0,1-2.63c.4-2.36-.72-3.49-3-2.85-2.63.73-5.15,1.83-7.71,2.81s-4.95,1.83-7.5,2.53-2.89.16-2.44-2.35c.24-1.3.67-2.56.93-3.85.35-1.79,1.52-3.89-.41-5.25s-3.35.44-4.84,1.32c-3.41,2-6.7,4.23-10,6.45a22.88,22.88,0,0,1-3.2,1.81c-2.11,1-3.8.61-5.14-1.39-1.16-1.72-2.38-3.41-3.64-5-.85-1.11-1.69-2.51-3.31-2.32s-2,1.85-2.46,3.14c-1.19,3.29-2.15,6.65-3.37,9.92s-2.15,3.84-5.54,2.78c-1.87-.58-4.34-.38-4.89-3.11-.4-3.6.34-7.15.6-10.7a131.19,131.19,0,0,0-.19-23.7c-.15-1.37-.18-2.79-1.28-3.85-1.09.41-.92,1.27-.94,1.95-.38,21.12-4.47,41.75-8.08,62.45-.28,1.56-.38,3.2-1.38,4.55-4.74-.13-9.71.88-13.73-2.78a16.3,16.3,0,0,1-3.22-4.6c-3.74-7.08-6.49-14.6-9.48-22a3.28,3.28,0,0,1-.26-2.72c.79-.81,1.87-.8,2.88-1,1.73-.28,2.48.56,2.32,2.24a8.69,8.69,0,0,0,.07,3.37c.19.63.47,1.71.93,1.61,3-.68,4.45,3,7.35,2.59,1.5-.21,1.94.79,2,2.07a29.49,29.49,0,0,0,.17,3.39A3.13,3.13,0,0,0,439,66.76a2,2,0,0,0,2.32-1.18c3.1-5.87,5-12,3.88-18.75-1.31-8.18-6.39-13.48-13.44-17-5-2.5-10-4.79-14.75-7.72a43,43,0,0,0-9-4c-1-.33-2-.46-2.75-1.33a22.61,22.61,0,0,0-5-8.63c-2.54-2.52-4.77-2-6.29,1.26-.73,1.57-.73,3.53-2.35,4.65a6.67,6.67,0,0,1-3.35-.22,190.46,190.46,0,0,0-30.59-3.33,12.51,12.51,0,0,1-6.47-1.78c-.64-.39-1.37-.65-2-1.07-7.3-4.9-14.75-3.82-22.4-.83C320.45,9.28,315,13.23,309.33,17c-9.29,6.3-18.92,12-27.94,18.77-7.89,5.88-11.08,13.89-12,23.08a26.66,26.66,0,0,1-6.7,15.83,67.12,67.12,0,0,0-15.53,29.43,472.94,472.94,0,0,1-24,71,139.59,139.59,0,0,0-7.51,20.74,77.32,77.32,0,0,0-1.51,30c.65,4.78-.11,9.63.71,14.4a3.27,3.27,0,0,1-1.43,2.93c-9,8.08-16,17.82-23,27.51-8.25,11.42-14.81,23.88-21,36.53-2.44,5-2.31,10.25-1.7,15.53,1.1,9.5,4,18.63,6,27.94,3.51,16.44,5.94,33.06,8.38,49.68,1.93,13.16,3.76,26.34,5.85,39.48a93.92,93.92,0,0,1,.93,18.35,21.26,21.26,0,0,1-3.21,10.17c-5.08,8.44-6.88,17.82-7.15,27.37-.14,5-.57,9.95-.36,14.94.06,1.59.09,3.24-1.17,4.52a26.32,26.32,0,0,1-8.06,1.06A155.28,155.28,0,0,0,142.32,520a13,13,0,0,1-1.38.29c-.73.07-1.59.38-2.12-.32s-.1-1.45.23-2.12a21.28,21.28,0,0,0,1.42-2.77c.23-.71.55-1.52-.23-2.06s-1.28,0-1.83.35a33.85,33.85,0,0,0-5,4.6,57.2,57.2,0,0,0-4.15,4.24c-1.75,2.11-1.82,4.1,0,6.13,3.61,4.1,8.49,5.45,13.69,5.73,2.14.11,2.62-1.16,1.37-2.93-.94-1.32-2.41-2.11-3.49-3.28-1.37-1.48-1.14-2.34.81-2.63,11-1.65,21.88-4,33-4.26a2.12,2.12,0,0,1,1.84.48,7.15,7.15,0,0,1,.45,4.16q-1.91,27.33-5.3,54.54c-1.1,8.72,1.64,12.34,8.61,15.28,2.91,1.22,5,2.69,5.5,6.07.33,2.36,2.16,3.64,4.24,4.56,4.42,2,9.16,2.29,13.85,2.21a117.45,117.45,0,0,1,22.47,1.91,7.21,7.21,0,0,1,2.93.94A.65.65,0,0,1,229.44,612Z" transform="translate(-77.12 0)"/><path class="cls-2" d="M236.79,612h-4a.6.6,0,0,1,.15-.83,3.91,3.91,0,0,1,3.67,0A.58.58,0,0,1,236.79,612Z" transform="translate(-77.12 0)"/><path class="cls-3" d="M236.79,612l0-.47a2.76,2.76,0,0,1,4-.07,1.4,1.4,0,0,0,0,.54Z" transform="translate(-77.12 0)"/><path class="cls-4" d="M232.81,611.47c0,.16,0,.32,0,.48h-3.39a1.26,1.26,0,0,1-.05-.47A2.25,2.25,0,0,1,232.81,611.47Z" transform="translate(-77.12 0)"/><path class="cls-5" d="M232.81,611.47h-3.42c-10.47-2.22-21.1-2.59-31.75-2.81A23.72,23.72,0,0,1,190,607c-3.15-1.14-5-3.22-5.34-6.59a3.51,3.51,0,0,0-2.74-3.38,27.06,27.06,0,0,1-5.31-2.63,11.18,11.18,0,0,1-5.66-8.92c-.62-5.92.57-11.65,1.35-17.43,1.37-10.19,2.4-20.41,2.88-30.68.25-5.27.71-10.53,1.08-15.8-.05-2.21.72-4.35.61-6.56a146.79,146.79,0,0,0,.87-16.37c.1-9.31.72-18.67,5.54-26.82,4.92-8.34,5.67-17.09,4.46-26.21-2-15-4.29-30.05-6.48-45.07-2.44-16.69-4.86-33.39-8.38-49.9-1.9-8.94-4.52-17.72-5.9-26.79a32.27,32.27,0,0,1,3.12-20,259.22,259.22,0,0,1,37.58-56.29c1.12-1.27,2.19-2.78,3.62-3.54,2.76-1.47,2.68-3.5,2.61-6.24-.3-11.94-2.56-23.85-.42-35.84A99.94,99.94,0,0,1,220.57,179a505.65,505.65,0,0,0,26.54-77.74,60.44,60.44,0,0,1,13.94-25.87,28.19,28.19,0,0,0,7.6-17.16c.9-9.94,5.08-18.21,13.67-24.25,10.41-7.33,21.39-13.77,31.76-21.15a68.11,68.11,0,0,1,18-8.67c7.53-2.55,13.77.58,20,4.06a7.83,7.83,0,0,0,3.69,1.23c12.18.27,24.2,2,36.17,4.08,1.34-.64,2.63,0,3.94.14,1.87.4,3.78.6,5.62,1.13,1.41.44,2.92.59,4.09,1.62,10.21,2.81,18.77,9.07,28.12,13.66,11.65,5.71,15.68,18.75,10.66,30.74a28.19,28.19,0,0,0-1.91,4.39c-.38,1.71-1.32,2.57-2.87,2.49-1.87-.09-3.5-.89-4.05-2.92a6.48,6.48,0,0,1-.13-2c.06-2,.82-4.58-2.87-3.16a.4.4,0,0,1-.28,0c-1.88-1.28-3.38-3-6.23-2.61-.94.12-1.43-2.92-1.17-4.72.13-.91.42-1.79.71-3l-4.85.8c-1,1-2.57,1-3.59,2-1.46,1.47-2,3.59-3.54,5-1.05,1,0,1.89.51,2.71a92.34,92.34,0,0,1,7.3,13.21c.29,1,.8,1.83,1.18,2.76,3.36,9,3.38,18.27,2.75,27.58-.27,3.92-2.66,7.38-3.71,11.2a66.82,66.82,0,0,1-3,7.92c-4.06,9.45-10.39,17.36-17.11,25-1.32,2.07,1.06,2.14,1.7,3.13a46.65,46.65,0,0,1,10.61,16.57,138.27,138.27,0,0,0,16,29.15,37.57,37.57,0,0,1,6.37,16.47c.21,1.4.51,2.78.84,4.16a27.24,27.24,0,0,0,.57,2.8,22.51,22.51,0,0,0,1.7,4.53c.59,1.3,1.28,2.56,1.94,3.83,1.49,3.44,1.39,7,1,10.65-.59,2.14-1,4.33-1.73,6.45-1.18,3.24-2.52,6.42-4,9.54a8.32,8.32,0,0,0-.9,5.64,10.57,10.57,0,0,0,.36,1.67,46.82,46.82,0,0,1,.84,4.85c1.15,5.85,1.86,11.74-.24,17.5-1.17,3.23-2.38,6.72-6.82,6.79-2.36-.7-4.29-2.21-6.37-3.46a24.32,24.32,0,0,0-3.76-2.42c-6.56-3.81-12.22-8.8-18.05-13.59-6.54-5.36-7.88-12.46-6.8-20.16.63-4.49-.67-7.44-4.07-10.31-5.05-4.24-9.65-9-15.42-12.34a51.23,51.23,0,0,0-16.23-6.37,5,5,0,0,0-5.46,1.9c-3.45,4.24-5.63,9-5.66,14.48-.05,6.69-3.41,11.43-8.24,15.38a147.2,147.2,0,0,1-14,9.62,112.3,112.3,0,0,0-12.12,8.79,4,4,0,0,0-1.6,3.9c.68,6.31.61,6.33,6.78,7.73,2.66.61,5.4.79,8.1,1.2,4.5.69,7,3.17,7.86,7.64.6,3.25,1.49,6.44,1.83,9.73a19.2,19.2,0,0,0,6.15,12.08,112.53,112.53,0,0,1,8.37,8.82,19.71,19.71,0,0,1,4.51,8.37c2,9.33,7,17.25,12,25.15s8.9,16,13,24.16c1.35,2.7,2.76,5.36,4.35,7.93,1.47,1.79,1.91,4.07,2.94,6.07,9.3,17.13,16.36,35.23,23.2,53.42,2.74,7.29,3.68,15,5.18,22.59,2.47,12.52,6.47,24.64,9.41,37,1,4,2,8.06,2.85,12.12,2.43,11.38,8,21.08,15.44,29.85,2.13,2.52,4.09,5.17,6.11,7.79.77,1.3,1.63,2.59,1,4.23-.37,1.64-1.62,2.45-3,3.14,4.75,5.45,9.79,10.57,13.85,16.49,2.09,3,3.89,6.22,4.25,10,.23,2.38-.72,3.86-3,4.3a6.41,6.41,0,0,0-4.06,2.69c-2.32,3-5.28,4.82-9.33,3.73a7.11,7.11,0,0,0-4.92.8c-6.17,2.87-11.43,1.35-15.76-3.55a162.65,162.65,0,0,1-13.19-17,16.66,16.66,0,0,1-2.77-12.36c.85-5.39-.06-6.47-5.25-7.73a47.29,47.29,0,0,0-14.31-1.26,51.35,51.35,0,0,1-18.68-2.36,30.37,30.37,0,0,0-22.3,1.5,39.4,39.4,0,0,1-14.6,4c-4.85.23-8.25-1.69-10.66-5.93a152.31,152.31,0,0,1-10.86-24.81c-6.66-18.83-15.25-36.89-22.07-55.66-1.86-5.13-3.61-10.31-5.36-15.48a12,12,0,0,0-2-3.75,73,73,0,0,0-.88,8.59c.27,14.22-2.24,28.17-3.79,42.21-.49,4.4-.9,8.81-1.35,13.22,0,1.82-.74,3.65.1,5.46-1.42,2.08-1,4.54-1.13,6.79-1.3,15.87-2.73,31.74-4.68,47.54a79.53,79.53,0,0,1-2.94,14.39c-1.07,3.36-2.67,4.55-6.22,4.63-4.33.1-8.67.1-13,.17-.87,0-1.95-.34-2.16,1.13-.7,5-4.13,6.83-8.6,7.49-.56.08-1.11.23-1.66.35l-4,.07Z" transform="translate(-77.12 0)"/><path class="cls-6" d="M436.17,266.72c-.26-1.62-.52-3.24-.77-4.86,5.25-5.73,8.77-12.92,15-17.81a22.65,22.65,0,0,1,10.95-4.91c5.51-.75,10.5.92,15.36,3.25,3.65,1.86,6.85,4.64,10.9,5.71.83-.94.26-1.75.05-2.49a56.65,56.65,0,0,0-8.46-16.85,2.56,2.56,0,0,0-2.88-1.29c-2.2.54-4.51.32-6.68,1.07-8.53,1.33-17.1.64-25.65.52a6.15,6.15,0,0,1-3.46-1.1,10.52,10.52,0,0,1-1.67-3.57c2-1.41,4.22-.62,6.35-.79,2,.21,4.07.63,6.16.65s3.1-.93,3.43-2.91a28.38,28.38,0,0,0,.27-4.51c.1-6.11-.2-12.21.93-18.32a59.29,59.29,0,0,1,6.3-17.76c2.91-5.39,6.18-10.57,9.44-15.76a15.62,15.62,0,0,1,5.15-5.14,3.55,3.55,0,0,0,1.85-3.8c-.73-5.32-.78-10.7-1.55-16-.13-.91,0-1.95-1-2.51-4.42-2.55-6.47-7-8.75-11.18a77.21,77.21,0,0,1-8.27-24.54c-.44-2.6-1.25-4.62-3.68-5.92a16.76,16.76,0,0,1-3.84-3.31c-.74-2,.2-3.77.84-5.57a41.22,41.22,0,0,0,4.21-4.74c.5-.66,1.2-1.36.87-2.22-.41-1.12-1.44-.37-2.19-.44a1.1,1.1,0,0,1-1.1-.65,49.74,49.74,0,0,1,2-10.81c1.94-1.53,1.12-3.4.63-5.23A73.41,73.41,0,0,1,458.06,53c.06-.52.2-1.14,1-1.08,2,1.61,4.63,1.83,7,2.53,1.22.36,1.41-1,1.7-1.84,1.36-3.92,2.62-7.87,4-11.78,1.48-4.21,3.52-4.57,6.33-1.11a49.21,49.21,0,0,1,4.1,5.75c1.26,2.11,2.73,2.34,4.66,1.11,4.37-2.78,8.71-5.63,13.12-8.33,1.67-1,3.36-3,5.57-1.35s1.09,3.79.67,5.78-1,4-1.56,6.31c3.2-.43,6-1.76,8.8-2.77s5.46-2.06,8.2-3.06c1.36-.49,2.83-.91,3.92.42a3.61,3.61,0,0,1,.1,4c-1.61,3.31-3.33,6.56-5,9.84a2.64,2.64,0,0,0-.59,1.93A91.24,91.24,0,0,0,532.78,57c1.65-.36,3.45-1,4.67.77s.17,3.29-.81,4.67q-2.28,3.24-4.79,6.31c-1.07,1.3-.79,1.89.76,2.29,3.19.82,6.36,1.71,9.53,2.6,1.3.36,2.58.8,2.65,2.49s-1.23,2.34-2.63,2.84c-5.69,2-5.7,2-3.5,7.59,1.28,3.24,2.6,6.46,3.92,9.69.55,1.36,1,2.78-.1,4s-2.41.61-3.7.27c-3.51-.92-3.53-.9-2.54,2.67.3,1.09.69,2.15,1.06,3.22.48,1.33,1.16,2.71.09,4-1.22,1.46-2.73.64-4.39.23.33,1.85,1.34,3.7-.7,5.15-.62.44.24,1.16.54,1.68a23.57,23.57,0,0,1,2.83,6.44c1.27,5.71,4.71,9.93,8.94,13.74,4.4,4,9.44,7.2,13.18,12,6.68,8.46,9.19,18.38,10.77,28.76,3.55,23.39-1.38,45.53-9.34,67.31a42.74,42.74,0,0,1-20.79,24c-4.19,2.2-7,4.67-8.15,9.55s-3.26,9.83-5,14.69a4.62,4.62,0,0,0,1.06,5.37c8,8.4,10.58,18.84,11.16,30.06.81,15.49-.76,30.89-1.74,46.31-1.32,20.86-.18,41.38,6,61.55,5.38,17.57,6.33,35.76,5.87,54-.2,7.81-.55,15.65.84,23.42,2.11,11.84,8.24,21.54,15.93,30.44,2.28,2.64,4.64,5.22,6.82,7.94,3.66,4.56,2.32,9.38-3.09,11.46-4.56,1.75-4.56,1.75-3.71,6.71,1,6.06.54,7-5.19,9.46a144,144,0,0,1-22.67,7.85,24,24,0,0,1-11.19.41c-1.68-.38-2.8.92-4.34.87-8.29-.26-16.57-.54-24.48-3.47A11.89,11.89,0,0,1,494,585c-4.23-2.9-4.18-7.68.17-10.39a43.68,43.68,0,0,1,4.54-2.27c1.45-.67,2.93-1.27,4.63-2-2.53-3.25-4.87-6.43-7.4-9.45a88.41,88.41,0,0,1-9.38-13.08c-.91-1.6-1.78-1.81-3.39-1.06a31.41,31.41,0,0,0-5.75,3.57,120.4,120.4,0,0,1-13.17,8.24,30.39,30.39,0,0,1-13.12,4c-.51-1.28-1-2.56-1.54-3.85a1.3,1.3,0,0,1,.92-.59c8.12-.28,14.2-5.16,20.67-9.15,3-1.88,5.67-4.39,8.9-6a1.58,1.58,0,0,0,.77-2.52c-12.9-23.69-19-49.56-23.78-75.79-3.06-16.7-6.15-33.41-8.48-50.24q-2.36-16.95-3.14-34.06c-.08-1.55-.29-3.26,1.25-4.42,2-.72,3.06.2,3.66,2a16.43,16.43,0,0,1,1.13,4.95,300.06,300.06,0,0,0,4.54,43c2.14,12.84,4.4,25.67,6.51,38.52,2.32,14.09,6.19,27.8,10.37,41.43q2.34,7.57,4.86,15.09a94.43,94.43,0,0,0,8.95,18.25A229.05,229.05,0,0,0,506,565.74a61,61,0,0,0,8.16,8.23,26.27,26.27,0,0,1,5.2,5.17c3.38,5,8.22,6.14,13.66,5.18,8.69-1.54,16.81-4.94,24.9-8.34a2.88,2.88,0,0,0,1.8-3.19c-.06-.85-.26-1.68-.36-2.52-.66-5.6.35-7.38,5.51-9.72,3.79-1.72,4.08-2.59,1.4-5.74-4-4.68-8-9.27-11.61-14.25-7.72-10.73-12-22.6-11.85-35.92.05-6.61-.14-13.22,0-19.82a169.26,169.26,0,0,0-7.23-52.2,130.65,130.65,0,0,1-5.13-43.1c.57-12.13,1.15-24.27,2-36.4.66-9.75,1.17-19.54-.28-29.34-1.21-8.2-4.12-15.45-9.67-21.61a9.7,9.7,0,0,1-2.16-3.28c-.92-2.9.08-5.59,1-8.25,1.24-3.65,2.73-7.22,3.87-10.91.79-2.54.62-2.77-1.84-2.11a125.26,125.26,0,0,1-22.74,4c-3.55.28-7.11.47-10.67.79A14.7,14.7,0,0,1,479,279.59a4.28,4.28,0,0,0-2.39-.69c-13-.69-25.18-4.32-37-9.39A6.17,6.17,0,0,1,436.17,266.72Z" transform="translate(-77.12 0)"/><path class="cls-7" d="M457,68.22q-1.08,5.49-2.15,11c.77,2.82-.19,5.24-1.72,7.53-.38,1.85-.75,3.71-1.13,5.56.73,1.33,0,2.58-.25,3.84-.76,3.55-1.86,7-2.53,10.68,1.56-.87,2.74-2.12,4.35-2.69a2.43,2.43,0,0,1,2.66.25,2.15,2.15,0,0,1,.48,2.62c-2.71,5.33-5.75,10.49-11.05,13.62-3.41,2-6.4.76-7.65-2.92a56.51,56.51,0,0,1-3.13-12c-.2-1.83-.87-4.47,1.75-5s3,2,3.76,3.8a7.19,7.19,0,0,1,.38,1.39c1.4-6.41,2.79-12.53,4.38-18.6.62-1.66.41-3.58,1.62-5,2.41-10.47,3.9-21.11,5.61-31.7,2-12,3.47-24,3.33-36.25,0-1.1-.22-2.52,1.31-2.71s2,1,2.29,2.33a81.91,81.91,0,0,1,1.17,20.26c-.26,5.93-.92,11.84-1.4,17.76L457.6,63.65A6.43,6.43,0,0,1,457,68.22Z" transform="translate(-77.12 0)"/><path class="cls-7" d="M176.83,515c1.28,2.32.44,4.45-.61,6.56-12.05.54-23.87,2.75-36,4.71,1.69,1.56,3.28,2.94,4.76,4.43.86.87,1.76,2,1.18,3.27s-1.91,1-3,1A23.26,23.26,0,0,1,130,530.3c-3.85-2.87-3.89-6.18-.44-9.48,2.79-2.67,5.53-5.39,8.36-8,.95-.88,2.24-2,3.47-.85,1,.88.42,2.31-.13,3.42-.7,1.42-1.49,2.79-2.47,4.61C151.51,516.66,164.14,515.57,176.83,515Z" transform="translate(-77.12 0)"/><path class="cls-8" d="M446.73,82.21a13.84,13.84,0,0,1-.94,4.84c-2.75-1.44-5.8-1.44-8.76-1.8a8.29,8.29,0,0,1-4-1.31c-3.72-2.54-5.86-6.28-7.74-10.23a209,209,0,0,1-8.16-19.56c-.31-.86-.88-1.71-.41-2.7a6.65,6.65,0,0,1,3.93-1.33q4.11,11.15,9.08,21.94a26.1,26.1,0,0,0,3.69,6c1.67,2,3.65,3.24,6.37,2.94C442.23,80.75,444.48,81.51,446.73,82.21Z" transform="translate(-77.12 0)"/><path class="cls-9" d="M281.16,528.92c-2.69-1.78-.74-3.63-.1-5.46,8.48,2.36,17.13,4.12,25.49,6.89a18.35,18.35,0,0,0,1.88.56c.94.21,1.6.65,1.44,1.71-.21,1.32-1.27,1.31-2.19,1.09-2.54-.62-5-1.35-7.64-1.73C293.73,531.07,287.45,530,281.16,528.92Z" transform="translate(-77.12 0)"/><path class="cls-10" d="M395.56,14.21a7.55,7.55,0,0,1-3.66-.66,23.16,23.16,0,0,1,2.29-6c1.29-2.07,3.49-2.69,5.27-1.17,3.1,2.66,5.47,5.88,6.09,10.09a9.62,9.62,0,0,1-4.16-1.1,8.23,8.23,0,0,1-2.42-3c-.28-.47-.51-1.1-1.12-1.12-.83,0-.86.81-1.16,1.35S396.59,14.14,395.56,14.21Z" transform="translate(-77.12 0)"/><path class="cls-11" d="M266.87,333.67c-.87-2-1.72-4-2.63-5.92-.59-1.28-1.46-2.43-3-1.74s-1.21,2.08-.66,3.39c8.4,20.14,13.13,41.31,17.07,62.65q4.22,22.8,6.52,45.92a68,68,0,0,1-1,21.13c-1.23,5.76-.84,11.65-1.12,17.49-.48,9.71-1.93,19.32-3.11,29-1.36,11.14-2.11,22.34-3.2,33.5-1.82,18.46-2.5,37.06-6.52,55.28-.68,3.1-2.05,4-5.18,4-20.94.19-41.84-1.24-62.75-1.73-6.83-.16-13.76-.88-19.92-4.47-4.35-3.51-4.45-8.55-3.82-13.22,1.22-8.88,2.88-17.7,3.87-26.6,1-9.08,1.75-18.2,2.66-27.29.86-8.64,1.23-17.29,1.73-25.95.23-3.81,3-6.51,5.31-9.14,4.54-5.07,8.92-10.28,12.93-15.73a28.2,28.2,0,0,0,5.22-21.14c-1.6-11.89-4.29-23.58-6.28-35.39-3.9-23.15-10.48-45.59-17.7-67.87q-3.14-9.71-5.86-19.53a28.35,28.35,0,0,0-2.15-5.83,10.32,10.32,0,0,1-.14-9.28,71.52,71.52,0,0,1,3.74-7.61c4.14-7.3,7-15.32,11.75-22.26,6.52-9.5,11.64-19.86,18.39-29.2,1.22-1.69,2.21-3.52,3.3-5.28,2-3.29,2.31-3.34,5.38-1.15,7.67,5.49,14.89,11.59,22.7,16.88,8.11,5.5,16,11.43,25.15,15.16a70.25,70.25,0,0,0,25.86,5.41c4,.05,7.81-1.16,11.64-2.14,1-.25,1.93-.86,3-.34,3,2.91,6.91,3.68,10.79,4.43q3.75.74,7.53,1.22c2.33.29,3.44,1.58,3.82,3.82.67,3.9,1.62,7.76,2.13,11.68a19.18,19.18,0,0,0,5.13,10.49c1.63,1.82,3.33,3.6,5.12,5.27A32.89,32.89,0,0,1,352.38,338c2.18,8.56,7.32,15.87,11.94,23.31,6.17,9.95,10.94,20.61,16.3,31,3.68,7.11,7.79,14,10.89,21.39,5.46,13,11.58,25.79,15.76,39.32,3,9.74,4,19.94,6.61,29.8,4,15.22,7.79,30.49,11.93,45.67,2.44,9,7.28,16.71,13.2,23.81,2.11,2.54,4.13,5.15,6.25,7.68,1.08,1.28,1.2,1.93-.6,2.81-8.65,4.2-17.23,5-26,.26-8-4.38-16.71-5.57-25.72-5a42.68,42.68,0,0,1-15.06-1.88,43,43,0,0,0-14.2-2.05c-6.35-11-16.32-19.16-23.05-29.88-2.31-3.68-4.49-7.43-6.63-11.2-10.58-18.72-18.48-38.64-25.85-58.77-3.11-8.49-5.12-17.37-7.24-26.19A366,366,0,0,0,290,391.69c-4.85-13.7-8.73-27.74-14.85-41C272.52,345,269.47,339.43,266.87,333.67Z" transform="translate(-77.12 0)"/><path class="cls-11" d="M520.85,298.73c.92,1.19,1.76,2.46,2.77,3.57,6.47,7.12,8.88,15.74,9.73,25.09,1.24,13.52-.54,26.93-1.09,40.39-.34,8.39-.85,16.77-1.07,25.16-.41,15.9,2.6,31.31,7,46.52,4.53,15.73,5.67,31.86,5.46,48.16-.13,9.51-.79,19.05,1,28.52,2.32,12.29,8.71,22.37,16.68,31.65,2.15,2.5,4.35,5,6.48,7.5,2.29,2.73,1.79,4.39-1.61,5.65-.53.2-1.07.37-1.6.57-4.09,1.64-4.88,2.93-4.63,7.28.12,2.29,1.83,5,.16,6.76-1.49,1.57-4.16,2-6.32,3a107.18,107.18,0,0,1-19.58,6.38c-5.92,1.27-11.22.64-15.1-4.81a32.89,32.89,0,0,0-4.74-4.85c-14.17-13-24.86-28.58-33.73-45.43-5.11-9.7-7.25-20.59-10.63-31-5.93-18.19-8.58-37.06-11.83-55.8-3-17.28-6-34.56-7.24-52.08-.29-4.21.3-8.49-1.16-12.63-.57-1.61-1.17-2.53-3-2.06-4,2.88-4.06,7.42-4.19,11.53-.28,9.42-.41,18.84.25,28.27.45,6.39.64,12.8,1.28,19.18a4,4,0,0,1,0,.85c-.09.92.07,2.17-1,2.41-.85.2-1.36-.89-1.76-1.61a145,145,0,0,0-9.59-15.36A167.37,167.37,0,0,0,403.48,392c-3.94-3.28-4.33-3.41-2.14-8,4.81-10.2,8.15-20.92,11.79-31.53a282.72,282.72,0,0,0,9.8-34c1.82-8.78,3.85-17.51,5.59-26.3a2.36,2.36,0,0,1,.73-1.49,5,5,0,0,0,4.84-2.7c2.9-4.58,3.36-9.63,2.92-14.85-.18-2.14-.55-4.26-.84-6.39A48.68,48.68,0,0,0,449,272.46c7.77,2.16,15.48,4.67,23.56,5.6,1.48.17,3,.6,4.45-.05a1.4,1.4,0,0,1,1.73.36,13.48,13.48,0,0,0,10.94,3.35c.38,2.73,2.16,4.19,4.49,5.31a46.74,46.74,0,0,0,8.86,3.59,37.85,37.85,0,0,1,11.6,4.9C516.61,296.78,518.87,297.49,520.85,298.73Z" transform="translate(-77.12 0)"/><path class="cls-11" d="M337,9.67c5.21,16.39,18.49,23.94,33.17,30.52-3.38,6-7.76,10.94-15,12.5a39.71,39.71,0,0,0-7.65,1.93A12,12,0,0,0,340,63.88c-.68,4.08-2.83,6.55-6.42,8.26A38.77,38.77,0,0,0,314,91.76a12.35,12.35,0,0,0-.9,2.67c-.2,1.11-.29,2.3.77,3.12s2.11.52,3.2,0c2.38-1.11,4.8-2.16,7.19-3.27s3.28-.54,3.6,2.15c1.15,9.55,2.56,19.06,3.8,28.59a58.19,58.19,0,0,0,6.53,20.06,5.27,5.27,0,0,1,.11,5.5c-7,13.19-14.2,26.18-24.41,37.25-5.5,6-10.74,12.16-14.49,19.46a36.63,36.63,0,0,0-2.45,6.9,49.3,49.3,0,0,1-10.88,19.59c-8.19,9.28-16.95,18-25.59,26.83-1.8,1.84-3.21,2-5.62,1.09-9.48-3.7-17.77-9.48-26.43-14.61-3.24-1.92-6.71-3.44-9.72-5.73a33.35,33.35,0,0,1,1.71-16.92A277,277,0,0,1,235.11,191a75.91,75.91,0,0,0,4.59-10.95,86.94,86.94,0,0,1,14.62-27.6c4.31-5.36,7.51-11.51,11.64-17,3.17-4.26,2.77-9.52,2-14.51-.89-6.15-1.78-12.27-2.06-18.52-.44-9.56,2.21-18.1,7-26.11a61,61,0,0,0,6.6-16.19c3.26-12.51,10.5-22.2,20.51-30,4.75-3.72,9.4-7.57,14.73-10.49,6.7-3.67,13.81-6.5,20.6-10A1.34,1.34,0,0,1,337,9.67Z" transform="translate(-77.12 0)"/><path class="cls-11" d="M384.44,389.65c-2.38-3-3.81-6.48-5.36-9.88-5.44-12-13-22.7-19.12-34.28a40.84,40.84,0,0,1-4.48-11.23,22.29,22.29,0,0,0-6-11.31,67.38,67.38,0,0,0-4.91-5.08,25.34,25.34,0,0,1-9.27-18.07,65.86,65.86,0,0,0-1.66-8,6.11,6.11,0,0,0-5.34-5.1c-4.25-.78-8.51-1.53-12.76-2.3-3-.54-4-2.17-4.27-5.38-.39-4.18,1.18-6.46,4.27-8.8,7-5.3,14.65-9.61,21.74-14.76,6-4.33,10.21-9.58,10.13-17.56-.05-6,3-10.76,6.78-15.14,1.39-1.61,3.11-1.12,4.71-.86,8,1.32,15,4.84,21.46,9.53,4.44,3.21,8.27,7.14,12.42,10.7a7.81,7.81,0,0,1,3,7.21c-.19,1.77-.29,3.56-.43,5.35-.58,7.37,2.19,13.12,8,17.7,5.55,4.38,11,8.84,16.95,12.69.68,1.3-.15,2.38-.56,3.49-7.47,20.38-15,40.75-22,61.28-4.13,12-8,24.2-11.36,36.48C386,387.57,385.83,389,384.44,389.65Z" transform="translate(-77.12 0)"/><path class="cls-11" d="M347.29,147.46c6.21-1.46,12.5-1,18.8-1a8.92,8.92,0,0,1,6.91,3.09c3.08,3.08,7,2.81,12-.87,1.68-1.25,3-.9,4.65-.59.94.19,1.32.58.85,1.56a2.35,2.35,0,0,0,.67,3.06,2.53,2.53,0,0,0,3.39-.13c1.61-1.47,2.68-.76,4,.42,5.46,4.8,9,10.93,11.49,17.57A107.09,107.09,0,0,0,425,197.36c4.74,6.24,6.54,13.47,7.8,21,.11.63.49,1.32-.5,1.58-2.25.6-3.16,2.48-4.1,4.74-1.85-2.54-3.48-4.78-5.14-7a26.07,26.07,0,0,0-4.63-4.93,3.48,3.48,0,0,0-3.94-.71c-1.45.75-1.65,2.23-1.54,3.68a24.45,24.45,0,0,0,1.85,6.79c.29.75,1,1.39.67,2.45-2.53-2.05-4.93-4.15-7.49-6-2-1.46-4.31-3.08-6.68-1.31s-1.23,4.43-.42,6.76l.76,2.21c-2.45.45-5.31-1.06-6.94,1.84-.75.61.56,2.35-1.29,2.36-6.54-6.66-10.21-14.77-11.79-23.87a39,39,0,0,1,2.29-22.13c1.42-2.32,2.88-4.63,4.23-7,.71-1.23,1.5-2.77-.27-3.66-1.58-.79-2.2.62-2.94,1.8a280,280,0,0,1-24.82,33.6c-3.38,3.93-6.69,7.91-10.05,11.86-4.09,4.82-6.68,10.29-6.7,16.69,0,5.75-2.82,9.91-7.2,13.06-5.35,3.85-10.89,7.43-16.39,11A89.7,89.7,0,0,0,308,271.34a5.61,5.61,0,0,1-4.07,1.49c-7.23.1-14.16-1.91-21.24-2.84l-2.24-.28a105.2,105.2,0,0,1-12-2.78c-2.69-.84-2.91-1.51-1-3.59,3.79-4.07,7.82-7.9,11.59-12,7.92-8.63,14.95-18,22.25-27.1a361.21,361.21,0,0,0,28.27-40.63,253.23,253.23,0,0,0,15.3-29C345.83,152.25,345.9,149.63,347.29,147.46Z" transform="translate(-77.12 0)"/><path class="cls-12" d="M429.25,290.66c-.14,5.71-2.23,11-3.21,16.59a275.17,275.17,0,0,1-11.12,42.28c-3.82,11-6.81,22.37-12.2,32.81-.13.25-.24.51-.35.77-2.21,5.37-2.07,5.21,2.29,8.88,14.44,12.15,27.23,25.75,36.2,42.57.58,1.08,1.22,2.13,1.85,3.18.08.13.27.2.74.52-.26-4.12-.48-8-.75-11.87-1-14.19-1.94-28.38-.41-42.57.33-3.05.28-6.68,4.5-7.56a4.66,4.66,0,0,0-.61,3c.28,8.64,1.34,17.21,2.14,25.81,1.31,14,4.13,27.84,6.41,41.72,3.45,21.05,7.11,42,14.07,62.31,2.75,8,4.9,16.23,8.73,23.84,1.39,2.77,3.06,5.4,4.63,8.08.43.73,1.2,1.4-.13,2-5.84,2.52-10.34,7.14-15.87,10.19-5.21,2.87-10.21,6.15-16.55,5.55-7.16-9-15-17.48-19-28.54-2.92-8.08-4.25-16.57-6.51-24.82-4.43-16.15-8-32.51-11.73-48.82-4-17.18-12.16-32.94-19.24-49-1.77-4-3.89-7.92-5.85-11.87-.63-1.5-.2-3,.2-4.42,2-7.38,4.37-14.64,6.57-22,5.81-19.24,13-38,19.58-57,2.63-7.57,5.19-15.17,8.07-22.65.37-.95.36-2.33,1.91-2.4Z" transform="translate(-77.12 0)"/><path class="cls-11" d="M433.22,83.3c2.53,1.9,5.59,1.14,8.39,1.65,1.6.3,3.46,0,4.18,2.1-1.42,7-3.53,13.84-4.72,21.54-.93-2.49-1.57-4.39-2.36-6.22-.37-.86-1-1.7-2.16-1.44s-1.28,1.28-1.25,2.23c.15,5.55,2.11,10.7,4,15.8.83,2.28,3.24,2.27,5.38,1.43a10.22,10.22,0,0,0,3.83-2.84A41.17,41.17,0,0,0,455.9,107c.33-.74.88-1.61.08-2.35s-1.76-.14-2.58.25c-1.95.95-3.23,2.79-5.65,3.72q2.12-8.16,4.21-16.32c2.14,1.52,4.25,3.07,6.42,4.56,1.3.9,1.07,2.33,1.3,3.56,2.31,12.36,6.15,24.08,14,34.17.83,1.06,1.47,2.24,3.07,2.09.91-.09,1.06.49,1.12,1.23.56,6.67,1.13,13.33,1.75,20,.11,1.2-.49,1.68-1.42,2.1a12.53,12.53,0,0,0-5.4,4.84c-4,6.39-8.15,12.67-11.45,19.48a59,59,0,0,0-5.58,24.59c-.13,4.6.44,9.22-.44,13.82-.34,1.76-1.09,2.32-2.82,2.21-2.25-.14-4.53.13-6.72-.61-.81-3.89,0-7.87-.81-11.79a52.92,52.92,0,0,0-3.34-11c-3.73-8.44-7.66-16.82-9.56-26-1.42-6.14-.34-12.41-.84-18.59a32.77,32.77,0,0,1,4.83-20.5,18,18,0,0,0,2.39-7.49c.11-1,.6-2.43-.68-2.66-1.13-.19-1,1.32-1.25,2.16-.42,1.64-.57,3.35-1.58,4.79-2.76,2.79-5.25,5.87-8.69,7.92-2.24,1.33-3.62,1.07-4.4-1.29-1.57-4.8-2.86-9.7-4.3-14.54a6.44,6.44,0,0,1,.23-2.5c2.37-5.51,3.56-11.45,6.26-16.86,1-2.09.68-4.63.8-7a66.39,66.39,0,0,0-3.05-23.42c-.24-.52,0-.77.49-.91,3.1,1.37,4.3,4.79,7.1,6.55A13.34,13.34,0,0,0,433.22,83.3Z" transform="translate(-77.12 0)"/><path class="cls-13" d="M308,284.63c-9,3.93-18.25,3.76-27.72,1.87-11.75-2.36-21.8-8.14-31.62-14.62-10.09-6.66-19.47-14.28-29.2-21.41-.9-.66-1.79-1.35-2.66-2-6.75,9.86-12.47,20.2-19,30-7.64,11.43-13.18,23.94-19.56,36-1.79,3.39-1.59,6.55-.13,10.24,2.56,6.47,4.22,13.29,6.37,19.93,6.38,19.65,12.6,39.38,16.74,59.63,3.36,16.43,6.61,32.9,8.89,49.54,1.37,10-2.68,18.14-9.06,25.48-4.26,4.91-8.22,10.08-12.39,15.07a10.18,10.18,0,0,0-2.25,6.51c-.76,19.35-2.83,38.58-5.11,57.78-.84,7-2.48,14-3.21,21a17.48,17.48,0,0,0,3.23,12.51c-5.91-1.79-7.29-6.2-6.59-12.41,1.29-11.48,3.36-22.85,3.88-34.43.59-13.34,2.23-26.6,2.9-39.94.39-7.57-.2-15.26,1.95-22.73a46.48,46.48,0,0,1,4.72-11.76c4.86-7.84,4.54-16.49,3.66-25-1.17-11.29-3.14-22.5-4.83-33.73q-3.21-21.31-6.51-42.61c-2.06-13.43-5.16-26.58-8.44-39.7-2.62-10.5-1.35-19.91,4.22-29.22,5.85-9.78,11.23-19.85,17.63-29.29,5.76-8.51,12.49-16.27,19.23-24,1.77-2,3.72-2.55,6.24-1.06,6.08,3.59,12.27,7,18.07,11.05a95.49,95.49,0,0,0,45.17,17.07c6.8.73,13.51,2.33,20.36,2.67,4.31.21,4.31,0,4.62,4.26C307.67,282.41,307.85,283.52,308,284.63Z" transform="translate(-77.12 0)"/><path class="cls-13" d="M266.87,333.67A94.81,94.81,0,0,1,275.18,349a317.94,317.94,0,0,1,12.88,34.39c4.82,14.79,10.22,29.4,13.7,44.59,7.47,32.57,20.44,62.91,37.06,91.74,5.67,9.84,13.25,18.34,20.84,26.74,2,2.24,3.64,4.53,4.06,7.56-5.47.22-10.45,2.19-15.37,4.35A30.46,30.46,0,0,1,338,561c-3.56.25-5.83-1.2-7.45-4.34a168.25,168.25,0,0,1-8.95-20.13C315.31,519,308,501.81,300.87,484.61c-3.92-9.38-7.07-19.06-10.25-28.72-.11-.36,0-.88-.25-1.08-2.82-2.59-1.53-5.85-1.46-8.88.18-7.57-1.27-15-2.34-22.4-1.37-9.57-2.93-19.12-4.38-28.68-1.85-12.28-4.85-24.32-7.83-36.36C272.29,350.09,269.61,341.87,266.87,333.67Z" transform="translate(-77.12 0)"/><path class="cls-13" d="M337,9.67c-10,5.07-20.64,8.79-29.65,15.63-8.5,6.46-16.9,13-22.17,22.66a53,53,0,0,0-4.4,11,76.07,76.07,0,0,1-8.15,19.5c-6.15,9.92-6.81,20.77-5.4,32,.48,3.74,1.13,7.45,1.69,11.18,1,6.79-.88,12.53-4.89,18.24-9.53,13.6-20.06,26.66-24.67,43.18-2.18,7.83-7.1,14.56-10.16,22.07-3.13,7.67-7.2,15-9,23.14-1,4.31-1.92,8.67-1.43,13.16-1.62-2.15-.8-4.76-.95-7.05-.38-5.82-1.07-11.61-1.32-17.44-.56-13.3,3.2-25.67,8.42-37.69a487.67,487.67,0,0,0,22.64-63.85c2-7.24,3.63-14.62,6.41-21.64s7.73-12.91,12.61-18.62a23.68,23.68,0,0,0,5.81-14.37c.68-11.2,5.76-19.57,15.25-25.53,8.44-5.3,16.7-10.88,25-16.46,4.6-3.1,9-6.55,14.15-8.74a54.63,54.63,0,0,1,7.45-2.57C336.13,6.9,337.31,7.35,337,9.67Z" transform="translate(-77.12 0)"/><path class="cls-11" d="M358,73.09c-.66-4.17-2.82-7.75-4.65-11.76,3,.56,5.58,2,8.23,3,1.42.56,2.87,1.3,4.22.06s.73-2.8.5-4.27a3.9,3.9,0,0,0-.54-1.59c-2.64-3.73-1.62-6.34,2-8.84,1.6-1.09,2.28-1.39,3.9-.18,4.19,3.14,7.6,7,11.12,10.83,1.17,1.25,2.35,2.72,4.31,1.85s2.16-2.8,2-4.61a44.34,44.34,0,0,0-3.94-14.08c-.18-.4-.3-.82-.61-1.66a48.63,48.63,0,0,1,14.18,8.5c15.61,13.32,23.72,30,21.78,50.8-.45,4.75-2.73,9.34-4.28,14A67.62,67.62,0,0,1,401,140.57c-.56.11-.86,0-.64-.66,5.49-10.38,8.79-21.56,12.12-32.74,1.44-4.84-.31-7.14-5.31-6.78a18.7,18.7,0,0,0-2.78.44c-1.39.33-2-.11-2.28-1.59-1-5.74-5-8.14-10.65-6.45-5.84,1.74-10.48,5.45-15.05,9.26-6.92,5.78-12.51,12.75-17.75,20.46-.88-1.82-.48-4-2.74-4.77-.63-.21.38-1.24.72-1.83,4.74-8.18,10.7-15.49,16.46-23,.63-.82,1.26-1.65,1.87-2.48.81-1.1,1.11-2.29,0-3.29s-2.1-.37-3,.53c-.25.27-.45.59-1,1.34-1.37-4.49-4.23-6.23-8.41-5.79C360,80.32,358.92,76.74,358,73.09Z" transform="translate(-77.12 0)"/><path class="cls-12" d="M432.75,175.59c2.51,9.74,6.68,18.84,10.63,28a37,37,0,0,1,2.39,20.69l-6.9.06a6.4,6.4,0,0,1-1.74-4.37c-.67-.87.4-2.24-.84-3a49,49,0,0,0-10-24.76c-6-7.75-9.78-16.68-13.47-25.66a52.51,52.51,0,0,0-10.26-15.76c0-1.48-1.57-2.25-1.66-3.69,6.46-7.53,12.8-15.15,16.86-24.35,1.54,5.58,3.07,11.16,4.64,16.73.52,1.86,1.36,2.29,3.25,1.14,3.34-2,5.73-5.08,8.63-7.57.87,1.2.1,2.2-.49,3.11a30.48,30.48,0,0,0-4.95,19.63c.33,4.6.07,9.25,0,13.87a24.62,24.62,0,0,0,.51,4.78c.18.92.17,2,1.16,2.45C431.8,177.49,431.89,175.87,432.75,175.59Z" transform="translate(-77.12 0)"/><path class="cls-11" d="M406.65,112.25C403,124.74,395,134.36,385.7,142.82c-8.53,7.74-8.85,5.41-14.56-1-3.53-4-6-8.66-8.71-13.16a2.79,2.79,0,0,1,.93-2.54c6-6.89,11.61-14.09,19.12-19.46,1-.71,2-1.44,3-2.14,4.9-3.41,7.77-3.52,12.84-.26a60,60,0,0,1,8,6.71A1.16,1.16,0,0,1,406.65,112.25Z" transform="translate(-77.12 0)"/><path class="cls-11" d="M348.22,13.6c3.56-1.58,7.26-.5,10.85-.3,15.25.84,30.22,3.59,45.05,7.17a39.21,39.21,0,0,1,11.44,4.66,124.89,124.89,0,0,0,14.73,7.7,18.76,18.76,0,0,1,9.12,8.05c.63,1.11-.09,1.32-.94,1.36s-1.53,0-1.81,1h0c-1.11,0-1-.66-.71-1.37,0-.37,0-.75-.07-1.12-.11-1.19-.42-2.31-1.89-2.3s-1.82,1.11-1.87,2.32a23.93,23.93,0,0,1-1.29,6.86c-1.4-.48-.61-1.49-.56-2.32-.11-2.45-.08-4.94-1.32-7.15a2.54,2.54,0,0,0-2.76-1.57c-1.26.28-1.51,1.27-1.38,2.41.21.52-.07.81-.47,1-1.93.44-3-1.24-4.57-1.81-1.05-.39-2.05-.94-3.13-1.26a33.54,33.54,0,0,1-7.74-3.3,3.12,3.12,0,0,0-4.29.28,14.52,14.52,0,0,1-8.34.24,74.45,74.45,0,0,0-16.24-2,34.13,34.13,0,0,1-16.64-4.74c-3.77-2.14-7.67-4.12-11-7C350.37,18.69,348.17,16.78,348.22,13.6Z" transform="translate(-77.12 0)"/><path class="cls-14" d="M347.29,147.46c0,4-1.76,7.5-3.42,11a331.17,331.17,0,0,1-36.56,59.07c-9.43,12.25-18.71,24.64-29.29,35.95-3.78,4-8,7.64-12.36,11.73,5.25,2.5,10.22,2.8,14.75,4.53-6.07-.22-11.82-2-17.53-3.85-2.12-.7-.45-1.55.09-2.1,5-5.11,10.12-10.13,15.12-15.26,6.91-7.08,13.58-14.36,19.16-22.58a31.77,31.77,0,0,0,4.5-11.21c1.82-8.27,6.63-14.72,12.18-20.65C324.59,182.68,333,169.8,340,156a19.38,19.38,0,0,0,1.78-4.15C342.52,148.86,344.22,147.36,347.29,147.46Z" transform="translate(-77.12 0)"/><path class="cls-11" d="M404.05,221c4.39,2.55,7.59,6.33,11.46,9.27.75.56,1.4,1.27,2.14,1.85,1,.8,2,2,3.48,1s1.12-2.34.85-3.61c-.75-3.54-2.67-6.62-3.94-10,1.38-.67,1.77.61,2.29,1.35,2.05,2.93,4,5.91,6,8.89.69,1,1.32,2.17,2.8,2s1.84-1.47,2.21-2.64.6-2.37,1-3.53c.16-.49.23-1.21,1-1.23s.93.55,1.22,1c2.48,4.07,3.87,8.4,2.88,13.2s-3.12,9.47-4.95,14.11a1.89,1.89,0,0,1-1.61,1.34c-7.65,1.18-15.31,1.86-23,.86a5,5,0,0,1-3.43-1.65c1.18-1.33,2.84-1.66,4.37-2.15,5-1.59,5.89-4.72,2.19-8.5-3-3.1-6.21-6-9.32-9.08-.63-.62-1.2-1.31-1.9-2.09,1.74-.5,2.58.62,3.49,1.3,3.18,2.35,6.29,4.8,9.4,7.24,1.14.89,2.37,1.57,3.47.27,1.25-1.49.21-2.7-1-3.52-4.73-3.11-7.73-7.6-10.15-12.56A5.37,5.37,0,0,1,404.05,221Z" transform="translate(-77.12 0)"/><path class="cls-14" d="M383.88,184.72c-.57,3.32-1.27,6.62-1.7,10-1.52,12.06,1.75,22.82,9.06,32.43.85,1.12,1.58,2.32,2.37,3.48.74.36.8,1.36,1.57,1.69l.09,1c1.16,2,2.36,4,1,6.45-7.66-6.81-15.17-13.8-24.79-18a46.26,46.26,0,0,0-13.12-3.8c2.44-3,4.6-5.81,6.9-8.48a233.34,233.34,0,0,0,18-24.24A2.6,2.6,0,0,1,383.88,184.72Z" transform="translate(-77.12 0)"/><path class="cls-11" d="M451.88,576.25c3.75,4.22,7.51,8.42,9.66,13.78.66,1.63.83,2.79-1.39,3.16-1.91.31-3,1.78-4.06,3.26-1.4,1.94-3.09,3.12-5.75,2.51a11,11,0,0,0-7.39,1.13c-3.79,1.86-7.23,1.09-10.05-1.83a142.47,142.47,0,0,1-12.75-15.71c-.2-1,.53-.9,1.13-.95,6,2.59,12.15,3.8,18.68,2.56,4.35-.83,8-2.63,10.31-6.62C450.62,576.93,450.88,576.09,451.88,576.25Z" transform="translate(-77.12 0)"/><path class="cls-13" d="M348.22,13.6a19.33,19.33,0,0,0,8.51,9c3.89,2.28,7.83,4.47,11.85,6.51a21.23,21.23,0,0,0,8.68,2.08,114.88,114.88,0,0,1,20.9,2.53c2.25.54,4.47-.07,6.7-.34a22.38,22.38,0,0,0,7.53,4.7c2.78,1.17,3.17,1,4.37-1.76,2.8.37,4.88,2.25,7.28,3.44.7-.16,1,1.29,1.88.43,1,2.83-.11,4.92-3.05,5.66a26,26,0,0,1-3.05.56c-3.85.52-7,2-8.31,6.13-2.1-1.43-3-3.49-4.24-5.2-7.35-10-17.39-13.91-29.47-13.31-1.2.06-2.8.06-3.5.78-2.22,2.28-4.35,1.11-6.42.16-10.26-4.67-19.16-11-25.35-21.63C344.83,14.75,346.52,14.17,348.22,13.6Z" transform="translate(-77.12 0)"/><path class="cls-13" d="M451.88,576.25c-3,6.45-8.43,8.58-15.06,9A31.32,31.32,0,0,1,422.51,583a6.91,6.91,0,0,1-1.32-1,15.48,15.48,0,0,1-2.67-1.7c-2.7-4.14-1.47-8.73-1.73-13.2,1.61-.1,2.73.69,3.91,1.21,6.95,3,13.94,2.61,20.85.06,1.84-.68,3-.43,4.2,1C447.77,571.62,449.84,573.92,451.88,576.25Z" transform="translate(-77.12 0)"/><path class="cls-11" d="M341,141.64a61.51,61.51,0,0,1-5.25-16.91c-.33-2.23-.06-4.49-.42-6.72a3.3,3.3,0,0,1,.55-2.42c4.21-6,9.45-10.89,16.29-13.81.7-.3,1.49-1,2.36-.29a3.68,3.68,0,0,0,2,2.23c2.7.88,1.59,2.14.62,3.63-2.64,4.1-5.21,8.24-7.76,12.39-.74,1.21-1.4,2.52-.51,4s2.38,1,4.06.63c-1.26,3.34-2.4,6.38-3.54,9.43-1.46,2.89-3.84,5-6.07,7.27C342.75,141.63,342,142.51,341,141.64Z" transform="translate(-77.12 0)"/><path class="cls-6" d="M423.64,287.24c-2.25,4.45-3.65,9.24-5.3,13.91-6.5,18.44-13.12,36.83-19.34,55.36-4.15,12.37-8.14,24.81-11.4,37.47-.14.54-.2,1.11-.29,1.66l-2.87-6c5.15-17.06,10.23-34.14,16.27-50.91,6.45-17.91,13-35.78,19.54-53.67A9,9,0,0,1,423.64,287.24Z" transform="translate(-77.12 0)"/><path class="cls-11" d="M476.76,243.18a29.06,29.06,0,0,0-15.8-3.41c-5.94-.21-11.87-.64-17.81-.13a1.59,1.59,0,0,1-1.49-.61A26.12,26.12,0,0,0,440.54,228c5.79.42,11.59.57,17.4.55a94.7,94.7,0,0,0,12.6-.74c2.3-.8,3.52.06,4,2.41.68,3.42,1.91,6.7,2.92,10C477.76,241.21,478.67,242.59,476.76,243.18Z" transform="translate(-77.12 0)"/><path class="cls-11" d="M319.3,90.55A33.32,33.32,0,0,1,332,77.61c1.77-1.06,4-1.6,5.42-3,2.59-2.51,4.16-1.09,5.87.85a30.48,30.48,0,0,1,2.59,3c.78,1.17,2,2-.46,3.51a23.53,23.53,0,0,0-5.91,5.91c-1.41,1.89-.27,3.54,1.5,4.84a31.62,31.62,0,0,1-7.26,2.47c-1.1.29-2.1.26-2.22-1.25-.4-4.9-3.54-5-7.11-4-1.45.4-2.86.94-4.28,1.42C319.44,91.53,319.22,91.19,319.3,90.55Z" transform="translate(-77.12 0)"/><path class="cls-15" d="M242.5,607a34.55,34.55,0,0,1-14.17.25,130.23,130.23,0,0,0-26.94-2.07,28.52,28.52,0,0,1-8.62-1.22,6.25,6.25,0,0,1-3.82-2.23c-.36-.52-.87-1.19-.51-1.82s1.19-.39,1.81-.27c8.27,1.6,16.65,1.45,25,1.53a249.24,249.24,0,0,1,27.32,1.31A4,4,0,0,1,242.5,607Z" transform="translate(-77.12 0)"/><path class="cls-14" d="M406.65,112.25c-2.62-2.28-5.15-4.69-7.89-6.82-4.64-3.62-8.16-3.54-12.94-.34-9.39,6.29-16.57,14.75-23.39,23.58-1-1.12-1.58-2.22-.55-3.74,7-10.33,15-19.68,25.8-26.34a21,21,0,0,1,5.14-2.25c3.34-1,5.58.52,5.85,4,.39,4.78,1,5.23,5.82,4.24l.27-.08c4.29-.83,4.68-.41,3.35,3.58C407.64,109.44,407.14,110.84,406.65,112.25Z" transform="translate(-77.12 0)"/><path class="cls-13" d="M358,73.09c1.88,3.23,3.07,6.77,4.56,10.18-5.29,2-7.36,6.42-8.48,11.41-.34,1.54-.6,2.25-2.32,2.35-2.31.13-4.59.66-7.19,1.07,1.28-2,4.07-2.57,3.75-5.21s-3.1-2.32-5-3.75c2.4-1.38,3.24-4.39,6.44-4.77,1.56-.18,1.84-1.5,1.62-3-.46-3.23-2.87-5.36-4.6-8.22a21.21,21.21,0,0,1,6.93,2.11C356.41,76.49,357.22,76.09,358,73.09Z" transform="translate(-77.12 0)"/><path class="cls-13" d="M408.66,259.47c6.73-.81,13.21,0,19.63-1,2.15-.34,4.06,2.24,2.95,4.91-1.33,3.21-1.84,6.71-3.66,9.74-.94,1.57-1.89,1.89-3.38.82A72.63,72.63,0,0,1,408.66,259.47Z" transform="translate(-77.12 0)"/><path class="cls-16" d="M400.3,255c5.81,6.83,11,14.24,18.28,19.67,1.13.85,2.21,1.78,3.4,2.52,4.36,2.72,6.7,2.11,9.22-2.32.41-.73.78-1.47,1.52-2.85.79,5.09.37,9.28-1.82,13.27-.58,1.06-1.19.8-2,.27-8.75-5.39-17.24-11.13-24.81-18.13-2.39-2.21-4.47-4.63-4.3-8.2C399.76,257.82,398.69,256.24,400.3,255Z" transform="translate(-77.12 0)"/><path class="cls-17" d="M441.66,239c6.46-.5,12.94-1.3,19.3.74-9,1.88-14.48,8.15-19.26,15.3a29.28,29.28,0,0,1-6.3,6.79l-.36-1.25c2.08-5,4.58-9.83,4.89-15.38C440.5,243.16,441.08,241.1,441.66,239Z" transform="translate(-77.12 0)"/><path class="cls-17" d="M433.22,83.3c-3.66.59-5.1-2.64-7.35-4.39a26.49,26.49,0,0,1-3.5-4A5.06,5.06,0,0,1,420.74,73c-2.62-4.94-5.12-10-8.43-14.49-.29-.39-1-1.06-.22-1.37,2.68-1,2.65-4.2,4.66-5.72,3.33,8.25,6.38,16.62,10.5,24.53A22.63,22.63,0,0,0,433.22,83.3Z" transform="translate(-77.12 0)"/><path class="cls-13" d="M354.51,101.49c-7.59,2.86-13.33,8-18.18,14.4-.93,1.23-.49,2.51-.55,3.78-.07,1.68,0,3.37,0,5.06-.52-3.79-1.07-7.57-1.54-11.36s-.46-7.38-1.34-10.9c-.75-3,.5-3.65,2.89-3.9a8.82,8.82,0,0,0,1.42-.37c-.13.33-.15.53-.27.63-1.25,1-3.21,1.9-2.27,4,1,2.23,3,1.44,4.69.9a71.57,71.57,0,0,1,11.55-2.56C352.05,101,353.41,100.27,354.51,101.49Z" transform="translate(-77.12 0)"/><path class="cls-16" d="M367,92.09c-.2,3.87-3.21,6.14-5.48,8.67-1,1.09-2.88.11-3.62-1.46-1.42-3,1.66-10.64,4.81-12a3,3,0,0,1,4.21,2A7.51,7.51,0,0,1,367,92.09Z" transform="translate(-77.12 0)"/><path class="cls-16" d="M400.3,255c-1,1.3-.25,2.83-.55,4.22-.74-2.68-.4-5.38-.15-8.09.39-4.23.32-8.33-3.31-11.39l-1-6.45q6.44,6.1,12.86,12.21c.92.87.68,1.35-.54,1.65a14.22,14.22,0,0,0-5.62,2.52C400.21,251.06,399.1,252.7,400.3,255Z" transform="translate(-77.12 0)"/><path class="cls-13" d="M341,141.64c2.88-1,4.08-3.93,6.27-5.75.78-.65,1.45-1.43,2.17-2.14.08,1.47-.29,3.26,1.62,3.79,1.73.48,2.4-1.14,3.27-2.19.66-.79,1.22-1.68,1.82-2.52s1.49-2.74,2.3-2.47c1.46.49,2,2.34,2.72,3.76.5,1-.41,1.29-1.07,1.63-5.12,2.58-10.27,5.13-15.38,7.76C342.51,144.63,341.59,143.51,341,141.64Z" transform="translate(-77.12 0)"/><path class="cls-16" d="M381.09,44.76a28.69,28.69,0,0,1,3.22,10.76c-3.62-3.77-7.77-6.87-11.41-10.44-1.93-1.88,1.66-3.75,2.39-5.79.39-1.09,1.53-1.84,2.47-1.21a4.81,4.81,0,0,1,1.71,3.12A3.34,3.34,0,0,0,381.09,44.76Z" transform="translate(-77.12 0)"/><path class="cls-18" d="M353,70.48l-8.62-2.26c-.5-.13-1.25-.08-1-.94.61-2.44.95-5,2.82-6.94.85-.89,1.28-.7,1.86.25A63.4,63.4,0,0,1,353,70.48Z" transform="translate(-77.12 0)"/><path class="cls-19" d="M436.66,43.2c-.06-1,.6-1.24,1.43-1.24s1.26-.25,1.32-1.08c4.29,6.86,3.36,13.7-.12,20.56.37-2.71-1.2-5.25-.75-7.87s1.3-5.29,1.61-8c.12-1,.32-2.16-.67-2.86S437.52,42.56,436.66,43.2Z" transform="translate(-77.12 0)"/><path class="cls-20" d="M439.93,245.23c.73,5.88-1.51,10.81-4.89,15.38a6.59,6.59,0,0,1,.68-5.57C437.41,251.93,438.55,248.51,439.93,245.23Z" transform="translate(-77.12 0)"/><path class="cls-21" d="M356.36,142.19c2.4-1.46,4.38-2.62,6.31-3.86.66-.42,1.05-.25,1.34.32.67,1.3,1.9,2.28,2.36,4.31C363.06,142,360,142.39,356.36,142.19Z" transform="translate(-77.12 0)"/><path class="cls-22" d="M395.56,14.21c.46-1.55.45-3.92,2-4.19s1.93,2.13,2.82,3.37a13.31,13.31,0,0,1,1,1.95A21.44,21.44,0,0,1,395.56,14.21Z" transform="translate(-77.12 0)"/><path class="cls-23" d="M436,41.83c.11.52.18,1.07.71,1.37a40.28,40.28,0,0,1-2.36,10.68c-.28.66-.44,2-1.57,1.48-1.58-.67-.17-1.51.16-2.18C434.67,49.59,435.1,45.65,436,41.83Z" transform="translate(-77.12 0)"/><path class="cls-24" d="M242.5,607l.08-4.52a1.79,1.79,0,0,1,.54-.11c1.28.18,3.25-.81,3.66.79.48,1.87-1.34,2.84-2.93,3.52A8.57,8.57,0,0,1,242.5,607Z" transform="translate(-77.12 0)"/><path class="cls-25" d="M341.29,7.68l5.09,2.11c-1.21,1.25-3.38,1-3.41,3.45C341.34,11.55,341.7,9.62,341.29,7.68Z" transform="translate(-77.12 0)"/><path class="cls-24" d="M361.21,59.62l-6.36-2.32C360.25,54.94,360.66,55.11,361.21,59.62Z" transform="translate(-77.12 0)"/><path class="cls-26" d="M396.92,43.69q-4.08-2.25-8.17-4.49a17.8,17.8,0,0,1,8.8,3.88A.69.69,0,0,1,396.92,43.69Z" transform="translate(-77.12 0)"/><path class="cls-27" d="M394.17,142c-.57,1.74-1.05,3.61-4,2.18l3.3-3C394,141.23,394.25,141.47,394.17,142Z" transform="translate(-77.12 0)"/><path class="cls-28" d="M400.91,147.19c.91,1.07,2.81,1.69,1.66,3.69C401.93,149.69,398.33,149.84,400.91,147.19Z" transform="translate(-77.12 0)"/><path class="cls-29" d="M381.09,44.76c-2.86-.13-2.78-1.59-1.62-3.56A8.61,8.61,0,0,1,381.09,44.76Z" transform="translate(-77.12 0)"/><path class="cls-30" d="M396.92,43.69l.63-.61,3,2.62A5.12,5.12,0,0,1,396.92,43.69Z" transform="translate(-77.12 0)"/><path class="cls-31" d="M430.29,45.27c.35.73-.21,1.69.56,2.32A5.84,5.84,0,0,1,429.5,51,17.88,17.88,0,0,1,430.29,45.27Z" transform="translate(-77.12 0)"/><path class="cls-32" d="M395.18,232.28c-1.19.06-1.26-.93-1.57-1.69.83-.51.15-1.75,1.06-2.23C394.64,229.69,394.44,231.05,395.18,232.28Z" transform="translate(-77.12 0)"/><path class="cls-33" d="M394.17,142l-.67-.86,1.95-2.29A3.71,3.71,0,0,1,394.17,142Z" transform="translate(-77.12 0)"/><path class="cls-34" d="M418.52,580.25c1.32-.12,2,.82,2.67,1.7a1,1,0,0,0-1,.6Z" transform="translate(-77.12 0)"/><path class="cls-35" d="M425.92,40.23c-1.16,2.19-1.22-.41-1.88-.43l.79-.84C425.19,39.39,425.56,39.81,425.92,40.23Z" transform="translate(-77.12 0)"/><path class="cls-36" d="M420.74,73a3.56,3.56,0,0,1,1.63,1.87l-.59.67A4.35,4.35,0,0,1,420.74,73Z" transform="translate(-77.12 0)"/><path class="cls-37" d="M400.32,139.91l.64.66a3.9,3.9,0,0,1-1.63,1.83A2.56,2.56,0,0,1,400.32,139.91Z" transform="translate(-77.12 0)"/><path class="cls-38" d="M319.3,90.55l.84.85a2,2,0,0,1-1.63.76A1.65,1.65,0,0,1,319.3,90.55Z" transform="translate(-77.12 0)"/><path class="cls-39" d="M436.29,217.06c1.44.66.71,1.93.84,3C436.39,219.16,436.7,218,436.29,217.06Z" transform="translate(-77.12 0)"/><path class="cls-11" d="M475.58,222.64c-4.9,1.48-10,1.8-15,2.25-.87.07-2.14.26-1.73-1.33.94-3.64.51-7.33.48-11A60,60,0,0,1,468.17,180c2.52-4.1,5.05-8.19,7.55-12.29a12,12,0,0,1,6.27-5,110.28,110.28,0,0,0,18-8.83c12.42-7.52,20.45-18.18,22.9-32.7.28-1.67.24-3.38.41-5.07.07-.69-.45-1.67.46-2,.74-.26,1.39.42,2,.88,2.65,2.13,4.89,4.79,5.55,8,2,9.89,8.47,16.47,16,22.15,9.92,7.46,14.51,17.75,16.61,29.54,3.68,20.64,1.42,40.72-5.39,60.43-2.18,6.32-4,12.81-7.74,18.45-5.35,8-13.39,12.57-21.73,16.66-7.81,3.83-16.3,5.12-24.8,6.25a62.88,62.88,0,0,1-10.33.67c4.17-19-.72-36-11.18-52,5.24-2.4,10.53-4.84,15.21-8.37a96.07,96.07,0,0,0,23.23-25.62c2.37-3.74,4.55-7.61,7.49-11,1-1.08,2.12-2.28.73-3.65s-2.54-.18-3.6.8c-.27.25-.6.45-.9.68-11.45,9.07-23,18-32.84,28.93a61.33,61.33,0,0,1-7,6.15,26.72,26.72,0,0,0-6,6.34A8.66,8.66,0,0,1,475.58,222.64Z" transform="translate(-77.12 0)"/><path class="cls-11" d="M501.75,43.74c-.36,1.46-.74,2.92-1.07,4.39-.95,4.35.91,6.22,5.23,4.93,4.14-1.24,8.18-2.85,12.26-4.29l3-1.12c-1.87,3.56-3.43,6.59-5.06,9.59-.84,1.56-1.54,3.22-.55,4.81,1.12,1.81,3.11,1.46,4.89,1.28a67.19,67.19,0,0,0,11.78-2.14c-1.29,2.75-3.23,4.5-4.69,6.57-2.46,3.47-2.07,5,2,6.49,2.18.81,4.47,1.34,6.78,2-1,1.21-3.15,1.11-3.53,3a9.91,9.91,0,0,0,1,5.76c1.43,3.57,2.79,7.16,4.21,10.81-7.2-.13-7.2-.13-5.53,9.36-1.52-.12-3-1.54-4.45-.23s-.65,3-.48,4.51a1.84,1.84,0,0,1-.58,0c-4.26-1.81-4.28-1.81-2.62-6a16.17,16.17,0,0,0,1.21-7.74,5.22,5.22,0,0,0-4-5c-2.46-.63-4.51-.12-5.94,2.45a87.73,87.73,0,0,1-5.14,7.46c-1.08-1-.71-2.09-.75-3.06-.07-1.55-.07-3.12-1.79-3.82s-2.79.59-3.9,1.6c-.82.74-1.62,1.51-2.84,2.66.2-2.18.38-3.8.49-5.43a3.24,3.24,0,0,0-1.64-3.35c-1.27-.69-2.39-.12-3.41.6-2.14,1.52-4.24,3.1-6.88,5,.35-2.3.64-4.06.86-5.83a15.35,15.35,0,0,0,.24-3.37c-.26-3-2.59-4-5-2.23-2,1.52-3.89,3.21-6.11,5.07-.25-1.8-.4-3.25-.66-4.68-.51-2.85-2.08-3.39-4.56-1.63-1.36-.09-1.15-1.26-1.41-2.09-.93-3-.29-6,.16-9a87.38,87.38,0,0,1,6.09-20c.22-.55.35-1.36,1.3-1.15,2.64,2.37,5.43,1.61,8,.09,4.18-2.45,8.23-5.12,12.34-7.69C502.07,42.44,502,43,501.75,43.74Z" transform="translate(-77.12 0)"/><path class="cls-11" d="M467.25,97.62c2.38-.87,3.57-2.94,4.9-4.87l3.08-4.46a3.71,3.71,0,0,1,.33.66c.19,1.71-.62,3.8,1.46,4.81,2.27,1.11,3.66-.75,5.18-1.92,1.33-1,2.59-2.12,4.16-3.42.21,3.2-.94,5.83-1.19,8.57-.13,1.42-.62,2.92.9,3.83s2.86,0,4.11-.94c2.34-1.69,4.4-3.78,7.31-5.34-.3,2.35-.54,4.36-.82,6.37-.17,1.28-.18,2.54,1.13,3.22a3,3,0,0,0,3.43-.51c1.47-1.26,2.87-2.58,4.91-4.42,0,2.4,0,4.06,0,5.71,0,1.36.42,2.45,1.87,2.76s1.85-.62,2.62-1.58c2.74-3.41,5.62-6.7,7.67-10.62a1.79,1.79,0,0,1,1.81-1.13c.93.14,1.35.88,1.63,1.75.73,2.29-1.36,8.49-3.39,9.76-.45.28-1.15.61-1.55.45-2.43-1-3,.1-3.47,2.35-.71,3.64-3,6.54-5.68,8.94a61.27,61.27,0,0,1-28,14.46c-4.05-5-6.86-10.8-9.55-16.6a54.9,54.9,0,0,1-4.78-15.06C465.07,98.79,465.21,97.57,467.25,97.62Z" transform="translate(-77.12 0)"/><path class="cls-12" d="M480.68,50c-3.37,7.92-6.1,16-7.1,24.63a14.28,14.28,0,0,0,1,7.59l-7,10.44c-1.15-1.32-1-2.91-1.5-4.26-1.3-3.72-2.12-4.14-5.79-2.48.44-3.21-.37-6.43.8-9.55.55-1.47-.54-2-1.81-2.15-.83-.1-1.51.88-2.55.22,1.57-2,3.71-3.56,4.72-5.91C462.86,65.1,461,62,460,58.82c-.18-.59-.9-1.19-.37-1.8s1.21,0,1.81.15c7.83,2.31,8.25,2.09,10.92-5.68.91-2.66,1.83-5.32,2.89-8.4C477.72,45.16,478.72,48,480.68,50Z" transform="translate(-77.12 0)"/><path class="cls-11" d="M475.5,274.24c-6-.05-11.29-1.69-16.65-3.07-6.28-1.6-6.2-1.61-5.6-8.24.43-4.78.59-9.59,1.36-14.35a3.89,3.89,0,0,1,2.48-3.37,19.42,19.42,0,0,1,10.22-1.35c1.62.21,2.11,1,2.07,2.66C469.17,256.08,470.71,265.29,475.5,274.24Z" transform="translate(-77.12 0)"/><path class="cls-12" d="M520.85,298.73c-1.84.28-3.29-.65-4.65-1.63-5.46-3.92-12-5.12-18.1-7.5a25.84,25.84,0,0,1-7.42-3.94c-1.31-1.09-1.86-2.32-1-3.94,12.44-.89,24.87-1.92,37.28-6-1.07,5.48-3.14,10.09-4.82,14.82C521.21,293.17,520.32,295.84,520.85,298.73Z" transform="translate(-77.12 0)"/><path class="cls-12" d="M497.19,150.82a112.46,112.46,0,0,1-13.32,6.64c-1.62-6.74-1.36-13.36-2.53-19.8-.31-1.77.71-2.32,2.11-2.66,6.75-1.61,12.8-4.82,18.72-8.29,1.61-.94,3.11-2.06,4.66-3.11a3.46,3.46,0,0,1,.08,4C503.07,135.09,500.49,143.1,497.19,150.82Z" transform="translate(-77.12 0)"/><path class="cls-12" d="M472.89,245.68c3.66,1.09,6.21,3.64,9.38,5,1.63.72,3.25,2,5,1.86,2.78-.22,3.32,1.32,3.53,3.41.59,5.6,1.72,11.21-.2,16.76s-5.62,6.43-9.61,2c-4.2-4.64-5.87-10.46-6.91-16.43A55,55,0,0,1,472.89,245.68Z" transform="translate(-77.12 0)"/><path class="cls-12" d="M475.58,222.64a332.17,332.17,0,0,1,48.05-44.22,4.39,4.39,0,0,1,1.28-.43c-5.09,7.34-9.85,14.95-15.35,22a65.22,65.22,0,0,1-28.3,21.29A46.63,46.63,0,0,1,475.58,222.64Z" transform="translate(-77.12 0)"/><path class="cls-11" d="M497.19,150.82c-.2-3.12,1.54-5.68,2.59-8.38,1.94-5,3.62-10.09,6.37-14.72.78-1.31.65-2.71.68-4.12,4.15-3.45,8.09-7.07,10-12.35.35-1,.9-1.43,1.89-1.09s1.05.82.81,1.91c-.81,3.76-.07,7.65-1.08,11.46C515.18,135.67,508,144.6,497.19,150.82Z" transform="translate(-77.12 0)"/><path class="cls-12" d="M476.76,243.18c1.16-.82.27-1.71,0-2.52-1-3.52-2.26-7-3.06-10.53-.45-2-1.3-2.7-3.2-2.36,2.27-1,4.78-.58,7.1-1.27.68-.2,1,.19,1.37.68,4.41,6.27,8.14,12.85,10,20.39.46,1.91-.4,1.59-1.58,1.26C483.44,247.72,480.3,245.07,476.76,243.18Z" transform="translate(-77.12 0)"/><path class="cls-40" d="M467.25,97.62c-1.47.29-1.46,1.25-1.25,2.48a67.79,67.79,0,0,0,7.85,21.32c1.95,3.53,3.86,7.08,5.78,10.63-1.15.59-2.11.95-3.15-.45-7.58-10.13-11.51-21.67-13.31-34-.15-1-.89-2.15.56-2.85A3.06,3.06,0,0,0,467.25,97.62Z" transform="translate(-77.12 0)"/><path class="cls-17" d="M500.54,575.64c1.45-.61,2.94-1.17,4.36-1.87a1.94,1.94,0,0,1,2.5.54c3.68,3.61,7.93,6.65,10.91,11.26-2.6.87-5.09-.64-7.6-.29a8.23,8.23,0,0,0-2.58-.65A14.84,14.84,0,0,1,500.54,575.64Z" transform="translate(-77.12 0)"/><path class="cls-17" d="M450.74,250.48a70.7,70.7,0,0,0-1.12,16.09c.08,1.93-.74,2.05-2.17,1.43-2.24-1-4.49-1.95-6.71-3-.73-.34-1.84-.8-.72-1.78,3.79-3.35,6-8,9.33-11.66A13.59,13.59,0,0,1,450.74,250.48Z" transform="translate(-77.12 0)"/><path class="cls-1" d="M500.54,575.64c1.91,1.64,2.34,4.35,4.37,6a16.82,16.82,0,0,0,3.54,2.62c-.16,1.4-1.05.68-1.72.6a28.92,28.92,0,0,1-8.94-2.13c-1.38-.53-2.9-1.18-2.9-3,0-1.63,1.52-2,2.61-2.59S499.52,576.12,500.54,575.64Z" transform="translate(-77.12 0)"/><path class="cls-41" d="M453.09,86.74q.87-3.76,1.72-7.53c1.21-.23,2.66-1.42,3.58-.14s-.18,2.73-1.18,3.69C455.84,84.09,455.23,86.22,453.09,86.74Z" transform="translate(-77.12 0)"/><path class="cls-42" d="M463.73,94.7c-.92.81-.36,1.9-.56,2.85-1.09-2-.35-4.14-.1-6.29Z" transform="translate(-77.12 0)"/><path class="cls-43" d="M459,92.64A2.92,2.92,0,0,1,456.68,91C458.33,90.17,459.6,89.88,459,92.64Z" transform="translate(-77.12 0)"/><path class="cls-44" d="M457,68.22a14.15,14.15,0,0,1,.64-4.57C458.53,65.33,459.43,67,457,68.22Z" transform="translate(-77.12 0)"/><path class="cls-45" d="M506.73,584.81c.58-.19,1.32.1,1.72-.6a2.93,2.93,0,0,1,2.26,1.07C509.36,585.25,508,585.67,506.73,584.81Z" transform="translate(-77.12 0)"/><path class="cls-46" d="M501.75,43.74c-.12-.5-.16-1-.71-1.3.23-.4.74-.89,1-.58C502.55,42.44,502.27,43.17,501.75,43.74Z" transform="translate(-77.12 0)"/><path class="cls-47" d="M291.06,183.69c-2.11,0-2.69-1.31-2.07-3,5.41-14.89,7.92-30.52,11.74-45.82a34.38,34.38,0,0,1,5.14-11.5c1.1-1.59,2.39-2.33,3.48.1a2.59,2.59,0,0,1-.2,2.93c-3.64,5.82-4.71,12.44-5.94,19-2.18,11.67-4.57,23.28-8.79,34.42C293.8,181.46,293.58,183.61,291.06,183.69Z" transform="translate(-77.12 0)"/><path class="cls-48" d="M291.06,183.69a4.49,4.49,0,0,0,2.23-2.79c4.28-11.66,7-23.73,9.21-35.92,1.22-6.63,2.2-13.37,6.14-19.15a8.31,8.31,0,0,0,.71-2.39c3.18.53,4.06,1.69,3,4.55-6.16,17.1-10.83,34.65-16.14,52-.88,2.91-1.86,5.83-4.08,8.31C291.12,186.68,291.38,185.12,291.06,183.69Z" transform="translate(-77.12 0)"/><path class="cls-49" d="M432.75,175.59c-.23,1.11.28,2.66-1.52,2.88-1.6.2-2.29-1-2.42-2.23a143.13,143.13,0,0,1-.2-30.34c.41-4.13,3.21-7.55,5.19-11.17a8.39,8.39,0,0,0,.49-1.59c1.1-1.94,1.26-4.13,1.61-6.26.2-1.22.37-2.36,1.93-2.16s1.62,1.4,1.56,2.59c-.13,2.65-.25,5.5-1.73,7.64-6.11,8.83-6.23,18.71-5.62,28.79C432.27,167.69,431.94,171.67,432.75,175.59Z" transform="translate(-77.12 0)"/><path class="cls-50" d="M416.76,36.36c.4,3.09-.54,4-3.33,2.82-3.17-1.37-7-2-8.57-5.76.18-2.07,1.59-2.51,2.88-1.41C410.41,34.27,413.73,35,416.76,36.36Z" transform="translate(-77.12 0)"/><path class="cls-51" d="M431.52,247.34c-.55,1.8-1.87,2.16-3.1,1.34a34.62,34.62,0,0,1-8.41-8.62,1.6,1.6,0,0,1,.28-2.29,1.57,1.57,0,0,1,2.09-.12c3,2.85,5.87,5.79,8.77,8.73C431.38,246.62,431.41,247.06,431.52,247.34Z" transform="translate(-77.12 0)"/></svg>