<svg id="Capa_1" data-name="Capa 1" xmlns="http://www.w3.org/2000/svg" viewBox="0 0 600.7 606.63"><defs><style>.cls-1{fill:#fefefe;}.cls-2{fill:#3a4d64;}.cls-3{fill:#f49b4b;}.cls-4{fill:#bcbdc7;}.cls-5{fill:#e6e3e5;}.cls-6{fill:#b8b9c3;}.cls-7{fill:#fff;}.cls-8{fill:#818798;}.cls-9{fill:#fac696;}.cls-10{fill:#828799;}.cls-11{fill:#fac695;}.cls-12{fill:#828798;}.cls-13{fill:#fac595;}.cls-14{fill:#84899a;}.cls-15{fill:#808597;}.cls-16{fill:#fac594;}.cls-17{fill:#f3f3f5;}.cls-18{fill:#f5c396;}.cls-19{fill:#b0b2be;}.cls-20{fill:#8b90a0;}.cls-21{fill:#f2e3d7;}.cls-22{fill:#c4c5ce;}.cls-23{fill:#cacbd4;}.cls-24{fill:#3a4e64;}.cls-25{fill:#fffefe;}.cls-26{fill:#fffdfb;}.cls-27{fill:#fde4cd;}.cls-28{fill:#fbcca0;}.cls-29{fill:#e2e1e7;}.cls-30{fill:#eb9b56;}.cls-31{fill:#e7934c;}.cls-32{fill:#e3e3e8;}.cls-33{fill:#a67958;}.cls-34{fill:#cbccd3;}.cls-35{fill:#747b8d;}</style></defs><title>Sin título-1</title><path class="cls-1" d="M437,612H67.51v-2.74q0-300.61-.07-601.22c0-2.31.53-2.68,2.73-2.67q297.75.09,595.51,0c1.88,0,2.47.24,2.47,2.36Q668,309,668.08,610.36V612H455.3a1.08,1.08,0,0,1,.27-1.26,34.46,34.46,0,0,0,7-9.52,2,2,0,0,1,2.6-1,13.67,13.67,0,0,1,3.59,1.4,3.21,3.21,0,0,0,2.6.7c1.71,0,3.42,0,5.12,0a2.85,2.85,0,0,0,2.26-.81c5.35-2.29,10.61-4.78,15.83-7.38,7-3.47,8.57-9,7.64-15.84a78.29,78.29,0,0,1-.39-10.82c0-2.91.53-3.26,3.42-3.48,4.88-.37,9.82-.42,14.52-2,5-1.7,6.19-4.36,3.39-8.84-3.29-5.25-3.56-10.38-1.18-16.09,6.68-16.06,9.55-33,11.59-50.18,2-16.87,2.23-33.78,2.18-50.72,0-5.82,0-11.64,0-17.45.07-11.17-2.45-21.36-9.22-30.51s-10.56-19.93-15.62-30c-2.2-4.39-4.2-8.86-7-12.95-5-7.46-10.16-14.83-14-23a80.11,80.11,0,0,1-5.39-14.57,12.63,12.63,0,0,1,.2-6.54c2.74-10.32,7-20.11,10.42-30.19,4.82-14.2,9.64-28.42,12.92-43.09,1.64-7.35,1.86-14.87,2.53-22.33.58-6.54.92-13.1,1.52-19.63a100.53,100.53,0,0,0,.14-10.84,159.93,159.93,0,0,1,1.49-21.86A35.74,35.74,0,0,0,512,135.91c-1.35-3.51.52-5.43,3.17-7.37,1.27-.94,2.26.09,3.19.82,3.51,2.73,7,5.48,11,7.41,3.28,1.55,6.71,2.66,10.06,4a2.53,2.53,0,0,0,3.5-1.28c2.82-4.89,6.12-9.5,8.75-14.5.62-1.18,1-3.17,2.56-2.88a6.52,6.52,0,0,1,4.36,3.09c.28.47.32,1.08.61,1.55.75,1.2,1.56,1.15,2.37.06a3.45,3.45,0,0,0,.49-1c2.39-6.82,5.21-13.49,7.07-20.48,3.37-12.72,2.29-25.28-1.23-37.82-2.41-8.58-7-16-12.55-22.65-5.89-7-13.9-11.17-22.65-13.89A101.06,101.06,0,0,0,514,27.35a20.22,20.22,0,0,0-3.89,0c-.75.07-1.54.23-1.79,1.07-.33,1.06.54,1.48,1.26,1.87A34.85,34.85,0,0,1,515.72,34c.56.48,1.38.92,1.2,1.73-.22,1-1.26.95-2.06,1-4.15.2-8.31-.11-12.46.58a55.86,55.86,0,0,0-23.56,10A13.31,13.31,0,0,0,477,48.9c-2.61,2.67-2.31,4.68,1,6.2a60.34,60.34,0,0,0,8.06,3A40,40,0,0,1,496.91,63c3.5,2.27,3.49,4-.19,5.91-4.62,2.35-9.26,4.67-13.31,8a57,57,0,0,0-8.06,8c-.72.88-1.93,1.93-.88,3.14.91,1,2.27.49,3.38,0a55.24,55.24,0,0,1,10.54-3.43c1.7-.32,3.85-1.18,5,.36s-.84,3-1.57,4.36A11.81,11.81,0,0,1,485.92,95c-1.65.71-2.64,2.28-3.73,3.66a4.39,4.39,0,0,1-4.75,1.93c-2.75-.51-5.44.75-8.08,1.52-7.65,2.27-14.87,5.65-22.16,8.86A206.81,206.81,0,0,0,412,131c-8,5.6-15.64,11.8-21.74,19.64-1.22,1.57-2.38,3.33-4.41,4.08-1.36-.38-1.4-1.64-1.63-2.66-2.57-11.44-8.45-21-16.19-29.65a8.53,8.53,0,0,1-1-1.3,1.91,1.91,0,0,1,0-2.33c.69-.85,1.51-.5,2.26-.1,1.87,1,3.58,2.31,5.36,3.47,4.3,2.79,6.06,2.72,9.75-.91,5.82-5.75,9.61-12.85,13.26-20.07,3.33-6.6,5.29-13.63,7.19-20.7.42-1.57.71-3,2.78-3.25,1.21-.13,1.77-1.23,2.2-2.3.35-.85.59-1.75,1-2.59.3-.6.69-1.23,1.39-1.21s1,.79,1.15,1.4c.81,2.76,1.44,5.56,2.12,8.35.24,1,.34,2.35,1.61,2.25,1.45-.11,1.33-1.58,1.36-2.66.12-3.52-.55-7-.6-10.52a22.22,22.22,0,0,1,2.54-10.67,74.79,74.79,0,0,0,4.1-8.51c1.08-3,.19-3.94-2.93-3.39-2.4.42-2.84-.07-2.06-2.48.65-2,1.6-4,2.29-6,.36-1,.76-2.21-.24-3.11s-1.93-.44-2.9-.1c-2.53.89-5,2-7.5,2.91-.78.29-1.72.71-2.39.13-.83-.72-.31-1.74,0-2.6.94-2.81,2.43-5.4,3.45-8.19.38-1,1-2.17,0-3.11s-2.3-.27-3.32.3a67.91,67.91,0,0,1-10.43,5.17c-3.55,1.24-4.36.69-4.41-3s0-7.6,0-11.39c0-1.19.15-2.56-1.22-3.15s-2.48.33-3.44,1.21c-2.74,2.5-5.08,5.41-8.1,7.6-.73.53-1.46,1.48-2.41,1.06s-.85-1.73-.9-2.72a21.77,21.77,0,0,0-.3-3.6c-.73-3.14-2.06-3.67-4.66-1.83a25.61,25.61,0,0,0-3.09,2.79c-2.25,2.21-4.36,4.55-6.73,6.63-1.92,1.68-2.78,1.58-4.37-.38a56.43,56.43,0,0,1-4.91-7.07,35.42,35.42,0,0,0-2.44-3.71c-.59-.77-1.29-1.41-2.35-1.11s-1.19,1.09-1.39,1.92c-.73,3-.63,6.06-1,9.1-.86,7-1.42,7.38-7.81,4.59A55.92,55.92,0,0,0,333.44,25c-1.14-.38-2.43-.8-3.35.33s-.2,2.17.36,3.09c1.61,2.62,2.71,5.48,4.15,8.17s1.39,3.58-1.05,5.71c-2.79,2.44-5.82,4.6-8.33,7.34-.73.8-1.83,1.52-1.42,2.8s1.74,1.55,3,1.65c1.94.15,3.85.47,5.78.72,3.13.4,3.78,1.54,2.26,4.27-2.24,4-4.31,8.19-6.38,12.34a16.84,16.84,0,0,0-1.3,3.06c-.47,1.71-.07,3.1,1.87,3.25,2.52.2,2.15,1.4,1.28,2.93A38.87,38.87,0,0,0,327.66,85c-.91,2.2-.09,3.26,2.26,2.84,2.18-.4,4.34-.94,6.52-1.38.72-.14,1.61-.42,2.08.26s0,1.61-.52,2.28a20.1,20.1,0,0,1-5.86,5.83c-2,1.15-3.82,1.68-6,.45a4.37,4.37,0,0,0-5.41.69c-7,6.61-15.32,11.29-23.87,15.57-4.05,2-8.17,3.94-12.22,6a54.32,54.32,0,0,0-15.73,12.59c-6.25,6.93-8.68,15.45-10,24.31-1.49,10.16-2.17,20.43-2.9,30.67a10.24,10.24,0,0,1-1.39,4.75,88,88,0,0,0-9,20.83c-1.45,4.69-3.31,9.24-4.84,13.91a6.06,6.06,0,0,1-2.46,3.56c-1.62,1-2.1,2.79-2.56,4.48-2.58,9.49-4.38,19.14-6.2,28.79a2.51,2.51,0,0,0-.1,1.37c1.44,3.39-.54,6-1.81,8.85a115.27,115.27,0,0,0-10.12,43.26c-.35,8.55.43,17,.58,25.48a76.94,76.94,0,0,1-2.66,20,437.3,437.3,0,0,1-15.88,51.19c-3.53,9.19-5.91,18.73-8.37,28.23-5.86,22.62-10.63,45.45-13,68.73-1.57,15.09-3.34,30.17-4.82,45.27-.6,6.13.41,6.94,6.74,6.48,6.83-.51,13.7-.19,20.54-.14,5,0,10-.35,15,.36A46.58,46.58,0,0,1,233.46,567a146.68,146.68,0,0,0,14.41,7.77c12.31,5.7,24.75,5.32,37.35,1.3,4.07-1.29,7.95-3.05,11.88-4.68,3.59-1.49,5-4.12,5.19-7.77.18-4.52.85-9,.6-13.58a5.7,5.7,0,0,1,.16-1.93c.32-1.19,1.1-1.79,1.8-.5,2,3.77,5.06,2.91,7.9,1.62,2.37-1.06,4.12-1.08,6.33.55,2,1.49,4.77,1.3,7.26,1.37,8.37.23,16.6-1,24.79-2.57a18.61,18.61,0,0,1,2.18-.42c5.63-.35,8.47-4,10.38-8.74,1.26-3.14.82-4.86-1.79-7.12-2.17-1.89-2.12-2.24.52-3.49,2.93-1.39,6-2.46,8.94-3.82a11,11,0,0,0,5.77-6.09A34.47,34.47,0,0,0,379.55,507c.45-11.16-1.08-22.17-2.47-33.2-1.77-14-3.79-27.9-6.23-41.77a8.39,8.39,0,0,1-.05-3c.2-.6.4-1.21,1.22-1.13,2.28,2.44,2.6,5.69,3.34,8.69a322.23,322.23,0,0,1,6.7,39.4,170.49,170.49,0,0,0,10.85,42.94c2.18,5.51,4.55,10.94,6.3,16.62,4,13,2.49,25.82-.81,38.63-.71,2.78-1.57,5.53-2.09,8.35-.71,3.87,1,5.68,4.9,5.18,3.49-.45,7-1,10.41-1.69,1.08-.22,2.32-.56,3.1.48s-.09,2.09-.59,3c-.38.74-.83,1.45-1.17,2.21-1.41,3.2-.83,5.58,1.63,8a31.7,31.7,0,0,0,10.69,6.81c3.08,1.26,6.19,2.44,9.36,3.49C435.63,610.41,436.9,610.5,437,612Z" transform="translate(-67.44 -5.37)"/><path class="cls-2" d="M437,612c-.64-1.16-1.91-.92-2.9-1.29-4-1.48-8-2.93-11.86-4.64a29,29,0,0,1-8.64-6.23c-2.59-2.55-3-5.09-1.37-8.32.81-1.63,1.79-3.17,3-5.25-4.7.76-8.85,1.46-13,2.1a11.41,11.41,0,0,1-3,.16c-3-.31-4.36-1.95-3.8-4.9.65-3.45,1.61-6.84,2.49-10.24,3.41-13.13,4.5-26.27.17-39.41-2.66-8.07-6.24-15.81-9.08-23.83-4.84-13.63-6.84-27.79-8.7-42-1.63-12.48-3.59-24.91-7.12-37a32.73,32.73,0,0,0-1.25-3.09,4.47,4.47,0,0,1-1.58-1.94c-1.12-2.84-2.65-5.49-3.57-8.41-.77-2.46-.23-3.38,2.13-3.9a4.4,4.4,0,0,1,2.49,2.46,103.4,103.4,0,0,1,9.39,26.93c2.86,13.71,4.32,27.63,6.49,41.44a145.75,145.75,0,0,0,10.38,35.09c4.67,10.82,8.24,21.91,7.89,33.81a103,103,0,0,1-4.24,25.15c-1.58,5.53-1.56,5.58,3.95,4.59,1.74-.31,3.52-.21,5.21-.74a52.41,52.41,0,0,1,20.12-.55c10,1.86,19.8,4.43,28.23,10.32,9.6,6.71,19.08,7.18,29,1,2.35-1.46,4.79-2.8,7.2-4.19a6.49,6.49,0,0,0,3.5-6.39q-.42-14-1.07-28a225.3,225.3,0,0,0-3.07-29c-1.55-8.75-4.52-17.22-5.51-26.09a85.4,85.4,0,0,1-.6-16.32c.81-10.19.5-20.41-3.22-30.16-7.46-19.56-10.55-40.05-13.34-60.64-2.29-17-6.55-33.47-14.13-48.93a64.72,64.72,0,0,1-6.34-28.2c0-3.52-.76-7-.52-10.53.19-2.86,1.11-4.51,2.69-4.57,1.74-.07,2.83,1.56,2.74,4.67-.17,5.57.51,11.09.77,16.64.38,8.05,3.47,15.31,6.87,22.43,5.81,12.23,9.15,25.21,11.83,38.4,2.63,17,4.47,34.16,8.68,50.89,1.63,6.47,4.28,12.63,6.25,19a73.11,73.11,0,0,1,3.06,28.51,75.42,75.42,0,0,0,2,25.65,209.66,209.66,0,0,1,6.5,36.6c.33,4.42.86,8.84.8,13.29-.05,3.46.2,3.65,3.56,3.69,1,0,2,0,3.05,0,2.83-.42,5.71-.59,8.45-1.55s3-1.68,1.62-4.07a29.56,29.56,0,0,1-2.57-5.53,14.26,14.26,0,0,1,0-8.74c1.07-3.46,2.34-6.84,3.6-10.23,5.65-15.25,7.87-31.19,9.7-47.23,1.42-12.36,1.45-24.75,1.73-37.15.17-7.77.56-15.55.36-23.31-.15-5.81-.41-11.66-1.82-17.37a28.06,28.06,0,0,0-4.1-9.67c-8.84-12.38-14.69-26.34-21.19-39.95-3.06-6.39-7.32-12-11-18-4.94-8-9.45-16.15-12.05-25.24a10.35,10.35,0,0,1-.72-2.68c0-4.37-2.47-7-5.86-9.35-9-6.3-18.62-10.58-29.67-11.45a40.23,40.23,0,0,1-8.22-1.24c-9.67-1.08-18.91-4.35-28.57-5.53-2.23-.27-3.46.37-4.91,2-8.71,10-11.79,22.24-14.13,34.8-.84,4.55-2,9-2.79,13.6-.89,5.12-3.95,7.36-9.25,6.91a49.84,49.84,0,0,1-11.68-2.3c-2.35-.79-3.89-.34-5.14,1.72-.92,1.52-2.39,2.58-3.49,3.95-1.21.76-2.42,1.2-3.71.16a2.42,2.42,0,0,1-.69-2.38c.87-1.78,2.56-2.86,3.72-4.41s.84-2.2-.82-2.81c-4.41-1.62-8.68-3.6-13-5.46a3.1,3.1,0,0,1-1.49-4.21c1.9-2.05,3.95-1,5.86-.14,5.77,2.49,11.45,5.18,17.32,7.44a53.18,53.18,0,0,0,12.1,3c3.65.49,4.56-.24,5.36-3.85,2.22-10,3.68-20.2,6.78-30A57.4,57.4,0,0,1,399,281.93a15.9,15.9,0,0,0,3.45-10A63.33,63.33,0,0,1,404.27,259c2.66-12.24,6-24.26,11.77-35.47,1.95-3.8,3.21-7.88,4.86-11.81,2.29-6.12,3-12.55,3.57-19,.37-4.51.81-9,1.28-13.51a4.53,4.53,0,0,1,.79-2.06c1-1.14,2.16-1.33,3.35-.21a6.08,6.08,0,0,1,.55,4.05c-.72,7.16-1,14.37-1.92,21.52-1,8.2-4.3,15.65-7.56,23.11-2.41,5.5-5.09,10.89-6.85,16.66s-2.94,11.66-4.68,18a191.6,191.6,0,0,0,14.22-19c1.06-1.67,1.87-3.72,4.31-3.91,2.48.89,2.05,2.76,1.3,4.48a42.88,42.88,0,0,1-4.66,7.36c-3.34,4.4-6.85,8.68-10.11,13.14a34.11,34.11,0,0,1-5.2,5.34c-1.3,1.15-2.34,6.87-1.54,8.3a1.92,1.92,0,0,0,1.66.85c3.58.35,7,1.47,10.69,1.36a53.57,53.57,0,0,1,9.2,2,113.23,113.23,0,0,0,19.94,3.39c11,1,20.57,5.72,29.43,12.05,3,2.13,3.08,2.14,4.06-1.44,2.46-9,6.59-17.31,9.35-26.15,4.75-15.18,10.48-30.11,13.12-45.89,1.25-7.48,1.48-15.08,2.1-22.64,1.05-12.82,1.68-25.65,1.79-38.52,0-4.41,1.12-8.8,1-13.27a37.27,37.27,0,0,0-.48-6.07c-.1-.78.21-1.61-.33-2.42.64,1.54-.45,2.68-.71,4-3.21,6.17-4,12.84-4.17,19.64-.07,3.06.06,6.11-.07,9.17-.06,1.37-.45,2.65-2.07,2.85s-2.49-.95-3-2.36a8,8,0,0,1-.29-2.75c.07-3.6-.25-7.22.28-10.82a5.5,5.5,0,0,0-.32-2.73c-2.62-6.93-4.72-14-7.84-20.78-3.62-7.84-9.22-14-16-19.19a9,9,0,0,1-3.84-7.6c0-1.1.57-2.13.55-3.27-1.15-.55-2.05.15-2.93.48-22,8.33-42.88,18.76-61.47,33.44a119.22,119.22,0,0,0-21.23,22.17c-7.6,9.63-11.45,21-15.61,32.35a135.08,135.08,0,0,0-7.25,32.43,62.9,62.9,0,0,1-8.23,25.14A199.91,199.91,0,0,0,342.18,279c-2.09,5.35-4.49,10.56-6.61,15.89a67.48,67.48,0,0,0-3.38,10c-.36,1.57-.92,3.07-2.91,3.22a2.71,2.71,0,0,1-2.37-2.43,22.3,22.3,0,0,1,1.16-6c.24-.66.46-1.33.71-2,3.69-9.46,7.81-18.75,11.51-28.21.87-2.09,1.93-4.11,2.6-6.29.55-1.35,1.27-2.61,1.83-4,.47-.83,1-1.61,1.4-2.48,2.63-5.2,5.67-10.16,8-15.5,2.95-6.64,3.77-13.72,4.61-20.77,1.59-13.25,5.6-25.79,10.32-38.18,3.24-8.53,7.1-16.67,12.71-23.91,1.32-1.25,2-3.19,3.88-3.85a122.12,122.12,0,0,1,26.89-25c18.08-12,37.22-22,58-28.61,1.84-.59,3.86-.52,5.58-1.54a.9.9,0,0,1,.81,0c3.16,2.28,4.21-.73,5.59-2.37A12.7,12.7,0,0,1,487.91,93a4.6,4.6,0,0,0,1.73-1.77c1.34-2,2.6-4,4.1-6.29-4-.29-7.36.77-10.72,1.85-2.11.68-4.1,1.69-6.19,2.43-1.23.44-2.64.79-3.52-.58-.77-1.2-.1-2.27.66-3.29a52.28,52.28,0,0,1,20-15.93c1.9-.89,5-1.5,5-3.4,0-2-3-2.82-4.88-3.92-4.43-2.59-9.52-3.5-14.2-5.47-2.16-.91-5.05-1.19-5.48-4.06-.46-3,2.06-4.61,4.14-6.08,9.35-6.64,19.65-10.56,31.25-10.63h7.09a24.6,24.6,0,0,0-7.44-4.72c-1.26-.54-2.81-1-2.37-2.87.4-1.67,1.82-1.9,3.3-1.86,10.46.33,20.68,2.25,30.14,6.62a46.77,46.77,0,0,1,19.86,17c10.33,15.72,13.48,32.82,10.49,51.09-1.5,9.13-5.5,17.6-8.6,26.29A2,2,0,0,1,560.4,129c-.82.05-1.71-.22-1.76-1a4.83,4.83,0,0,0-3.46-4.61c-.47-.17-.33-1.1-1.31-1.11-2.72,6.38-7.07,11.92-10.44,18-.88,1.61-2.2,2.63-4.33,1.21-1.34-.89-3.09-1.15-4.66-1.7a48.58,48.58,0,0,1-17-10.28c-1.18-1.08-1.74-1-2.84.06-2,1.9-3,3.47-1.82,6.62a36.12,36.12,0,0,1,1.53,18.61c-1.59,9.54-.68,19.23-1.39,28.82-1.11,15.11-1.26,30.35-4.35,45.26-2.08,10-5.7,19.7-8.48,29.56-3.73,13.18-9.45,25.64-13.57,38.68-2.06,6.53-1.22,12.18,1.15,18.15a84.92,84.92,0,0,0,9.57,18.38c8.19,11.42,14.24,24,20.18,36.61,3,6.43,6,12.92,10.31,18.62,6.41,8.4,8.67,18.1,8.72,28.4.06,14.54.43,29.11-.24,43.62-1.13,24.52-3.35,48.94-12,72.25-.86,2.34-1.6,4.73-2.58,7-1.57,3.65-1,7,.86,10.36.23.41.45.82.7,1.2,4.77,7.15,1.24,9.88-4.9,11.51-4.41,1.17-9,1.31-13.49,1.47-1.89.07-2.41.7-2.41,2.62,0,6.29,1,12.55.28,18.86a7.16,7.16,0,0,1-3.12,5.3,73,73,0,0,1-21,10.55c-.5.5-1.24.57-1.8,1a22.72,22.72,0,0,1-5.94.06c-.61-.67-1.69-.33-2.3-1-1.57-.5-3.22-1.58-4.68-1.36s-1.47,2.53-2.33,3.82a46.78,46.78,0,0,1-6.3,7.52Z" transform="translate(-67.44 -5.37)"/><path class="cls-3" d="M368.63,414.18c-2.06.34-1.9,1.67-1.34,3.11,1.17,3,2.39,5.94,3.58,8.91.61.92,0,2,.45,3,1.61,10.6,3.39,21.18,4.78,31.81,2,15,4.67,30,4.28,45.25a37.91,37.91,0,0,1-2.63,13.26,10.59,10.59,0,0,1-6,6.18c-3.75,1.54-7.45,3.19-11.23,4.81,5.45,3.53,5.82,5.66,2.82,11.54a12,12,0,0,1-9.3,6.84A169.6,169.6,0,0,1,329.88,552a64.06,64.06,0,0,1-9.4-.6c-.36,0-.85-.09-1-.32-2.45-3-5.07-1.55-7.91-.61-4.44,1.47-4.84,1.15-7.67-3.1-.24,5.09-.6,10-.68,14.94s-1.59,8.33-6.62,10.28c-8.47,3.3-16.89,6.52-26.06,7.25-11.42.92-21.41-3.16-31.12-8.46-4.86-2.65-9.35-6-14.61-7.91-8.65-3.21-17.66-2.82-26.62-2.62-7,.16-14.06-.16-21.09.35-3.73.27-4.91-.93-4.59-4.75.82-9.66,1.78-19.32,2.82-29,1.24-11.49,2.31-23,4-34.42A576.46,576.46,0,0,1,191.62,435c4-15.55,10.17-30.33,14.88-45.61,4-12.9,8-25.8,10.13-39.18,1.14-7,.44-14.05.14-21.05-.78-18.14.92-35.85,8.06-52.75a68.28,68.28,0,0,1,4.25-9.34c.18-.31.54-.74.45-1-2.31-5.46.59-10.47,1.43-15.61a177.14,177.14,0,0,1,3.9-17.3c.65-2.41.76-5.41,4-6.4.52-.15.76-1.39,1-2.17,2.5-7.25,5-14.5,7.45-21.76a25.62,25.62,0,0,1,3.09-6.81c4.16-5.84,5-12.42,5.53-19.37.66-9.48,1.24-19,3.3-28.34,3.06-13.88,11.25-23.76,23.3-30.58,6.75-3.83,13.83-7.07,20.75-10.59a67.61,67.61,0,0,0,16.08-11.27c2.93-2.79,4.36-2.93,7.89-.92a2.78,2.78,0,0,0,2.84,0c3.71-1.64,6.24-4.45,8.42-8.33l-8.55,2c-1.19.26-2.48.62-3.3-.59a3,3,0,0,1,.16-3.42c1.27-2,2.59-4,3.92-6.1-4.88.29-5.92-1.21-3.79-5.72,2.3-4.85,4.71-9.65,7.31-14.35,1.22-2.19.38-2.71-1.56-2.9-2.21-.22-4.42-.41-6.62-.64-1.42-.15-2.82-.44-3.39-2s.45-2.48,1.41-3.35c3.17-2.84,6.33-5.69,9.6-8.42,1.31-1.08,1.54-1.94.65-3.46-1.76-3-3.28-6.2-4.91-9.3-.66-1.24-1.5-2.51-.34-3.84s2.7-1,4.11-.43c3.1,1.21,6.22,2.39,9.23,3.79,1.84.85,2.41.18,2.78-1.5.94-4.26.86-8.64,1.54-12.94.23-1.43.42-2.83,2.13-3.15s2.54.87,3.28,2.07c2.24,3.62,4.48,7.23,7,10.64,1.19,1.58,2,1.65,3.4.21,3-3.06,6-6,9.16-8.9,1.24-1.16,2.54-2.71,4.58-1.89s1.85,2.85,2.1,4.52.2,3.43.3,5.5c3.3-2.39,5.75-5.15,8.43-7.64.81-.76,1.58-1.57,2.41-2.31a3.3,3.3,0,0,1,3.57-.87c1.4.58,1.62,1.87,1.62,3.25,0,4.17,0,8.34,0,12.51,0,3.45,0,3.46,3.34,2.16a112.14,112.14,0,0,0,10.92-5.44c1.23-.63,2.47-1.54,3.8-.29s.77,2.53.21,3.85l-4.61,10.75c2.87-.39,5.06-1.77,7.43-2.55,1.14-.37,2.22-.93,3.35-1.33s2.18-.59,3.11.35a2.73,2.73,0,0,1,.44,3.11c-1.1,2.92-2.23,5.83-3.36,8.78,1,.48,1.7-.23,2.44-.47,1.19-.38,2.35-.74,3.36.28a2.82,2.82,0,0,1,.34,3.37,63.17,63.17,0,0,1-4.08,8.49c-3.48,5.4-3.06,11.25-2.65,17.17.14,1.94.32,3.87.35,5.81,0,1.39-.48,2.69-2.08,2.82s-2-1.17-2.28-2.35c-.85-3.51-1.64-7-2.5-10.74-1.3,1.07-1.26,2.55-1.76,3.76-.73,1.75-1.31,3.51-3.83,3.18-1.38-.18-.89,1.16-1,1.8a101.18,101.18,0,0,1-15.79,35.83,36,36,0,0,1-6.91,7.56c-2.4,1.91-4.79,2.16-7.36.36-2-1.38-4-2.73-6-4-.67-.4-1.27-1.77-2.27-.79-1.18,1.16.23,1.78.85,2.43A70.4,70.4,0,0,1,383.37,146c1,2.76,1.55,5.69,2.31,8.55l-3.16,3.84c-1.23-.84-1.22-2.22-1.48-3.46a63.13,63.13,0,0,0-13.33-27.72c-.52-.64-1.1-1.24-1.67-1.85-1.1-1.14-2-1-3,.25s-1.64,2.24-2.5,3.33-1.36,2.18-.22,3.44a2.57,2.57,0,0,1,.58,1.82c-.18,4.33,1,8.6.2,13-1.15,6.08.53,12.13.7,18.21.24,8.76,1.57,17.5.43,26.29-.44,3.39-.26,6.82-.51,10.24-.49,6.52-2.71,12.41-5.43,18.22-5,10.76-11.53,20.66-17.88,30.66a20.68,20.68,0,0,0-3.4,7.77c2.65-.55,4.79-1.79,7-2.76a4.84,4.84,0,0,1,2.92-.69c1.05.22,2,.67,1.42,2.07a3.65,3.65,0,0,1-1.13,2.16c-5.52,4.2-11.44,7.25-18.69,6.42-2-.23-3.68-1.47-5.8-1.44,1.28,2.42,3.91,2.43,6,3.35a8.88,8.88,0,0,0,9.82-1.06,31.17,31.17,0,0,1,4.43-2.79c.77-.39,1.51-1.17,2.51-.47l-2.67,6.1c-4.34,4-9.15,5.83-14.92,3.17a9.16,9.16,0,0,0-1.31-.44c-2.22-.63-2.5-.42-1.89,1.89,1.77,6.79,3.91,13.48,6.09,20.15.41,1.25.89,2.44.4,3.76-.17.51-.33,1-.49,1.53a3.33,3.33,0,0,1-2.86,1.22c-1.66,0-1.86.69-1.08,2,.6,1,1.23,2,1.87,3a5.47,5.47,0,0,0,1.79,2.43,43,43,0,0,0,9,8.53,10,10,0,0,1,4.34,6.79,3.35,3.35,0,0,0,1.92,3.75c2.82,3.18,5.59,6.39,8.57,9.41a4,4,0,0,1,1.4,3.48,3,3,0,0,0,.43,2.34,3.26,3.26,0,0,1,.65,2.52c0,.27,0,.65-.19.79-2.71,2-3.93,5.78-7.64,6.66-.36.08-.9.15-1,.43-.86,2.88-3.95,3.75-5.39,6.09a3.66,3.66,0,0,1-2.84,2,20.58,20.58,0,0,0-3.12-.76,4.19,4.19,0,0,1-1.88-.79A65.79,65.79,0,0,1,321.31,349c-3.15-3.43-5.78-7.24-6.45-12,.93-1.44.47-2.68-.57-3.83a59.79,59.79,0,0,0-5.36-18,24.13,24.13,0,0,0-1.35-2.43c-2.05-3.25-2-3.24-5.38-1.59a30.66,30.66,0,0,1-17.55,2.67c-7.14-.87-14.35-1.66-21-4.68-1.35-.61-1.87.2-2.3,1.2a79.06,79.06,0,0,0-3.09,8.32,12.43,12.43,0,0,1-2,4.52c-1.67,2-3.87,1.83-5.26-.37a7.75,7.75,0,0,1-1-2.86,47.88,47.88,0,0,0-4.54-12.48c-3-6.07-6.34-11.94-8.7-18.29-2.4-5.67-3.2-11.76-4.61-18.06a12.9,12.9,0,0,0-1.84,3.73,108.6,108.6,0,0,0-8.72,36.51,218.38,218.38,0,0,0,.13,25.2c.59,10.19-1.08,20.09-3.73,29.89-3.91,14.48-8,28.89-13.44,42.88-.6,1.55-1.52,3-1.76,4.66a564.85,564.85,0,0,0-14.79,57c-3.49,17-5.65,34.15-7.43,51.39-1,9.57-2.08,19.14-3.09,28.71-.59,5.6-.61,5.6,4.88,5.7,8.05.16,16.07-.86,24.13-.62,3.71.12,7.39.48,11.06.89,6.67.74,12.65,3.36,18.29,6.9a114.84,114.84,0,0,0,13.44,7.21c8.68,4,17.56,5.55,27,3.39a112.4,112.4,0,0,0,18.66-6.26,5.43,5.43,0,0,0,3.63-4.79,45.85,45.85,0,0,0,.43-5c0-2.87,0-5.75,0-8.62-.41-25.93.88-51.85.51-77.78-.13-8.68-.8-17.36-1.44-26-.61-8.21-1-16.43-1.75-24.63a348.84,348.84,0,0,0-6.32-42.56,6.55,6.55,0,0,1-.35-3,5.59,5.59,0,0,1,4.93-1,209,209,0,0,1,4.4,23.15c2,13.83,3.18,27.73,4,41.68,1,16.06,2.62,32.11,2,48.19-.62,15.65-.13,31.28-.49,46.9-.1,4.25,2.62,7.2,4.15,10.7.54,1.23,1.82.65,2.68.13a33.88,33.88,0,0,1,5.86-2.48c15.83-7,32.11-12.91,48.14-19.45,7.32-3,9.76-7.9,10.41-15,1-10.53-.68-20.86-1.94-31.22-3.74-31-9.43-61.69-14.27-92.52-1.79-11.44-3.56-22.87-4.79-34.38a7.86,7.86,0,0,1,.34-4.37c1.28-1.44,2.63-1.33,4-.16,1.42,1.74,1,3.9,1.18,5.87,1.56,17.5,5.35,34.67,7.86,52q.51,3.57,1.07,7.12C369.3,412.13,369.54,413.26,368.63,414.18Z" transform="translate(-67.44 -5.37)"/><path class="cls-4" d="M468.61,602c1-.07,1.92-.16,2.3,1C469.94,603.17,468.92,603.4,468.61,602Z" transform="translate(-67.44 -5.37)"/><path class="cls-5" d="M371.32,429.17a4.21,4.21,0,0,1-.45-3c.73.39.78,1.14.95,1.82Z" transform="translate(-67.44 -5.37)"/><path class="cls-6" d="M476.85,603c.14-1.18,1-1,1.8-1C478.45,603.08,477.76,603.25,476.85,603Z" transform="translate(-67.44 -5.37)"/><path class="cls-7" d="M437.54,286.69c7.33,1.4,14.93,1.25,22.06,3.9a73.55,73.55,0,0,1,20.92,12.33,2.22,2.22,0,0,1,.9,1.6c.93,9.22,4.82,17.38,9.2,25.34A131.84,131.84,0,0,0,498.84,343c7,9.78,11.07,21.09,16.45,31.71C518,380,520.5,385.4,524,390.15a44.26,44.26,0,0,1,8.59,24.75c.95,17.23.35,34.47-.39,51.65-.77,17.63-2.87,35.21-7.43,52.37a136.6,136.6,0,0,1-6.32,18.63c-2.5,5.87-1.7,11.12,1.54,16.34,2.35,3.78,2.17,4.09-2,5.45-2.65.85-5.43.89-8.13,1.42-1.11-.37-.94-1.26-.76-2.07,1.88-8.77.14-17.49-.4-26.23-.52-8.27-3.47-16.1-4.36-24.31a78.43,78.43,0,0,1-.81-10.77c.53-17.53-2.65-34.43-7.73-51.1-3-9.74-5-19.76-7.84-29.53A165.64,165.64,0,0,0,477,388a35.81,35.81,0,0,1-2.13-5.7c-2.92-13.18-6.2-26.25-12.06-38.52-2.23-4.66-4.49-9.35-5.54-14.46-1.56-7.64-1.71-15.43-1.94-23.2,0-.92,0-1.85,0-2.77,0-1.21-.23-2.35-1.61-2.51-1.64-.19-1.84,1.19-2.14,2.36a2.09,2.09,0,0,0-.06.56c.39,12.92.08,25.94,6.08,38a132.56,132.56,0,0,1,6.84,16.36A203.36,203.36,0,0,1,473,396.75c2.49,18.62,5.36,37.17,12.31,54.79,4,10.17,4.29,20.82,3.65,31.46a91.26,91.26,0,0,0,2.95,28.57,197.9,197.9,0,0,1,6.13,41.36c.43,10.17.95,20.34,1.09,30.52a6.24,6.24,0,0,1-3.17,6,91.91,91.91,0,0,1-15.75,8.1c-6.09,2.38-11.92,1.37-17.25-2a87.2,87.2,0,0,0-31.7-12.64,62.48,62.48,0,0,0-21,.25c-1.77-.64-.68-1.81-.36-2.65,2.37-6.07,3.48-12.48,5-18.77,1.38-5.76.8-11.6-.26-17.38-1.72-9.43-4.77-18.45-8.06-27.42s-6.14-18.26-7.19-27.92c-.31-2.86-1.06-5.64-1.58-8.47-1.6-8.67-1.47-17.5-2.72-26.22-1.65-11.55-3.16-23.1-6-34.47a282.84,282.84,0,0,1-6.93-41.62c-.56-5.9-1.31-11.78-1.61-17.69-.46-9.1,3.95-16,10.19-21.93,3.26-3.1,5.81-6.48,7-10.79,3.17-11.62,6.67-23.14,10.23-34.65.88-2.84,2-5.58,3-8.36.71-1.9,1.95-2.48,3.93-1.77,5.07,1.81,10.37,2.75,15.55,4.19a6.31,6.31,0,0,0,4.07-.15C435.54,286.72,436.48,286.15,437.54,286.69Z" transform="translate(-67.44 -5.37)"/><path class="cls-7" d="M341.87,323.52a24,24,0,0,0-7.15-8.17,26.38,26.38,0,0,1-6.7-6.87c0-1,.6-.91,1.26-.69a2.48,2.48,0,0,0,2.05-2c2-9.67,6.87-18.29,10.32-27.43a191.05,191.05,0,0,1,13.54-28.68c4.94-8.5,6.79-17.85,8-27.47,2.31-18.91,8.53-36.62,17.26-53.48a32.85,32.85,0,0,1,5.39-7.7c2.32-2.82,5.33-4.86,8.18-7,5.54-4.21,10.14-9.42,15.41-13.91a68.67,68.67,0,0,1,12.65-8.44c9.41-5,19.23-9.06,28.68-13.91,6.33-3.25,13-5.76,19.2-9.29.62-.35,1.29-.81,2-.16a7.89,7.89,0,0,0,3.62,7.36c11.39,7.79,16.65,19.52,21.32,31.9a50.34,50.34,0,0,1,2.94,21.09,21,21,0,0,0,.19,3.88c.15,1.19.74,2.15,2.18,2s1.53-1.17,1.54-2.26c0-3.42,0-6.84,0-10.26.12-6.71.91-13.27,4.31-19.24.72-.51.77-2,2.16-1.55,1.42,5.33.65,10.65,0,16-1.13,9.48-.6,19-1.11,28.56-1.27,23.51-3.89,46.66-11.75,69.17-5.11,14.62-11.26,28.9-15.18,44.23-3-1.81-5.49-4-8.26-5.76a61.08,61.08,0,0,0-29.73-9.55c-7.59-.46-14.84-2.9-22.23-4.52-.72-.16-1.46-.25-2.19-.37-.57-.42-1.25-.17-1.87-.29-2.43-.46-3.11-1.28-2.48-3.59q3.35-12.26,7.71-24.17a7.89,7.89,0,0,1,1.08-1.92c1.52-2.48,3-5,4.55-7.46.83-1.4,1.1-2.75-.67-3.69-.92-1.12-.4-2.31-.11-3.45,1.56-6.1,3.07-12.24,4.21-18.41,2.31-12.47,3.09-25-1.72-37.2a4.29,4.29,0,0,0-.78-1.46,2,2,0,0,0-2.69,0c-1.9,2.94-1.62,6.35-2,9.6-1,8.48-1.48,17-3.69,25.33-2.34,7.53-6.25,14.41-9,21.74C407.45,246.81,404,260,403,273.79a11.56,11.56,0,0,1-2.5,7.17c-9.45,10.77-12.74,24-15.18,37.58-.78,4.37-1.93,8.68-2.61,13-.38,2.46-1.75,3.07-3.81,3a43.92,43.92,0,0,1-14.53-3.26C358.67,329,353,326.44,347.33,324,345.59,323.3,343.84,322.07,341.87,323.52Z" transform="translate(-67.44 -5.37)"/><path class="cls-8" d="M437.54,286.69c-7.89,3.65-14.8-1.14-22-2.79-2.69-.62-3.38-.19-4.2,2.12-3.84,10.8-7.34,21.72-10.09,32.83-2.25,9.09-5.71,17-12.79,23.63-6.29,5.85-7.78,13.74-6.85,22.45,1.79,16.66,3.2,33.38,7.18,49.67a315.82,315.82,0,0,1,7.89,46.73,340.94,340.94,0,0,0,4.67,34.32c1.79,9.29,4.87,18.2,8.22,27a121,121,0,0,1,6.82,27.68,30.07,30.07,0,0,1-.74,12.14c-1.86,6.48-2.57,13.29-5.53,19.45-.21.45-.33.85.19,1.17l-9.75,1.62c-1.51.25-1.68-.42-1.31-1.72a146.56,146.56,0,0,0,5.31-26.55c.72-7.63-.54-15.11-2.58-22.44-2.65-9.55-7.32-18.35-10.36-27.77A179.14,179.14,0,0,1,384.71,473c-1.76-14.19-4-28.31-7.87-42.11-1.5-5.34-4.51-10.12-6.58-15.26-.31-.77-1.12-.94-1.63-1.45-1.18-7.93-2.24-15.87-3.56-23.78-2.32-13.91-4.95-27.77-5.94-41.87a13.52,13.52,0,0,0-.61-2.39,5.85,5.85,0,0,1-1.13-4.06c1.73-2.22,3.43-4.46,5.22-6.63.47-.58,1.19-.18,1.81,0a76.72,76.72,0,0,0,12.37,2.83c5.55.95,8.54-1.07,9.74-6.49,2.29-10.34,3.91-20.82,7-31,2.27-7.37,7-13.15,11.25-19.28.86-1.24,2.06-.82,3.26-.68,8.45,1,16.6,3.39,24.9,5.07C434.5,286.27,436.16,285.65,437.54,286.69Z" transform="translate(-67.44 -5.37)"/><path class="cls-7" d="M560.37,81c-1.56-2.51-3.36-1.28-4.91-.14a32.78,32.78,0,0,0-7.79,8.61c-5.1,7.79-10,15.7-13.52,24.41-.26.29-.37.85-1,.51-.21-1.48-.35-3.13-2.14-3.49-3.06-.61-3.75,2.4-5.84,4.32.94-5.8,1.77-11.1,2.67-16.38,1-5.54,2-11.05,2.94-16.6.46-2.78-.26-3.45-2.73-2.82A38.16,38.16,0,0,0,513.35,89.9c-1.93,2.11-2.56,1.92-3.47-.77-2.08-6.14-1.78-12.41-.67-18.64a9.1,9.1,0,0,0-3-8.95,46,46,0,0,0-11.15-8.13A24.13,24.13,0,0,0,483.9,50.6c-1,0-2.48.54-2.91-1.17a54,54,0,0,1,32-10c3,0,6.11,0,9.16,0,1.17,0,2.56.3,3.09-1.2s-.55-2.45-1.56-3.49c-1.48-1.51-3.34-2.4-5-3.68,17.27,3.44,32.63,9.17,41.65,26.43,6,11.48,8,23.18,7.63,35.72-.69.23-1.09-.14-1.42-.67a22.35,22.35,0,0,1-1-4.27C565.14,84.91,563.81,82.18,560.37,81Z" transform="translate(-67.44 -5.37)"/><path class="cls-8" d="M474.82,382.29a151.49,151.49,0,0,1,14.69,37.26c3.83,14.85,8.12,29.57,11.72,44.49,2.4,10,2.81,20.11,3,30.29A140.17,140.17,0,0,0,507.78,522a126,126,0,0,1,2.64,33.9c-.09,1.64-1.27,3.12-.59,4.82-7.75.28-7.6.28-7.91-7.28a220.83,220.83,0,0,0-7.2-46.89c-2.4-9.19-2.5-18.55-1.8-28A65.39,65.39,0,0,0,490,453.44c-2-6.23-4.47-12.34-6.15-18.66a252.05,252.05,0,0,1-5.73-29c-1-7.2-2.13-14.39-3.18-21.58C474.82,383.58,474.85,382.93,474.82,382.29Z" transform="translate(-67.44 -5.37)"/><path class="cls-9" d="M346.42,257.22c-.59-2.3-2-1.61-3.46-1-2.93,1.28-5.86,2.59-9.25,4.09a25.7,25.7,0,0,1,3.93-9.57c6.38-10.07,12.82-20.08,18.07-30.84a55.67,55.67,0,0,0,5.73-24.83c0-4.43.77-8.83.52-13.28-.58-9.94-.8-19.9-2.08-29.79a11.32,11.32,0,0,1,.43-3.81c1-4.6-.21-9.19,0-13.78,0-.53,0-1.36-.32-1.56-2.65-1.7-.83-3.16.19-4.63.69-1,1.46-1.91,2.2-2.85,2.14-2.74,2.23-2.82,4.62-.11a62.68,62.68,0,0,1,15,30.44c.16.9.38,1.8.57,2.7-13.43,19.84-20.6,42-23.34,65.56C357.75,236.26,353,247,346.42,257.22Z" transform="translate(-67.44 -5.37)"/><path class="cls-7" d="M495.37,133.74a58,58,0,0,0-11.21-16c.4-1,1.33-1.14,2.24-1.27a37.71,37.71,0,0,0,11.54-3.16c.56-.28,1.19-.57,1.72.1.93,1.39,2.1,1,3.41.61,3-.94,5-3.31,7.36-5.21.92-.74,1.93-1.38,3.1-2.21.69,1.85,1.26,3.63,2,5.34a2.31,2.31,0,0,0,3,1.34c1.2-.33,1.21-1.18.75-2.14,1.1-.78,1.89-.24,2.59.63a62.45,62.45,0,0,0-1.15,11.58c0,1.53.39,2.84,2,3.16,1.49.29,2.08-.89,2.62-2a48.31,48.31,0,0,1,3.6-6.55c0,3.26-.06,6.52,0,9.78,0,1.44-.08,3.2,2,3.36s2.24-1.54,2.61-3a108.37,108.37,0,0,1,17-36.18,55.69,55.69,0,0,1,5.81-7.35c1-1,1.73-1.37,2.34.29,1.41,3.78,2.37,7.58,1.15,11.63A141.09,141.09,0,0,1,541.42,136a2.39,2.39,0,0,1-3.17,1.15c-7.9-2.49-14.94-6.37-20.61-12.52-1-1-1.91-2.2-3.43-.79a2.28,2.28,0,0,1-2.2,1.72c-6.11.45-11,3.28-15.23,7.55C496.4,133.52,496,134,495.37,133.74Z" transform="translate(-67.44 -5.37)"/><path class="cls-8" d="M481,49.43c2.57.75,5.26.28,7.89.9C497,52.24,503.12,57.2,508.73,63c1.91,2,1.63,4.66,1.22,7.14-1.15,7-1.56,14,1.42,20.89a48.37,48.37,0,0,1,10.81-9.63,9.61,9.61,0,0,1,5.9-2c-2,3.64-1.84,7.82-2.74,11.73-.23,1-.09,2-.77,2.89-4.32-3.6-9.4-1.62-10.61,4.7a8.21,8.21,0,0,1-4,5.71l-4.6,3.17c.21-1.42.46-2.53.52-3.65.14-3.12-1.34-4.13-4.11-2.76-1.88.93-3.68,2-5.82,3.2.51-2.62,2.56-4.79,1.14-7.13s-4.29-.58-6.66-1.47a32.64,32.64,0,0,0,6.23-9.09c1.88-3.77,1.07-5-3.09-5.15-4.4-.16-8.57.9-13.27,2.32,2.39-3.13,5.28-4.85,8-6.77,4-2.88,8.64-4.57,13-6.77,4.14-2.07,4.4-4.16.93-7.26-4-3.57-8.79-5.73-13.77-7.5-2.43-.87-4.9-1.63-7.33-2.51-.83-.3-1.91-.52-1.88-1.73S480.06,49.74,481,49.43Z" transform="translate(-67.44 -5.37)"/><path class="cls-10" d="M429.7,177.29c2.57,1.49,2.82,4.25,3.34,6.68a79.23,79.23,0,0,1-.76,35.46c-1.48,6.11-2.79,12.25-4.18,18.38a3.32,3.32,0,0,0-2.59,1.88c-4.74,7.94-10.58,15.07-16.58,22.44-.53-1.12-.14-2,0-2.93,2.74-15.14,9.09-29,15.16-43,3-6.94,4.09-14.35,4.48-21.84C428.9,188.69,430,183,429.7,177.29Z" transform="translate(-67.44 -5.37)"/><path class="cls-7" d="M456.81,604.25c-2.32,5.24-6.9,5.21-11.52,4.81-7.07-.6-13.71-2.89-20.09-5.81a45.87,45.87,0,0,1-7.83-5c-3.14-2.28-3.18-2.95-1.31-6.42.48-.89,1-1.77,1.47-2.66a3.2,3.2,0,0,1,2.63-.6c7.77,1.61,15.7,2.61,22.88,6.38,2.91,1.53,5.34,3.67,8,5.54C452.89,601.87,454.9,603,456.81,604.25Z" transform="translate(-67.44 -5.37)"/><path class="cls-10" d="M472,108.3c-4.58,2.16-9.17,4.29-13.73,6.5-12.36,6-24.79,11.9-37,18.13-7.37,3.74-13.29,9.37-19.19,15.18A102.51,102.51,0,0,1,385.81,161c1.73-3.19,4.35-5.69,6.68-8.39,8.4-9.71,18.38-17.57,29.23-24.35a244.64,244.64,0,0,1,48.51-23.58c.78-.27,1.57-.48,2.52-.77C472.9,105.57,472.21,106.9,472,108.3Z" transform="translate(-67.44 -5.37)"/><path class="cls-8" d="M499.66,113.4c-4.83,2.65-10.21,3.35-15.5,4.33-2.21-2-4.51-3.81-6.61-5.86-2.44-2.38-2.27-3.51.45-5.41a7,7,0,0,0,1.94-1.54c3.2-5,8-5.82,13.56-5-1.06,2.38-2.17,4.89-3.29,7.38-.51,1.15-1,2.37.13,3.33s2.3.47,3.36-.16c2.42-1.45,4.8-3,7.53-4.64C501,108.76,498.83,110.78,499.66,113.4Z" transform="translate(-67.44 -5.37)"/><path class="cls-11" d="M329.28,298q-3-9.63-6-19.26c-.64-2.11-1.22-4.25-1.75-6.39-.32-1.32.05-2,1.59-1.45s3.17,1,4.72,1.58a9.42,9.42,0,0,0,9.17-1c1.2-.8,2.32-1.89,3.89-2C337.44,279.17,333.18,288.52,329.28,298Z" transform="translate(-67.44 -5.37)"/><path class="cls-10" d="M456.81,604.25c-2.48.22-4.13-1.34-5.75-2.82-7.27-6.64-16.2-9.4-25.6-11.1-2.63-.47-5.21-1.31-7.93-1.11,1.38-3.64,4.09-3.2,7.29-2.93,11.1,1,21.55,3.73,31.11,9.59,4,2.44,4,2.36,2.1,6.61C457.73,603.16,457.54,603.89,456.81,604.25Z" transform="translate(-67.44 -5.37)"/><path class="cls-10" d="M424.22,249c-.85,4.74-2.87,9.13-4.28,13.7-1.24,4.06-2.18,8.22-3.75,12.17-.8,2-.45,3.16,1.84,3.44.61.07,1.32,0,1.75.66-4.17,0-8.18-1.24-12.3-1.63-.67-.06-.86-.42-.81-1.13.16-2.12.24-4.24.32-6.36a2.25,2.25,0,0,1,.84-2c5-3.39,7.77-8.79,11.68-13.16C421.17,252.83,422.05,250.36,424.22,249Z" transform="translate(-67.44 -5.37)"/><path class="cls-8" d="M560.37,81c3.22-.25,4.64,1.8,5.33,4.45.63,2.38.92,4.84,1.36,7.26.6,1.21.53,2.58.93,3.84-1.1,7.43-3.84,14.38-6.38,21.38-.23.63-.23,1.61-1.33,1.38s-1.76-.7-1.59-1.87c.45-3.26-.33-6.57,1.1-9.84A82.89,82.89,0,0,0,564.48,94c1-4.26-1.15-8.06-3.2-11.69C561,81.83,560.67,81.4,560.37,81Z" transform="translate(-67.44 -5.37)"/><path class="cls-10" d="M495.37,133.74c4.54-5.19,10-8.68,17.09-8.79.95,0,1.19-.69,1.75-1.08.27,1.43-1,1.87-1.74,2.56-4.39,3.89-8.86,7.7-13.21,11.63-1.24,1.12-1.85,1.19-2.39-.49C496.44,136.27,495.87,135,495.37,133.74Z" transform="translate(-67.44 -5.37)"/><path class="cls-12" d="M353.76,340.16a21.37,21.37,0,0,0-5.05-6.4,22.52,22.52,0,0,1-4.92-6.49q6.91,2.84,13.84,5.67c1.3.52,1.75,1,.65,2.36A44.24,44.24,0,0,1,353.76,340.16Z" transform="translate(-67.44 -5.37)"/><path class="cls-13" d="M343.58,263.39a23.42,23.42,0,0,0-6.15,3.65c-3.49,2.69-7.12,3.25-11.1,1.28-.59-1.06-.87-2.12,0-3.18,5.63.72,10.53-1.26,15.22-4.08a33.07,33.07,0,0,1,3.74-1.68C345.09,260.87,344.13,262.05,343.58,263.39Z" transform="translate(-67.44 -5.37)"/><path class="cls-10" d="M521.84,111.76l-2.59-.63c-.85-.9-.89-2.11-1.18-3.21a29.2,29.2,0,0,1-.53-3.6c.15-3.4,1.25-4.93,4.29-5.94,1.51.08,2.38.32,1.89,2.36C522.86,104.36,522.45,108.08,521.84,111.76Z" transform="translate(-67.44 -5.37)"/><path class="cls-14" d="M421.34,212.22c1.2-10.32,2.37-20.65,3.64-31,.18-1.47.29-3.19,2-4-1.17,5.05-1.29,10.21-1.73,15.33a89,89,0,0,1-3.16,18.19C422,211.34,421.9,211.92,421.34,212.22Z" transform="translate(-67.44 -5.37)"/><path class="cls-15" d="M505.92,137.39c-1.8,4-3.55,7.58-4.48,11.73C498.42,142,497.37,143.85,505.92,137.39Z" transform="translate(-67.44 -5.37)"/><path class="cls-16" d="M326.46,306.21c-1.36-1.15-1.92-2.84-2.88-4.26s-.26-1.91,1.21-1.84a7.73,7.73,0,0,0,4-.56c-.46,2.06-.92,4.11-1.37,6.17C327.19,306.06,327,306.51,326.46,306.21Z" transform="translate(-67.44 -5.37)"/><path class="cls-17" d="M521.83,98.38c-1.84,1.38-3.54,2.85-3.82,5.35-1.62-1.29-.5-2.93-.56-4.42a4.93,4.93,0,0,1,.36-1c.64-1.11,1.21-2.66,2.52-2.71C522,95.52,520.87,97.65,521.83,98.38Z" transform="translate(-67.44 -5.37)"/><path class="cls-18" d="M357.39,342.08c1,1.17,1,2.65,1.13,4.06a2.82,2.82,0,0,0-3.2.1c-1,.4-.68-.65-1-1,0-.93-.07-1.85-.11-2.77C355.36,343.13,356.33,342.27,357.39,342.08Z" transform="translate(-67.44 -5.37)"/><path class="cls-19" d="M517.45,99.31c.27,1.47-.56,3.07.56,4.42l.06,4.19A10.77,10.77,0,0,1,517.45,99.31Z" transform="translate(-67.44 -5.37)"/><path class="cls-20" d="M510.22,141.18l-2.16,1.55c.06-1.3,1-2.25,1.35-3.47A2,2,0,0,1,510.22,141.18Z" transform="translate(-67.44 -5.37)"/><path class="cls-21" d="M326.46,306.21l1-.49a2.74,2.74,0,0,0,1.86,2.07l-1.26.69A3.79,3.79,0,0,1,326.46,306.21Z" transform="translate(-67.44 -5.37)"/><path class="cls-22" d="M568,96.5a5.11,5.11,0,0,1-.93-3.84l1,.57Z" transform="translate(-67.44 -5.37)"/><path class="cls-23" d="M533.18,114.34l1-.51-.66,2.11C532.85,115.35,533.12,114.84,533.18,114.34Z" transform="translate(-67.44 -5.37)"/><path class="cls-7" d="M290,375.92a282.55,282.55,0,0,1,5.79,33.31c2,15.88,2.73,31.87,3.77,47.83,1.08,16.36.71,32.75.41,49.15-.28,15.65-.11,31.3-.22,47a69.65,69.65,0,0,1-.6,11.63,4.24,4.24,0,0,1-2.62,3.55c-8.63,3.94-17.48,7.1-27,7.89-6.8.57-13.21-1.17-19.39-3.83a69.3,69.3,0,0,1-12.8-6.63c-9.65-6.81-20.53-8.92-32.05-8.89-9,0-17.94.81-26.92.59-1.58,0-2.26-.19-2.08-2.12,2.15-23.2,4.22-46.41,8-69.41a475,475,0,0,1,11.25-50.62c2-7.3,4.12-14.58,6.46-21.79,4.93-9.82,11.91-18.25,18.31-27.08,3.36-4.64,6.79-9.25,9.13-14.56,1.83-4.16,3.55-8.35,5.06-12.63a12.28,12.28,0,0,0,.72-6.81,18.88,18.88,0,0,1-.13-3.61c-.14-10.53-.27-21.06,0-31.6.19-8.6.51-17.19,1.19-25.77.06-.88-.3-2.13,1.19-2.35,2,5.27,4.74,10.22,7.25,15.26,2.6,5.21,5.13,10.43,6.22,16.23.29,1.52.68,3.28,2.71,3.35s2.57-1.6,3.06-3.08c1.35-4.12,2.74-8.22,4.49-12.19.33-.73.53-1.92,1.65-1.12,4.5,3.18,9.86,3.43,15,4.47,6.09,1.25,12.21,1.76,18.4.41a18.75,18.75,0,0,0,6.91-2.71c2.1-1.48,3.25-.68,4.3,1.09,4.09,6.92,6.86,14.28,7.36,22.39-2.2,2.15-5,2-7.71,1.85-5.52-.4-10.93-1.67-16.43-2.29a37,37,0,0,0-6.9-.14c-1.55.12-3,.71-3.36,2.4s1,2.43,2.1,3.25c1.4,1,3.41,1.05,4.37,2.76a2.85,2.85,0,0,1-.56,3c-2.79,1.56-6.16,1.92-8.62,4.2-.95.87-2,1.64-2.87,2.58s-1.82,1.8-1.08,3.12,2,1,3.23.92c1.73-.14,3.36-1,5.15-.86.57.14,1.09.35,1.16,1-1.18,2-3.66,2.35-5.2,3.93-1.17,1.2-3.38,2-2.6,4.07.7,1.87,2.82,1.81,4.56,1.89a20.77,20.77,0,0,0,5.22-.24,3.51,3.51,0,0,1,2.93.29,1.41,1.41,0,0,1,.24,1.19c-.57,1.36-1.95,1.91-2.91,2.88s-1.91,1.89-1.45,3.35a3.81,3.81,0,0,0,3.31,2.55C288.25,375.14,289.41,374.76,290,375.92Z" transform="translate(-67.44 -5.37)"/><path class="cls-7" d="M328.58,261.69a36.29,36.29,0,0,1-9.9-4.39c-.72-.45-.55-1.33-.67-2-2-12.78-4.08-25.55-5.95-38.36-2.13-14.54-4.18-29.09-6-43.67a166.48,166.48,0,0,1-1.34-19.08c0-1.34,0-2.92-1.77-2.87s-1.64,1.69-1.62,3a275.45,275.45,0,0,0,2.39,29.83c2,16.24,4.65,32.38,6.95,48.57,3,21.19,6.59,42.19,13.72,62.45a13.13,13.13,0,0,1,.28,1.46,103.65,103.65,0,0,0-58.83,5.78c-.13-.25-.35-.47-.3-.76,1.54-11.14,0-22.33.53-33.49.93-20.45.56-40.91.51-61.36,0-7.95-1.13-15.9-.95-23.83.27-12.29.39-24.62,2.38-36.81.55-3.38-.15-6.88,1-10.19a14.7,14.7,0,0,1,.66-1.53,36.13,36.13,0,0,1,13.94-12.78c7.21-4,14.66-7.48,21.95-11.28a65.83,65.83,0,0,0,16-11.33c2.12-2.09,3.33-1.91,4.51.92,2.36,5.65,5.28,11,7.95,16.5,5.48,11.24,11.58,22.23,19.56,31.79,3.81,4.57,3.17,9.25,3.67,13.94.91,8.64.52,17.38.81,26.07.49,15.41-4.13,29.13-12.17,42-3.63,5.8-7.18,11.65-10.86,17.43A40.59,40.59,0,0,0,329.63,260,3.57,3.57,0,0,1,328.58,261.69Z" transform="translate(-67.44 -5.37)"/><path class="cls-7" d="M354.3,345.27l1,1a191.3,191.3,0,0,0,2.86,26.16c2.9,17,5.39,34.14,8.22,51.18,3,17.87,5.89,35.75,8.15,53.73,1,8.07,2,16.16,2.24,24.29a43.26,43.26,0,0,1-2,15.06,9.24,9.24,0,0,1-5.38,5.9c-17.08,7.59-34.7,13.82-51.87,21.14-1.53-.28-1.1-1.48-1.09-2.41.1-13.42-.46-26.83-.6-40.24-.05-4.25-.28-8.49-.26-12.73a369,369,0,0,0-7.72-75.58,109,109,0,0,0-7.43-22.67A50.11,50.11,0,0,1,296,375a2.23,2.23,0,0,1,1.53-1.48c6.92-2.31,13.61-5.35,20.81-6.79,4.17-.84,5.59.19,6.06,4.45.2,1.75.53,3.48.66,5.24a6.73,6.73,0,0,0,1.2,3.36c.87,1.26,2,2.29,3.62,2.2s2.53-1.43,3.07-2.84a16.47,16.47,0,0,0,1.05-6.81c-.25-4.36,1.27-8.15,3.56-11.72,1.32-.49,2.56-1.09,2.83-2.68a1.33,1.33,0,0,1,1.25-1.22c.18,0,.34-.16.52-.18,2.78-.33,1.54-4.14,3.69-4.56,2.35-.46,4.3-.87,4.71-3.63.12-.83.82-.84,1.46-1A2.86,2.86,0,0,0,354.3,345.27Z" transform="translate(-67.44 -5.37)"/><path class="cls-7" d="M363.15,118.31c-2.78,4-6.07,7.7-8.48,12-.85,1.52-1.64,3.09-2.35,4.69-.49,1.12-.46,2.27.91,2.75,1.21.42,1.86-.3,2.25-1.42a2.79,2.79,0,0,1,1.25-1.93v11.09a28.12,28.12,0,0,1-5.89-7.33,322.71,322.71,0,0,1-17.22-31c-.66-1.23.37-1.61,1.09-2.1,5.22-3.55,9.31-8,10.92-14.27A2.4,2.4,0,0,1,347,88.87a5.58,5.58,0,0,0,3.83-2,1.76,1.76,0,0,0-2.16-2.78c-3.53,1.47-4.65.88-4.83-2.91a17.29,17.29,0,0,1,1.7-9.16c.56-1.07,1.32-2.33,2.7-1.94a2.64,2.64,0,0,1,2.08,3.14,4.69,4.69,0,0,0,0,.84c0,1.71-.61,3.76,1.45,4.66s3.68-.49,5.16-1.81l6.16-5.49c1.24,2.2.91,4.42,1.14,6.55.16,1.56.12,3.4,2,3.94s2.83-1,3.79-2.22c2-2.62,4-5.27,6.17-8.1,1.24,2.15,1.16,4.41,1.77,6.47.36,1.22.73,2.33,2.18,2.53s2.21-.74,2.86-1.8c2.06-3.4,3.1-7.25,4.89-11.15L391.12,75c.44,1,1.05,1.84,2.2,1.87a2.58,2.58,0,0,0,2.5-1.88c1.09-2.83,2.11-5.69,3.35-9.07,2.42,3.27,4.51,5.82,3.56,10.11-2.9,13.06-7.57,25.31-15.06,36.43a43.89,43.89,0,0,1-6.32,7.35,2.94,2.94,0,0,1-4.16.43,165.27,165.27,0,0,1-24.46-19c-1.74-1.66-2.84-3.61-2-6.21a1.91,1.91,0,0,0-1.31-2.67c-1.49-.33-1.7.85-2,2a8.91,8.91,0,0,0,2.63,9.11c.85.84,1.68,1.71,2.52,2.56,1.94,4.86,5.52,8.26,9.79,11C362.77,117.39,363.34,117.59,363.15,118.31Z" transform="translate(-67.44 -5.37)"/><path class="cls-7" d="M355.21,23.9c4.58,6.35,5.51,6.42,11.21.91,2.57-2.49,5.18-4.94,8.09-7.71.27,2.41.52,4.38.7,6.35.36,3.94,2.25,4.82,5.52,2.49s5.94-5.56,9-8.21l1.58-1.37v8.29c0,1.76,0,3.52,0,5.28s0,3.72,1.76,4.63,3.75.24,5.53-.68c3-1.56,6-3.07,9.6-4.89-1.43,3.51-2.62,6.45-3.81,9.39-.52,1.28-1.3,2.56-.18,3.9s2.68,1,4.09.5c3.14-1.08,6.26-2.23,9.62-3.43-.3,2.42-1.56,4.37-2.24,6.5-.57,1.8-2,3.65-.44,5.44s3.44.13,5.71-.26c-1.81,3.77-3.45,7.28-5.21,10.73a7.9,7.9,0,0,0-1.23,2.42c-.12.84-.44,1.26-1.46.72-1.88-1-2.94.15-3.67,1.75s-.87,3.59-2.1,5.19c-1.85-2.87-2.82-6.15-5.36-8.47-3-2.76-4.93-2.44-6.43,1.32-.71,1.8-1.3,3.64-2.06,5.79-1.21-2.49-2.25-4.71-3.36-6.89-.56-1.1-1.3-2.09-2.74-2S385.42,62.88,385,64c-1.23,3.18-2.43,6.37-3.82,10-.71-2.21-1.17-4-1.81-5.63-1.13-2.93-3.16-3.21-5.14-.79-2.13,2.62-3.74,5.66-6.37,8.3-.25-1.73-.38-3.16-.68-4.56-.89-4.11-2.6-4.89-6.26-2.93-1.37-.23-1.3-1.42-1.5-2.36-2.5-11.58-4.77-23.2-5-35.11,0-1.49-.55-2.93-.45-4.42C354.05,25.55,353.66,24.24,355.21,23.9Z" transform="translate(-67.44 -5.37)"/><path class="cls-11" d="M296.31,374.61c1.46,8.27,5.38,15.68,8.23,23.46,4,11,5.8,22.48,7.49,34,1.1,7.48,2.45,14.93,3,22.48.22,3.22.64,6.43.76,9.66q.47,11.91.71,23.83c.25,12.83.26,25.67.64,38.49.15,5.43,1,10.85-.07,16.28-.06.25.32.59.5.9-2.49,1.13-5,2.24-7.45,3.39-1.4.65-2.2.39-2.61-1.24a15.64,15.64,0,0,0-3.05-6.16,4,4,0,0,1-.78-2.85c0-14.18-.26-28.36.13-42.52.17-6.38.58-12.77.31-19.13-.5-11.61-1-23.22-2-34.8-.49-5.88-.76-11.78-1.22-17.67-.68-8.82-1.88-17.58-3-26.35-1-7.22-3-14.24-3.68-21.5C294.77,373.85,295.51,374,296.31,374.61Z" transform="translate(-67.44 -5.37)"/><path class="cls-11" d="M237.42,289.13c-.87,2.37-.77,4.89-.89,7.32-.38,8.12-.42,16.26-.7,24.39-.39,11.27.08,22.51.38,33.77.12,4.5-2.3,8.51-3.91,12.62-3.93,10-10.27,18.54-16.82,26.93a134.32,134.32,0,0,0-11.71,17.49c-.43.77-.63,1.8-1.79,1.89,2.66-7.37,5.58-14.67,7.91-22.15,4-12.85,8-25.74,10.23-39,1.2-7,.82-14.15.36-21.28a140.49,140.49,0,0,1,.25-19.67,112.34,112.34,0,0,1,2.94-20.2A128,128,0,0,1,231,270.88c.25-.56.64-1.07,1.33-2.2C234.05,275.91,234.8,282.77,237.42,289.13Z" transform="translate(-67.44 -5.37)"/><path class="cls-9" d="M269.69,134.39c-.33,6.82-1,13.61-1.83,20.39-.38,2.93-.68,5.88-.79,8.82-.26,7.58-.95,15.2-.48,22.75,1.33,21.37,1.19,42.75.86,64.12-.22,13.79-.8,27.57-.36,41.36.11,3.64.33,7.15-1.25,10.53-1.31.89-2.13,1.24-3-.81a53.68,53.68,0,0,1-3.53-15,224.11,224.11,0,0,1-1.77-31.19c0-1.27-.22-2.58.76-3.7a1.58,1.58,0,0,0,.13-1.84c-1.57-2.7-.86-5.53-.58-8.35.06-.64.18-1.28.18-1.93,0-14.69.68-29.38.7-44.08,0-10.12,1-20.22,2-30.32a99.85,99.85,0,0,1,2.94-18.23C264.92,142.42,266.28,137.9,269.69,134.39Z" transform="translate(-67.44 -5.37)"/><path class="cls-24" d="M296.31,374.61l-2.14.26c-1.2,1.09-2.78.7-4.17,1.05-1.89-.3-3.91.34-5.56-1.44s-1.95-3.3-.26-5.23a21.44,21.44,0,0,1,4.16-3.12c.17-.9,1-.95,1.58-1.31a.43.43,0,0,0,.14.06c0-.08,0-.14-.15-.12s-.13.07-.2.12a2.45,2.45,0,0,1-1.57.17c-3.48.47-6.94,1.25-10.46.4-1.45-.35-3-.65-3.42-2.4s.79-2.54,1.83-3.47a30.82,30.82,0,0,1,6.94-4.53,2,2,0,0,1,1.27-.82c-.17-.07-.25.08-.39.07-.67.24-1.41-.23-2,.23-1.8.39-3.6.78-5.41,1.15-1.47.3-2.81.1-3.64-1.29s0-2.64.95-3.7a22.9,22.9,0,0,1,12.39-6.89c1.19-1,2.44-1.33,3.26-.8a4.72,4.72,0,0,1-3.1-2c-1.51-.69-3.06-1.28-4.51-2.07s-3-2-2.62-4.09,2.11-2.67,3.9-2.95c3.78-.6,7.53.11,11.26.59,4.28.54,8.54,1.25,12.82,1.88,2.63.39,5.08-.49,7.57-1.12,2.52.87,2.2,2.13.49,3.57-2.58,2.19-5.7,2-8.71,1.73-6.44-.52-12.77-1.9-19.66-2.47,3.46,1.37,6.2,3.23,9.13,4.72a16.07,16.07,0,0,1,2.59,1.62c1.07.84,1.95,1.82,1.55,3.3s-1.75,1.76-3.08,1.81c-2.86.11-5.74-.12-8.57.57a45.71,45.71,0,0,0-5.1,1.37c4.15-1.36,8.43-1.24,12.71-1.17,1.64,0,3.31.21,3.73,2.15s-.95,3.12-2.52,3.85c-3.27,1.52-6.67,2.75-10,4.09a24.89,24.89,0,0,0-5.46,2.73c4.13,0,7.87-1.31,11.63-2.53,2.73-.88,5.4-2,8.27-2.36,1.78-.21,3.93-.72,4.85,1.52s-.86,3.45-2.34,4.51A100,100,0,0,1,294,368.3c-1.14.62-2.29,1.22-3.37,1.89,3.49.86,6.58-.56,9.65-1.72a129.5,129.5,0,0,1,16.06-5.18,19.28,19.28,0,0,1,4.66-.55c3.81,0,5.73,1.5,6.77,5.21a14.7,14.7,0,0,1,.53,3.84,20.45,20.45,0,0,0,1,5.6c1.07-1.85.83-3.42.83-4.91A22.21,22.21,0,0,1,332.42,362a3.82,3.82,0,0,1,2.27-2.28,2.51,2.51,0,0,1,2.84.84c0,.55.16,1.25-.11,1.63-2.78,4-2.75,8.51-2.81,13.07a11.66,11.66,0,0,1-1.07,4.57c-1.67,3.7-4.63,4.18-7.4,1.19a8.13,8.13,0,0,1-2-5.05c-.18-1.93-.33-3.87-.55-5.8-.34-2.89-1.11-3.44-4-2.91a80.24,80.24,0,0,0-12,3.34C303.78,372,300.05,373.29,296.31,374.61Z" transform="translate(-67.44 -5.37)"/><path class="cls-9" d="M355.21,23.9c-1.08,4,.17,8,.29,12,.33,10.71,3.06,21.1,4.88,31.6a3.37,3.37,0,0,0,.52.94l-7,6.37a8.65,8.65,0,0,1,0-4.21,7.66,7.66,0,0,0,.21-3.29c-.16-1-1.19-2.15-1.79-1.67-2.54,2-6.32-.32-8.52,2.71a17.48,17.48,0,0,0-3.52,10,2.53,2.53,0,0,0,0,.55c.63,3.13-.49,4.73-3.83,4.86A37,37,0,0,0,331,84.81c1.34-1.91,2.6-3.54,3.68-5.28.95-1.51,2.47-3,1.23-5-1.41-2.24-3.28-.57-5.5-.24l4.34-8.46c1.36-2.63,2.78-5.23,4.05-7.9,1.05-2.19.51-3.91-1.81-5-2.66-1.22-5.5-1.38-8.86-1.45,2.55-3.18,5.58-5.27,8.31-7.61,3-2.6,3.45-3.75,1.67-7.34-.61-1.23-1.16-2.5-1.78-3.73s-1.26-2.41-2-3.89c2.85.45,4.94,1.86,7.24,2.71,4,1.49,6,.6,7.25-3.59a25.72,25.72,0,0,0,1-7.36,4.24,4.24,0,0,1,.81-3.26Z" transform="translate(-67.44 -5.37)"/><path class="cls-11" d="M253.94,316.67c-2.34-8-6.3-14.9-10-21.89-4.89-9.33-6.77-19.45-8.64-29.61-.47-2.6,1.64-3.81,3.06-4.78A27.51,27.51,0,0,1,251,255.64c1.66-.18,2.65.05,2.9,2.18s.26,4.43.29,6.63c.15,12.76,1,25.42,4.72,37.73a2.7,2.7,0,0,1,0,1.88C257.25,308.16,255.66,312.27,253.94,316.67Z" transform="translate(-67.44 -5.37)"/><path class="cls-7" d="M289.88,369.69c4.11-2.3,8.23-4.57,12.31-6.92a20.42,20.42,0,0,0,3.11-2.29,2.21,2.21,0,0,0,.72-2.74c-.48-1-1.44-1.06-2.37-1a33.33,33.33,0,0,0-8.58,2.09c-4.81,1.61-9.6,3.38-15.17,3a10.85,10.85,0,0,1,4.36-2.93c3.91-1.65,7.86-3.2,11.79-4.8a15.89,15.89,0,0,0,2-.87,2.31,2.31,0,0,0,1.27-2.78c-.33-1.21-1.29-1.47-2.38-1.48-4.16-.06-8.32-.16-12.4.92a6.17,6.17,0,0,1-3.92.11,25.45,25.45,0,0,1,12-3c1.48,0,3,0,4.44,0,1.19,0,2.29-.22,2.62-1.54s-.51-1.92-1.42-2.46a101.73,101.73,0,0,0-11.48-6.11l-2.62-1.1c3.31-1,6,0,8.63.21,4.4.42,8.77,1.23,13.16,1.79a22.56,22.56,0,0,0,9.3-.95c2.2,8.34,8.16,13.9,14.28,19.34,1.1,1,2.29,1.85,3.43,2.77-.89,1.12-2.17.86-3.32.87a51.13,51.13,0,0,0-24.53,6.68,36.88,36.88,0,0,1-12.82,4.13C291.42,370.7,290.22,371.18,289.88,369.69Z" transform="translate(-67.44 -5.37)"/><path class="cls-7" d="M312,298.87c4.41-.62,6.71,1.64,8.65,5.43,3.47,6.72,8.71,12.09,14.66,16.73a9.46,9.46,0,0,1,2.75,3.43,41.3,41.3,0,0,0,9.67,13.41,9.42,9.42,0,0,1,2.66,3.51c.32.8,1.17,1.81,0,2.41a2,2,0,0,1-2.61-.94c-1.18-1.66-2.47-3.24-3.78-4.79-.83-1-1.87-2.24-3.22-1.11s-.37,2.3.45,3.38c1.92,2.51,4.27,4.73,6.06,8.37-2.66-1.08-4.33-2.11-5.44-3.93-.58-.95-1.06-2-1.7-2.86s-1.43-1.66-2.55-1-1,1.91-.37,2.91a39.75,39.75,0,0,1,3.4,7c.26.7,1.07,1.76.18,2.23s-1.86-.15-2.47-1.14c-.83-1.33-1.79-2.58-2.64-3.9a3.49,3.49,0,0,0-3.2-1.83,19.71,19.71,0,0,1-7.37-10c-1.72-5.74-3.33-11.52-5.23-17.21-1.26-3.76-3.49-6.9-5.41-10.25-1.43-2.48-2.93-4.91-4.28-7.43C309.05,299,309.3,298.73,312,298.87Z" transform="translate(-67.44 -5.37)"/><path class="cls-11" d="M254.67,196.72c.33,16.67-.15,32.73-.69,49-3.92-1.74-6.2-5.2-9.08-8-3.94-3.88-3.13-7.92-1.48-12.34,2.43-6.47,4.78-13,7-19.54C251.43,202.79,252.27,199.71,254.67,196.72Z" transform="translate(-67.44 -5.37)"/><path class="cls-11" d="M312,298.87l-2.26.24c2.49,4.16,4.77,8.14,7.22,12,4.16,6.61,5.79,14.14,7.89,21.49,1.25,4.37,2.94,8.31,6.3,11.45a11,11,0,0,1,1.38,2.05c-1.24,1.33-.89,2.53.07,3.92a21,21,0,0,1,3.43,5.89c-5.5-3.23-9.26-7.29-12.82-11.63-3.38-4.11-4.56-8.91-5.09-14-.91-8.81-4.73-16.58-8.87-24.21-1.31-2.41-2.84-4.71-4.49-7.42C307.43,298.57,309.71,297.91,312,298.87Z" transform="translate(-67.44 -5.37)"/><path class="cls-11" d="M267.45,306a104.9,104.9,0,0,1,26.64-7,4.91,4.91,0,0,0,1.1-.06c3.85-1.52,6,.29,7.88,3.51,1,1.78.94,2.57-.82,3.63-5.3,3.19-11.09,3.91-17.05,3.42a89.19,89.19,0,0,1-15.45-2.67C269.14,306.66,268.56,306.38,267.45,306Z" transform="translate(-67.44 -5.37)"/><path class="cls-11" d="M238.13,234.26c1.84,2.5,3.34,4.46,4.77,6.47,2.56,3.6,6,6.26,9.47,8.86.49.37,1.3.63,1.15,1.41-.2,1-1.16.67-1.83.75a33.92,33.92,0,0,0-18.82,8C234.45,250.86,236,242.78,238.13,234.26Z" transform="translate(-67.44 -5.37)"/><path class="cls-9" d="M324.82,548.55a10,10,0,0,1-4.44-1.07c4.08-3.44,9-4.57,13.48-6.42,5.79-2.37,11.74-4.38,17.47-6.88,3.09-1.35,5.69-.34,8.45.59.31,1.81-1,2.63-2.17,3.52-4.65,3.54-10.3,4.81-15.6,6.88-3.77,1.46-7.56,2.82-11.68,2.89A48.39,48.39,0,0,0,324.82,548.55Z" transform="translate(-67.44 -5.37)"/><path class="cls-12" d="M289.88,369.69c1.85,1,3.61,0,5.32-.4a44.4,44.4,0,0,0,12.05-4.78c8-4.4,16.73-5.59,25.69-5.6l1.75.85a19.24,19.24,0,0,0-3.84,11.86c-.06,2.43.37,5-1.27,7.27-2-1.57-1.5-3.79-2-5.66a8.92,8.92,0,0,1-.06-1.94c-.27-6.67-3.41-9-9.95-7.54A96.8,96.8,0,0,0,302,368.59a34.56,34.56,0,0,1-11.74,2.81c-.7,0-1.65.62-1.88-.34C288.25,370.37,289.09,369.84,289.88,369.69Z" transform="translate(-67.44 -5.37)"/><path class="cls-9" d="M347,88.87c-1.28,6.11-4.69,10.87-9.19,15-1.32,1.23-3.55,1.22-4.2,3.25a3,3,0,0,1-.5-.64c-1-2.28-2.83-4.63-2.67-6.83.18-2.44,3.9-2.35,5.54-4.12,1.79-1.93,4.12-3.36,5.15-6,.46-1.18,1.3-2.32,2.91-1.17C344.93,89,346,88.71,347,88.87Z" transform="translate(-67.44 -5.37)"/><path class="cls-25" d="M330.39,547.58c8-1,15.25-4.55,22.65-7.42,2.64-1,5.46-2.39,6.74-5.39a2,2,0,0,1,1.35,3c-1.41,3.19-3,5.91-7,6.7-7.15,1.4-14.08,4-21.53,3.64C331.8,548.19,330.81,549,330.39,547.58Z" transform="translate(-67.44 -5.37)"/><path class="cls-9" d="M363.15,118.31c-4-1.61-6.45-5-9.2-8a5,5,0,0,1-1.41-4.3c3.61,3,7.17,6,10.85,8.95C365.12,116.36,364,117.27,363.15,118.31Z" transform="translate(-67.44 -5.37)"/><path class="cls-26" d="M326.33,265.14v3.18c-1.47-.52-2.93-1.07-4.4-1.57-1.9-.63-2.54-1.9-2.06-4Z" transform="translate(-67.44 -5.37)"/><path class="cls-27" d="M330.39,547.58c.59.76,1.5.28,2.21.56-2.55,1-5.19.32-7.78.41A15.56,15.56,0,0,1,330.39,547.58Z" transform="translate(-67.44 -5.37)"/><path class="cls-28" d="M328.58,261.69a2,2,0,0,1,1.05-1.7C329.72,260.83,329.91,261.73,328.58,261.69Z" transform="translate(-67.44 -5.37)"/><path class="cls-24" d="M495.92,200.6q-4.05,7.88-8.11,15.75a18.86,18.86,0,0,1-1.41,2.38,1.84,1.84,0,0,1-2.47.61c-1-.52-1-1.45-.67-2.4a7.65,7.65,0,0,1,.5-1c4.83-9.13,9.85-18.17,13.87-27.72.44-1,1.16-1.7,2.39-1.3a2.43,2.43,0,0,1,1.83,3c-.6,4.68-1.2,9.35-1.7,14s-.84,9.22-1.29,13.82c-.12,1.23.07,3-1.86,2.77s-1.88-1.84-1.77-3.24c.35-4.24.8-8.47,1.2-12.71.05-.55,0-1.11.05-1.66.47-1,0-2,.18-3a6.13,6.13,0,0,0,.18-.63c0-.36-.37-.24,0-.07s-.24.5-.08.19A1.72,1.72,0,0,1,495.92,200.6Z" transform="translate(-67.44 -5.37)"/><path class="cls-29" d="M495.92,200.6c.18-.53.37-1.06.56-1.59.51-.24.69-.07.57.47-.25,1.14.14,2.38-.57,3.44C496.21,202.16,496.67,201.23,495.92,200.6Z" transform="translate(-67.44 -5.37)"/><path class="cls-30" d="M286.32,341a12.19,12.19,0,0,1,4.3,2.24l-4.47.57C286.21,342.86,286.26,341.92,286.32,341Z" transform="translate(-67.44 -5.37)"/><path class="cls-31" d="M290.27,365.12l-1.93,1c-.07-.36-.14-.72-.2-1.08.4-.51,1-.45,1.55-.54S290.41,364.6,290.27,365.12Z" transform="translate(-67.44 -5.37)"/><path class="cls-32" d="M281.87,354.53a3.16,3.16,0,0,1,2.23-.56c.54-.28.64,0,.58.46l-1.65.62Z" transform="translate(-67.44 -5.37)"/><path class="cls-33" d="M290.27,365.12l-.58-.61a1.78,1.78,0,0,1,1.93-.35A1.88,1.88,0,0,1,290.27,365.12Z" transform="translate(-67.44 -5.37)"/><path class="cls-34" d="M284.68,354.43l-.58-.46a2.21,2.21,0,0,1,2-.38C285.86,354.29,285.17,354.18,284.68,354.43Z" transform="translate(-67.44 -5.37)"/><path class="cls-35" d="M497.05,199.48l-.57-.47c.16-.5.27-1.4.89-1.11C497.83,198.12,497.51,199,497.05,199.48Z" transform="translate(-67.44 -5.37)"/></svg>