<svg id="Capa_1" data-name="Capa 1" xmlns="http://www.w3.org/2000/svg" viewBox="0 0 612 612"><defs><style>.cls-1{fill:#fefefe;}.cls-2{fill:#f49b4b;}.cls-3{fill:#3a4d64;}.cls-4{fill:#6f171a;}.cls-5{fill:#3a4e64;}.cls-6{fill:#70181a;}.cls-7{fill:#d8beb8;}.cls-8{fill:#fff;}.cls-9{fill:#fac393;}.cls-10{fill:#808697;}.cls-11{fill:#fac493;}.cls-12{fill:#fffefe;}.cls-13{fill:#fffffe;}.cls-14{fill:#fffcfa;}.cls-15{fill:#fac291;}.cls-16{fill:#fac18f;}.cls-17{fill:#f9ba82;}.cls-18{fill:#fbcda3;}.cls-19{fill:#fcd6b3;}.cls-20{fill:#7f6f6d;}.cls-21{fill:#fbfbfc;}.cls-22{fill:#d7d7de;}.cls-23{fill:#505e73;}.cls-24{fill:#646d81;}.cls-25{fill:#606b7f;}.cls-26{fill:#808698;}.cls-27{fill:#fdfdfe;}.cls-28{fill:#bcbec7;}.cls-29{fill:#c4c5ce;}.cls-30{fill:#efeff2;}.cls-31{fill:#f7f6f8;}.cls-32{fill:#3b4e64;}</style></defs><title>pose4</title><path class="cls-1" d="M269.77,612Q180.9,612,92,612c-1.94,0-2.32-.38-2.32-2.32q.09-303.67,0-607.36C89.72.38,90.1,0,92,0Q395.7.09,699.37,0c1.94,0,2.32.38,2.32,2.32q-.09,303.68,0,607.36c0,2.44-1,2.29-2.63,2.29q-207.58,0-415.17,0c-.13-1.12.82-1.16,1.46-1.35a36.24,36.24,0,0,0,9.51-4.3c1.28-.83,2.57-1.11,3.86.09a4.13,4.13,0,0,0,3.2.86,31,31,0,0,0,11.23-2.45c4.6-2.15,9.57-3.41,14-6.08,10.53-6.37,18.57-15.29,26-24.88s13.73-20.31,19.48-31.16c4.87-9.17,9.65-18.37,13.19-28.17.7-1.93,1.71-3.45,4.17-2.57,4.33,2.46,6.64,6.58,8.71,10.84.87,1.78,1.46,3.68,2.42,5.43,1.83,3.3,3.15,4,6.88,3.58a36.75,36.75,0,0,0,5.71-1.62c3-.84,4.23,0,4.48,3.16.16,2,0,4,.09,5.94.19,3.89,2.15,6.12,6,6.12a125.45,125.45,0,0,0,29.39-3.55c2.68-.65,3.4-2.3,2.65-5-.68-2.42-2.32-4.3-3.57-6.4s-1.07-2.75,1.41-3.11c1.12-.16,2.24-.29,3.35-.52,3-.63,3.74-2,2.67-4.88a35.17,35.17,0,0,0-2.67-5.31c-.6-1-1.43-2-1-3.4,5-1,7.47-4.71,9.38-8.92,5.11-11.26,9.83-22.69,14.45-34.16,5.15-12.79,11.32-25.13,16.5-37.91,1.77-4.37,3.42-8.79,5.15-13.18,1.24-3.17,1.72-3.45,5.05-3,12,1.62,23.58,5.15,35.39,7.63a115.29,115.29,0,0,0,23.26,2.75c5.52,0,6.41-1.2,4.53-6.5-4.77-13.43-9.89-26.74-14.77-40.13q-2.32-6.39-4.07-13a42.41,42.41,0,0,1,.45-22.63c.89-3.18,1.78-6.37,2.82-9.5a25.07,25.07,0,0,0-1.7-20c-1.5-3-3.13-5.82-4.68-8.74-6.08-11.46-9.46-23.81-12.1-36.43-1.92-9.18-4.68-18.09-9.53-26.22a25.76,25.76,0,0,0-14.9-11.91,64.16,64.16,0,0,0-12.92-3c-4.19-.4-4.49-.89-4.51-5.18,0-12.61,3.24-24.37,8.4-35.8,4.68-10.36,10.49-20.07,16-29.94a372.29,372.29,0,0,0,22.63-49.06c8.29-21.56,13.93-43.9,20.31-66,2.62-9.07,5.78-18,8.52-27,1.1-3.63,1.28-3.92-2.28-5.39-8.43-3.49-16.73-7.41-26.18-7.54-13.9-.19-25.76,4.7-36.09,13.82-5.72,5.06-11.27,10.35-18.3,13.67s-14.19,5.62-22,5.43a40.73,40.73,0,0,0-7.3.76c-4.06.64-6.29,3.7-7.91,7.07a54.89,54.89,0,0,0-4.66,15.4,159.08,159.08,0,0,0-1.47,18.6c-.29,7.26-2.67,13.89-5.16,20.49-5.66,15-10.09,30.46-14.85,45.79-1.66,5.32-3.56,10.55-5.15,15.89a3.13,3.13,0,0,1-1.22,1.85c-2,.78-3.69-.23-5.38-1-4.13-1.89-7.88-4.44-11.9-6.54a117.41,117.41,0,0,0-40.68-12.27c-13.64-1.65-27.34-3-41-4.19-5.95-.53-11.87-.29-17.8-.46-3.71-.1-4.28-.77-3.58-4.48.65-3.44,1.08-6.9,1.65-10.35.21-1.28.5-2.76-.8-3.65s-2.53.11-3.56.88c-6.5,4.85-12.84,9.9-18.3,16-.62.68-1.26,1.79-2.25,1.35-1.16-.51-.74-1.8-.56-2.79a65.57,65.57,0,0,1,5.46-16.93,36.6,36.6,0,0,0,2-4.37c.35-1.07.85-2.27-.26-3.14s-2.14-.1-3.06.56a47.54,47.54,0,0,0-8.18,7.79,74.41,74.41,0,0,0-10.73,15.24c-.46.89-.92,2.17-2.12,1.94s-1.07-1.65-1.2-2.61a52.54,52.54,0,0,1,1.11-19.94c1-4.32,2.2-8.59,3.51-12.84.48-1.58,1.4-3.51-.27-4.71s-3.23.4-4.43,1.47a91.86,91.86,0,0,0-18.37,23.19,61,61,0,0,0-7.94,23.15,56.14,56.14,0,0,0-.23,6.22c0,2.64,0,5.28,0,7.92,0,.91.14,2.19-.92,2.44s-1.4-1-1.89-1.76c-.9-1.38-1.44-3.48-3.54-3.1s-1.94,2.54-2.19,4.15c-1.76,11.13-.79,22.2,1.16,33.19,1.44,8.15,6.46,14.35,11.89,20.21a7.93,7.93,0,0,1,2.53,5.94c-.06,4.38,2,8.2,4.34,11.8a53.36,53.36,0,0,0,10.82,12.26c1.37,1.13,2.52,2.21,1.85,4.28-.42,1.34.42,2.55.93,3.77,3.71,8.88,10.13,15.61,17.35,21.65a89.22,89.22,0,0,1,16.74,17.91c2.23,3.25,2.25,5.91.26,9a128,128,0,0,0-8.12,15.86A84.85,84.85,0,0,0,272.74,339c-1.61,12.77-4.83,25.2-7.8,37.68-2.46,10.33-3.16,20.86-4.1,31.39-1,11.46-1.36,23-2.11,34.41a117.9,117.9,0,0,0-.05,11.89c.17,4.83-.79,9.59-.67,14.41a5.15,5.15,0,0,1-1,3.2c-.89.77-1.77.3-2.64-.05-6-2.4-9.85-7.09-12.89-12.56-.76-1.37-.3-2.32,1.1-2.93a20.5,20.5,0,0,0,4.44-2.46c.44-.33,1-.66.76-1.35a1.32,1.32,0,0,0-1.17-.67c-4.31-.46-8.49-.11-12.28,2.21a3.55,3.55,0,0,0-1.75,4.37c1.54,4.67,2.25,9.54,3.62,14.25.35,1.21.59,3.09,2.24,2.75s1-2.13.84-3.37c-.26-2.52-1.41-4.9-1.29-7.5.13-.57.32-1.11,1-1.26,1.14.51,1.49,1.67,2.07,2.61a25.79,25.79,0,0,0,10.82,9.66c1.65.81,3.59,1.26,4.73,2.94.23,6,.51,12.09-3.88,17.08a4.38,4.38,0,0,0-.33.46c-1.61,2.34-2.88,4.85-1.37,7.62s4.58,3.08,7.42,3a40.48,40.48,0,0,0,5.88-.7c9.2-1.54,18.45-2.51,27.75-3.19a28.22,28.22,0,0,0,6.36-1.26c4-1.26,6.17-4.34,7.77-8,2.28-5.27,4.18-6.16,9.81-4.91a6,6,0,0,1,1.6.51c1.23,1.31.09,2.25-.57,3.18q-10.32,14.5-21.86,28.08a314.38,314.38,0,0,0-33.41,47.95c-2,3.55-2.06,7.4-1.28,11.23s.87,3.92-3.17,4.12c-2.13.11-3.56.66-2.88,3.22.41,1.56-.7,1.79-1.78,1.83a57.57,57.57,0,0,0-5.88.73c-3.06.4-3.8,1.5-2.78,4.35.49,1.4,0,2-1,2.84-2.42,2.09-2.28,3.41.58,4.79,2,1,3.74,1.6,2.3,4.5-.76,1.54.87,2.84,3.5,2.9a78.22,78.22,0,0,0,15.21-.7C268.08,607.61,269,608.34,269.77,612Z" transform="translate(-89.72 0)"/><path class="cls-2" d="M269.77,612c-1.3-3.58-3.92-3.49-7-2.8-4.54,1-9.19.74-13.8.58a4.14,4.14,0,0,1-3.83-2c-.86-1.59-.07-2.87,1.1-4.1-1.85-1.33-4.68-1.28-5.61-3.58-1.26-3.12,1.7-3.64,3.45-4.84-2.71-3.7-1.83-5.85,2.68-6.46,2.32-.31,4.66-.51,7.18-.78-.66-1.77-1.6-4,1-4.73,1.72-.5,3.71-.1,5.74-.1-.57-2.83-1.4-5.21-1.31-7.95a18.12,18.12,0,0,1,2.71-8.74A344.3,344.3,0,0,1,301.42,512c6.16-7,11.16-14.93,16.71-22.42.1-1.77,1.45-2.87,2.27-4.26a9.68,9.68,0,0,0,1.24-2c4.66-8,9.37-15.92,13.68-24.08a200,200,0,0,0,16.54-44.39c1.79-7,4.11-13.92,5.61-21a61.7,61.7,0,0,0,2.23-7c5.21-18.59,13.53-35.95,21.08-53.61,2.94-6.12,7.05-11.56,10.22-17.55,1.65-3.12,1.75-5.67-.39-8.57a81.17,81.17,0,0,1-6.56-10.86,51.42,51.42,0,0,1-5.25-18.93c-.59-3.17-.46-6.41-1-9.59a115.65,115.65,0,0,1,.71-20c.8-6.83,1.11-13.73,2.59-20.46a84.24,84.24,0,0,1,20.67-39.95c6-6.48,10.72-13.6,13.37-22.05.63-1.41.89-3,2.16-4.1,3-9.24,6.11-18.44,8.88-27.74,4.08-13.64,8.5-27.17,13.53-40.49,2.64-7,3.53-14.2,3.75-21.6a79.06,79.06,0,0,1,4.3-25c2.69-7.46,7.19-11.83,15.62-11.64,15.31.36,27.8-6.13,38.78-16.37,7.28-6.79,15.22-12.79,25.24-15,10.19-2.22,20.33-2.56,30.21,1.76,4.21,1.84,8.55,3.4,12.83,5.07,1.92.75,1.44,2.14,1,3.53-2.27,7.18-4.58,14.36-6.83,21.55C559.1,53,554.85,71.08,549.1,88.74a398.49,398.49,0,0,1-36.35,80.82c-7.1,11.92-13.24,24.38-16.18,38.11a81.55,81.55,0,0,0-1.48,17.72c0,1.51.57,1.93,2,2,4.82.3,9.41,1.67,14,3,8.14,2.35,13.74,7.47,17.59,14.88,4.75,9.14,7.25,19,9.36,29a123,123,0,0,0,13.05,35.41c3.1,5.48,6.15,11.09,5.76,17.77A39.3,39.3,0,0,1,554.11,339c-4.72,12.47-3.91,24.69.72,37,5.58,14.82,10.94,29.72,16.35,44.61,1.85,5.1.62,6.81-4.81,6.78-12.92-.08-25.44-2.72-37.82-6.1-7.56-2.06-15.32-3.06-23-4.65-1.4-.29-2,.28-2.49,1.52-10.92,28.34-24,55.77-35.33,83.92a61.91,61.91,0,0,1-3.51,6.76c-1.68,3-4.1,4.89-7.71,4.83-1.54.91-3.23.48-4.86.53A103.59,103.59,0,0,1,422.86,508a18.52,18.52,0,0,0-9.41-1.2,18.9,18.9,0,0,0-4.94,1.37c-2.19.6-4.25,1.56-6.38,2.33a41.38,41.38,0,0,1-6.83,1.8c-1.82,0-3.64.59-5.46,0-1.88-.43-2.57.57-3.24,2.21-8.64,21.2-19.09,41.43-32.91,59.77-6.6,8.76-13.89,16.87-23.09,23.1-4.91,3.33-10.39,5.24-15.75,7.54a39.94,39.94,0,0,1-13,3.14c-1.52.11-3.09.1-4-1.5-.45-.8-1-.77-1.6-.3-3.73,2.78-8.08,4.2-12.4,5.7Z" transform="translate(-89.72 0)"/><path class="cls-3" d="M417.34,161.13a12.29,12.29,0,0,1-1.47,3.87c-2.4,1-4.34-.41-6.27-1.37a58.18,58.18,0,0,1-6.73-3.93c-15.46-8.7-32.15-13.35-49.72-15-11.54-1.07-23-2.55-34.56-3.69-6.39-.63-12.82-.19-19.22-.21a2,2,0,0,0-2.2,1.77c-.79,4.88-1.31,9.77.41,14.54,1.33,3.69,2.85,4.47,6.71,3.89a41,41,0,0,1,7.91-.18,4.93,4.93,0,0,1,4.9,3.59c.71,2.36-.9,3.7-2.55,4.87s-3.72,2.23-5.54,3.42c-1.15.76-1.48,1.48.07,2.16a7.39,7.39,0,0,1,2.13,1.37c1.92,1.79,2.1,3.64,0,5.29-1.71,1.37-1.71,2.65-.91,4.39,4.55,9.94,6.06,20.58,7.08,31.32.28,2.95-.83,4.5-3.85,5.86-3.19,1.43-3.23,1.45-1.87,4.74,3.64,8.78,9.54,16,15.83,22.95,3,3.28,6.34,6.2,9.07,9.71.66.72,1.33,1.45,2,2.12,2.39,2.26,4.34,4.91,6.37,7.17a46.4,46.4,0,0,0-3-7,32.79,32.79,0,0,0-4.48-6.8,65.74,65.74,0,0,1-4.92-6.51c-2.65-4.2-5.91-8.05-7.3-12.95-.22-1.5-.16-3,1.58-3.46s2.91.6,3.59,2c3.42,7.2,8.2,13.5,12.91,19.88a38,38,0,0,1,8,22.55,4.8,4.8,0,0,0,1.74,3.4c3.87,4,8,7.7,11.52,12.06,2.36,3,2.49,4.57.13,7.5a26.36,26.36,0,0,1-4.23,4.15,2.73,2.73,0,0,0-1.1,3.21c3.39,10.89,2.69,21.75-.15,32.61-.85,3.29-1.48,6.63-2.35,9.91a252.69,252.69,0,0,0-3.63,25.39,41.77,41.77,0,0,0,.58,10.41c.44,2.59.76,2.77,3,1.66.42-.2.82-.46,1.24-.67.7-.33,1.39-.8,2.16-.16a29.19,29.19,0,0,1-2.12,6.72c-1.81,2-4.12,2.17-6.48,1.49s-2.9-2.76-3.26-4.88c-1.6-9.15-.42-18.24.7-27.32a137,137,0,0,1,2.68-14.75,4.63,4.63,0,0,0-.12-3.05c-3.26-7.24-6.9-14.26-11.88-20.5-2-2.55-2.19-2.56-5.11-.82-3.33,2-6.71,3.85-10.05,5.78a20.63,20.63,0,0,1-9.89,3.08,6.06,6.06,0,0,1-5.54-2.78,146.47,146.47,0,0,1-11.37-18.89c-2-3.58-3.51-7.46-6.29-11.14-2.6,5.5-5.68,10.32-8,15.57a99.76,99.76,0,0,0-7.43,27.78,248.37,248.37,0,0,1-6.71,32.4c-2.83,10.64-3.56,21.53-4.6,32.42-1.07,11.27-1.43,22.56-2.09,33.84-.29,5-.11,10-.08,15,0,4.16-.7,8.26-.75,12.41a9.06,9.06,0,0,1-.91,4.12c-1.86.71-3.38.47-4.26-1.54,1-8,1-16,1.19-24,.55-20.84,1.58-41.66,4.46-62.32,1.47-10.57,4.9-20.73,6.93-31.19,1.36-6.93,2.21-14,3.52-20.91,2.26-12,7.11-23.07,13.36-33.43,2.78-4.61,2.93-8-.47-12.37A95,95,0,0,0,270.36,272c-7.81-6.35-14.19-13.77-18-23.21-.35-.86-1.27-1.86-.76-2.62,1.57-2.35-.44-3-1.66-4.05-5.87-5.17-10.79-11.07-13.82-18.36a14.83,14.83,0,0,1-1.26-7.46,2.39,2.39,0,0,0-.76-2.26c-.35-.32-.62-.72-1-1-10.62-10-14.27-22.59-14.53-36.77a128.34,128.34,0,0,1,.72-18.61,10.15,10.15,0,0,1,.65-2.74c1.06-2.47,3.49-2.72,5.07-.52a19.87,19.87,0,0,1,1.2,2.23,5.62,5.62,0,0,0,1.53,2c0-.86.06-1.72,0-2.57-1.53-20,6-36.67,18.47-51.59a80.18,80.18,0,0,1,9.26-9.53c1.4-1.2,3-2.35,4.83-1.18s1.11,3,.67,4.66c-1.5,5.44-3.3,10.8-4.37,16.37a63.55,63.55,0,0,0-.37,19.76c1.29-.05,1.3-1.18,1.68-1.92,4.45-8.81,10.78-16.1,18.12-22.59a14.25,14.25,0,0,1,2.29-1.64,2.6,2.6,0,0,1,3.17.09,2.46,2.46,0,0,1,.51,3.11c-1.26,2.95-2.61,5.86-3.92,8.78a58.83,58.83,0,0,0-4.43,16.58,110.26,110.26,0,0,1,19.1-17.44c1.74-1.3,3.49-3.58,5.93-2.07s1,3.92.73,6c-.52,3.54-1.08,7.09-1.79,10.6-.37,1.81.16,2.26,1.94,2.25,6,0,12-.27,18.09.16,8.83.63,17.6,1.88,26.42,2.61,9,.75,18,1.5,26.87,3.53,13.09,3,25.69,7.35,37.1,14.67A24,24,0,0,0,417.34,161.13Z" transform="translate(-89.72 0)"/><path class="cls-4" d="M368.61,108.61c4.75-2.49,9-4.59,13.55-5.75,1.73-.43,4.13-1.33,5.08.08,1.2,1.8-.58,3.7-1.93,5.16-6.13,6.66-13.73,11.15-22.05,14.41-4.05,1.59-7.11.07-8.65-3.91-2.82-7.27-3.55-15-4.91-22.61a3.15,3.15,0,0,1,1.81-3.78c1.66-.67,2.93.17,4,1.27a19.84,19.84,0,0,1,4.78,8.54c.38,1.22.73,2.45,1.2,4.08,7.1-24.51,15.13-48.17,23.59-71.7.6-1.68,1.32-3.32,2.06-4.95a2.36,2.36,0,0,1,2.93-1.6c1.38.37,1.5,1.58,1.54,2.72.1,3.07-.81,6-1.63,8.87-6.36,22.57-13.35,44.94-20.74,67.19C369.14,107.06,369,107.49,368.61,108.61Z" transform="translate(-89.72 0)"/><path class="cls-5" d="M451.33,513.4l5.21.2a50.24,50.24,0,0,1,4.32,7.92c1.48,3.84.37,5.71-3.62,6.21l-5,.63c1.16,1.79,2.17,3.34,3.19,4.89a11.66,11.66,0,0,1,1.78,3.81c.73,3.27-.15,4.82-3.4,5.62a134.41,134.41,0,0,1-20.35,3.09c-2.53.23-5.06.53-7.59.56-6.18.06-8.45-2.28-8.48-8.55,0-1.79,0-3.58,0-5.37s-.55-2.58-2.52-1.79a43.26,43.26,0,0,1-5.92,1.86c-4.43,1.09-6.36.13-8.53-3.9-1.52-2.82-2.18-6-3.92-8.73a27.38,27.38,0,0,0-6.62-7.56,12.2,12.2,0,0,1,5.36-.58c3.69,2.06,5.24,5.76,7,9.27.75,1.52,1.25,3.16,1.92,4.72.91,2.16,2.3,2.71,4.5,2a97.42,97.42,0,0,1,13.33-3.79,43.4,43.4,0,0,1,13-.36c6.35.81,12.61,0,18.91-.19,1.71-.06,2.21-.85,1.4-2.38-.93-1.75-1.94-3.45-3-5.15A2.8,2.8,0,0,1,451.33,513.4Z" transform="translate(-89.72 0)"/><path class="cls-5" d="M320.77,485.65l-2.64,3.9c-2.62-.11-5.22-.68-7.87-.26-1.23.19-1.95.53-2.3,1.91-2.06,8.07-7.47,12.06-15.66,12.5-10.9.58-21.67,2.33-32.48,3.74a14.85,14.85,0,0,1-4.21,0c-5.6-.91-8.34-5.75-4.77-10.05,4.77-5.78,5.07-12.26,5.34-19a3.61,3.61,0,0,1,4.49,1.68,8.85,8.85,0,0,1-.09,3.9c-.44,3.27.28,4.54,3.48,5.37a28.2,28.2,0,0,0,9.45.87,172,172,0,0,0,17.26-2.33c6.22-.94,12.33-2.46,18.57-3.32,3.59-.49,7.1.39,10.64,0C320.47,484.76,320.89,485,320.77,485.65Z" transform="translate(-89.72 0)"/><path class="cls-6" d="M260.18,479.89c-1.19-.88-2.66-1.05-4-1.53-7.54-2.79-13.7-7.19-17.12-14.77-.79,0-.83.11-.47,1.11.52,2.58,1.16,5.14,1.54,7.74.24,1.57,1,3.73-1.37,4.26-2.11.49-2.49-1.56-3-3-1.7-5.08-2.21-10.48-4-15.55a3.4,3.4,0,0,1,1.5-4.21,18.77,18.77,0,0,1,14.84-2.44c1.95.49,1.82,1.35.49,2.41a23.61,23.61,0,0,1-5.9,3.26c-.68.27-1.55.37-.88,1.51,3.55,6.06,7.83,11.29,15,13.34,1.18,1,2.66,1.16,4.07,1.55a3.9,3.9,0,0,1,3,.13,50.78,50.78,0,0,0,21.92,1.57c1.38-.19,2.81.07,4.17-.34a22.91,22.91,0,0,1,3.58-.53,2.43,2.43,0,0,1,2.46,1.48,2.31,2.31,0,0,1-.74,2.76c-1.6,1.56-3.74,2-5.76,2.65-8.66,2.21-17.34,2.62-26.05.22A5.89,5.89,0,0,1,260.18,479.89Z" transform="translate(-89.72 0)"/><path class="cls-7" d="M238.59,464.7c-.51-.67-.89-1.54-.33-2.15.28-.3.71.52.8,1C238.9,464,238.74,464.33,238.59,464.7Z" transform="translate(-89.72 0)"/><path class="cls-8" d="M472.48,38.1c11.75-1.74,21.74-7.08,30.43-15,5-4.59,10.14-9.09,16.25-12.18,11.63-5.9,23.68-7,36.08-2.63,3.63,1.29,7.21,2.72,10.83,4.06a1.72,1.72,0,0,1,1.2,2.59c-10,27.67-16.26,56.5-26,84.26-8.85,25.2-20.65,48.92-34,72-6.57,11.32-12.26,23.21-14.7,36.26a104.08,104.08,0,0,0-1.11,25.92c.61,9.59.93,19.2,1.37,28.81a7.3,7.3,0,0,0,.61,3.3c.53,1,1.3,1.71,2.51,1.26a1.94,1.94,0,0,0,1.2-2.3c-.12-1-.2-2.05-.3-3.08a4.14,4.14,0,0,1,1.84-2.09c7.51-4.46,14.86-9.22,22.94-12.65.95-.4,1.93-.85,3-.2,5,8.78,7.36,18.48,9.43,28.23a130.52,130.52,0,0,0,12,34.23c-3.2,1.31-4.25,4.78-6.78,6.77-1.42-.1-2.26.82-3,1.78-4.4,5.48-10.36,9.71-13.15,16.49-.69,1.67-2.34,1-3.52.9a194.6,194.6,0,0,1-29.6-4.09c-14.67-3.17-28.86-7.9-43.07-12.59a80.61,80.61,0,0,0-17.35-3.66,6.12,6.12,0,0,1-3.36-2.42c-4.91-6.06-9.2-12.62-14.91-18.06-3.18-3-4.73-7.15-5.9-11.43-2.6-9.52-3.55-19.27-4.35-29-.29-3.59.31-7.17.68-10.71a109.81,109.81,0,0,1,16.08-47c6.81-11,14.7-21.27,20.69-32.75,4.69-9,10.51-17.5,13.27-27.44a117.08,117.08,0,0,0,3.57-22.88c1.15-15.2,1-30.53,4.39-45.52a30,30,0,0,1,1.18-4.37c2.85-7.18,5.43-14.46,8.79-21.43C470.24,40,471,38.72,472.48,38.1Z" transform="translate(-89.72 0)"/><path class="cls-8" d="M389.72,490.68c-7.31,30.06-21.65,56.72-39.62,81.56a97.38,97.38,0,0,1-17.77,18.91,60.25,60.25,0,0,1-19.06,10.21c-1.06.35-1.77.77-2.33-.79-4.18-11.5-13.36-17.08-24.42-20.27-3.43-1-6.95-1.65-10.43-2.46-1.55-.83-.51-1.79,0-2.51,5.66-7.78,10.37-16.22,16.19-23.87,8.17-10.75,15.39-22.15,23.08-33.22,10.12-14.55,19.55-29.57,28.77-44.72a55.63,55.63,0,0,1,8.46-10.15c6.81-6.82,14.63-12.82,18.83-21.95,2.91-6.35,4.84-12.85,4.59-19.92-.62-17.52,1.72-34.79,4.68-52a13.39,13.39,0,0,1,.83-2.7c5.49-13.75,10-27.86,16.18-41.35a26.1,26.1,0,0,0,2.12-8.75c.08-1.08-.26-2.75,1.85-2.3,8.67,2.4,17.63,3,26.5,4A80.8,80.8,0,0,1,445,321.78c18.32,6.13,36.7,12,55.83,15.13,6.05,1,12.16,1.26,18.25,1.8,1.37.13,1.85.42,1.32,1.85-6.08,16.31-9.32,33.37-13,50.3-3.53,16-9.56,31.18-16.17,46.08-9,20.33-17.48,40.9-26.22,61.35-.62,1.47-1.5,2.82-2.26,4.23-2.69,1.54-4.72-.24-6.66-1.54a47.77,47.77,0,0,0-19.5-7.83,57.63,57.63,0,0,0-29.17,3.28c-.62.23-1.2.55-1.83.77-4.37,1.54-5.65.65-5.85-3.91a93.23,93.23,0,0,0-1.34-10.66,43.28,43.28,0,0,1-.74-8.95,18.83,18.83,0,0,1,.86-5.82c.1-.26.09-.56.2-.82.9-2.15-3.78-2.76-1.33-5.67,1.6-1.91,0-4.52-.44-6.78s-1.09-4.56-1.7-6.82c-.31-1.14-.85-2.25-2.31-1.87-1.62.41-1.45,1.69-1.16,3,.72,3.07,1.42,6.15,2.29,9.91-2.63-2.07-3.5-4.52-5-6.45s-2.64-1.88-3.83.35a6,6,0,0,0,0,4.65c1.75,5.64,4.48,11,5.07,17C390.78,479.81,391.33,485.27,389.72,490.68Z" transform="translate(-89.72 0)"/><path class="cls-8" d="M356.31,350.17c1.91-9.39,4.9-18.59,4.6-28.36a52.5,52.5,0,0,0-2.39-14.15,2.54,2.54,0,0,1,1.07-3.26,46,46,0,0,0,4.86-4.71c1.81-2,1.77-3.94-.14-6-4.19-4.47-8.25-9.07-12.84-13.15a2.75,2.75,0,0,1-1-2.8,25.07,25.07,0,0,0-1.82-11.06,45.74,45.74,0,0,0-7.53-13.5,79.88,79.88,0,0,1-11.48-18.06c-.55-1.24-1.36-2.2-2.81-1.68-1.74.61-1,2.17-1,3.41a75.53,75.53,0,0,0,9,18.65c1.08,1.6,2.7,2.95,2.66,5.13-.17.44-.4.78-.95.61-8.73-9-17.73-17.78-23.66-29.05a29.82,29.82,0,0,1-1.33-2.8c-.72-1.74-2.19-3.68-1.84-5.2s3-1.44,4.63-2.13c2-.87,2.44-2.43,2.29-4.38-.83-11.16-2.65-22.09-7.34-32.35-.82-1.79-1.45-3,1.15-4.05,2.23-.86,2.23-3.25.15-4.69a35.77,35.77,0,0,0-4.63-2.35c1.44-2.05,3.83-2.82,5.8-4.14,1-.68,2.17-1.17,3.15-1.9,2.63-1.94,2.27-4.89-.77-6.16-2.81-1.18-5.78-.68-8.66-.41-6.24.58-8.77-1.21-9.63-7.35-.6-4.34,0-8.66.58-13,.24-1.8,1.5-1.33,2.55-1.35A206,206,0,0,1,328,141.22c10.37,1.32,20.81,2,31.16,3.44,15.6,2.14,30.57,6.4,44.21,14.58-2.86,7.08-4.06,14.84-8.62,21.23-3.07,3.28-4.27,7.66-6.6,11.38a64.15,64.15,0,0,0-4.13,8.3c-.79,2.78-2.49,5-4.07,7.39-4.07,6-8.82,11.55-12.21,18a6.29,6.29,0,0,1-1.28,1.5,8.77,8.77,0,0,0-1.26,1.71c-1.81,11-.35,21.79,2.47,32.46,2.39,9.07,6.15,17.62,9.73,26.24s6.49,17.4,5.7,26.86c-.52,6.27.15,12.67-1.73,18.81-2.4,6.76-5.47,13.23-8.4,19.76-4.13,9.22-7.48,18.74-11,28.21-.72,1.94-.69,4.1-1.77,5.93l-1.65.56c-1.42-.66-1.48-2.08-1.79-3.32-2-8-2-16.18-1.12-24.34A86.25,86.25,0,0,0,356.31,350.17Z" transform="translate(-89.72 0)"/><path class="cls-8" d="M289.7,480.55c1.5-.92,3.38-1,4.77-2.19.72-.6,1.58-1.25,1.15-2.29s-1.47-1.21-2.59-1a30.46,30.46,0,0,1-3,.42c-1.12-.18-1.52-1-1.71-2a10,10,0,0,1-.16-2c0-18-1.18-36-.5-54a239,239,0,0,1,4.55-38.42c2.57-12.67,4.38-25.47,4.35-38.42,0-5.36-.52-10.72-.51-16.09,0-3.41.52-6.77.82-10.14.12-1.28,0-2.91,1.79-3.44A166.48,166.48,0,0,0,309.41,329c2.18,3.2,3.6,3.77,7.42,2.92a24.83,24.83,0,0,0,7.11-2.66c4-2.3,8.05-4.5,11.93-7,1.71-1.1,2.47-.71,3.61.71,5.49,6.8,9.45,14.47,13.17,22.31a3.85,3.85,0,0,1-.06,2.72c-2.58,12.19-4.61,24.44-4,37,.08,1.69.29,3.38.53,5,.83,5.85,3.17,5.2,8,4.08a10.11,10.11,0,0,0,1.06-.35c-1,6-3.15,11.62-4.59,17.47-4.38,17.72-10.11,34.94-19,51-4.12,7.41-8.16,14.88-12.8,22a2.7,2.7,0,0,1-1.67.77c-3.21,1.22-6.5,0-9.75.29-6.64.58-13,2.6-19.63,3.27-1.77.45-1.82-.91-1.85-1.95A16.17,16.17,0,0,1,289.7,480.55Z" transform="translate(-89.72 0)"/><path class="cls-9" d="M472.48,38.1A23.35,23.35,0,0,0,468.64,45c-3,8.69-7.74,16.77-9,26.07-1.11,8-2.29,16-2.63,24.1-.58,14-1,28.05-4.88,41.67-2.1,7.32-6.28,13.67-9.65,20.4-7,14-16.52,26.53-24.62,39.9a109.88,109.88,0,0,0-14.58,39.47c-2.63,15.89-.81,31.28,3,46.64A21.1,21.1,0,0,0,412.2,294c6,5.44,10.06,12.42,15.23,18.5a12.7,12.7,0,0,0,2,1.94c-7.71-.93-15.45-1.74-23.14-2.81-5.33-.75-9.6-3-12.49-8.07-4-7-8.67-13.62-9.59-21.8s-2.13-16.48-1.44-25c.79-9.64,1.05-19.35,3.09-28.82a79.24,79.24,0,0,1,16.51-34c5.62-6.82,12-13.09,15.27-21.55s6.16-17.4,8.89-26.21c5.26-17,10.26-34.08,16.53-50.74a57.67,57.67,0,0,0,4-18.08c.37-8.69.47-17.5,3.25-25.93.18-.53.33-1.08.5-1.61,3.14-9.54,5.5-11.26,15.49-11.26A26.45,26.45,0,0,0,472.48,38.1Z" transform="translate(-89.72 0)"/><path class="cls-9" d="M401.68,314.41c-.6.15-1.05.44-1,1.13.11,6.89-3.19,12.77-5.83,18.75-4.86,11-8.47,22.39-12.71,33.58-2,5.27-2.16,11.23-3.07,16.9a207.76,207.76,0,0,0-2.22,35.51c.16,14.2-5.09,25.87-15.61,35.54a118.18,118.18,0,0,0-21.92,26.74C330.1,498,320,512.93,309.77,527.78c-9.12,13.28-18.91,26.11-27.45,39.79-1.85,3-3.94,5.76-6,8.59-.42.57-.85,1-.26,1.68-3.35-.9-6.72-1.73-10-2.74-2.84-.87-3.21-1.66-1.7-4.33A347.49,347.49,0,0,1,284.2,539.9c10-14,21.95-26.52,32.1-40.45,7.29-10,13.49-20.64,19.67-31.32,10.77-18.61,17.24-38.82,22.58-59.5,6.72-26.08,15.72-51.3,28.63-75.05,3.23-5.94,6.11-12.1,8.85-18.29,1-2.19,1.83-2.73,3.84-1.51C400.39,314.1,401.21,313.79,401.68,314.41Z" transform="translate(-89.72 0)"/><path class="cls-9" d="M539.17,315.6c1.78-2.74,2.63-6.42,6.78-6.77a62.07,62.07,0,0,1,4.51,8.58,68,68,0,0,1-3,27.94c-.61,3.62-1.55,7.17-2.32,10.76-2.17,10.18-1.22,20.26,1.12,30.26a130.84,130.84,0,0,0,9.57,27.74c1.63,3.34,4.36,5.86,6.11,9.07-7.81-.19-15.44-1.71-23-3.51-10.3-2.45-20.52-5.23-31-6.66-1.2-.16-2.75-.16-2-2.32,4.94-13.94,7.11-28.58,10.65-42.87,2.3-9.31,4.91-18.53,8.12-27.56a39,39,0,0,1,9.68-15.52c1.83-1.74,3.4-3.76,5.11-5.64C540.59,317.83,540.81,316.65,539.17,315.6Z" transform="translate(-89.72 0)"/><path class="cls-10" d="M394.29,180.22c3-4.82,4.8-10.15,6.37-15.55a12.62,12.62,0,0,1,2.75-5.43c4,2.25,7.73,5.1,12.46,5.76a47.82,47.82,0,0,1-12.24,21.29c-9.8,10.19-16.26,22.28-20.48,35.63-2.31,7.28-2.81,14.93-3.59,22.5a157.59,157.59,0,0,0-1.05,23.09c-1.94-.16-2.19-1.91-2.74-3.18-4.47-10.32-7.43-21-7.15-32.36.06-2.34-.31-4.29-2.68-5.33.41-.35,1-.61,1.21-1.06,3.72-7.8,9.74-14.07,14.23-21.35.82-1.34,1.41-2.82,2.11-4.24,1.77,1.95,2.22,2,3.34-.2,2.68-5.27,5.42-10.51,8.33-15.65C396.11,182.47,395.57,181.31,394.29,180.22Z" transform="translate(-89.72 0)"/><path class="cls-9" d="M397.62,473.68a138.36,138.36,0,0,1,2.86,20c.23,3.79,1,4.36,4.65,2.79a63.89,63.89,0,0,1,9.62-3.12A52.42,52.42,0,0,1,453,498c2.56,1.34,4.38,3.91,7.48,4.36a7.86,7.86,0,0,0,2.21.21c-1.45,5.5-3.33,7.26-8.78,6.78-9.32-.82-18.67-1.66-27.5-5.25a28.11,28.11,0,0,0-9.86-2.11,29.62,29.62,0,0,0-11.51,2.32c-4.55,1.74-9.1,3.43-14.11,3.63-2.05.07-1.76-.42-1.29-1.76a166,166,0,0,0,6.6-25.61C396.68,478.23,397.16,476,397.62,473.68Z" transform="translate(-89.72 0)"/><path class="cls-10" d="M452.56,515.08a49.79,49.79,0,0,1,4,6.75c.72,1.39.43,2.23-1.18,2.23-6.74,0-13.42,1.11-20.23.23a45.81,45.81,0,0,0-20.83,2.29c-1.15.4-2.3.82-3.47,1.17-6.71,2-5.48,2.78-8.35-4.07a49.23,49.23,0,0,0-7.27-12l7-1.81c4.88-1.44,9.78-.54,14.55.32,10.41,1.88,20.91,2.9,31.41,4C449.68,514.37,451.07,514.94,452.56,515.08Z" transform="translate(-89.72 0)"/><path class="cls-8" d="M561.91,423.18c-4.67-3.47-6.93-8.57-9.08-13.69A132.29,132.29,0,0,1,544,379a66.26,66.26,0,0,1,3.14-33.31c.16-.28.31-.27.46,0,0,4.14-.84,8.22-.7,12.38.34,9.61,3.82,18.39,7,27.23,4.25,11.68,8.62,23.32,12.9,35,1.15,3.11,1.1,3.13-2.36,3.05C563.61,423.29,562.76,423.22,561.91,423.18Z" transform="translate(-89.72 0)"/><path class="cls-10" d="M381.41,333.14c.19-4.61.09-9.26.65-13.83,1.38-11.34-1.21-21.87-5.64-32.17-4.65-10.82-9.12-21.72-11.31-33.38a75.5,75.5,0,0,1-.91-24.18c.08-.6-.14-1.38.73-1.65,1.87.63,1.75,2.24,1.81,3.74.15,3.48-.23,7,.26,10.45A82.29,82.29,0,0,0,377.46,273a15.09,15.09,0,0,1,2,4.66c.92,11.91,6.67,21.82,13.11,31.4a3.89,3.89,0,0,1,.32,4.36C389.66,320.33,385.21,326.54,381.41,333.14Z" transform="translate(-89.72 0)"/><path class="cls-9" d="M524.55,246.37c-6.46,1.75-11.92,5.52-17.66,8.72-3.44,1.92-6.72,4.13-10.08,6.22-.4-9.46-.73-18.92-1.65-28.34-.11-1.18.18-1.78,1.46-1.78a21,21,0,0,1,5.3.56,77.45,77.45,0,0,1,12.53,4.1C519.21,238,522.25,241.83,524.55,246.37Z" transform="translate(-89.72 0)"/><path class="cls-11" d="M290.69,594.38c-1.7-1.27-3-.12-4.29.78-1.7,1.16-3.55,2.2-4.44,4.19A9.94,9.94,0,0,1,276,604.6c-1.44.55-2.77,1.8-4.21-.07-.41-.53-1.18-.26-1.85-.15a25.11,25.11,0,0,1-6.4.8c-.71.14-1.6.81-1.76-.62a3.58,3.58,0,0,0,.62-2.29c1.59-1.27,3.5-1.23,5.38-1.25a12.88,12.88,0,0,0,7.66-2.45,74.57,74.57,0,0,1,6.66-4.27,4.79,4.79,0,0,1,3.52-.94c-4.6-.94-8.64-1.41-12.47-2.69-2.15-.72-4.65-1.24-5.22-4.1,2.82-1.2,6.06-1.53,8.29-4,.6-.64,1.23-.27,1.84-.16,6.79,1.3,13.36,3.22,19.22,7,4.28,2.79,4.42,3.34,2.48,8.3A29.8,29.8,0,0,1,290.69,594.38Z" transform="translate(-89.72 0)"/><path class="cls-8" d="M268,586.57c3.06,3.85,7.71,3.9,11.92,4.95,1.9.47,3.84.76,6,1.19-7.42,4.8-14.16,10.37-23.49,9.56-1.8-2.18-4.23-1.18-6.31-1-3.6.39-6.63-1.2-9.89-2.08,3.1-1.11,6.28-.89,9.43-1,1.53-.05,3.32.08,3.28-2.07,0-2-1.78-1.8-3.19-1.85-2.66-.09-5.48.63-8.08-1.83a38.58,38.58,0,0,1,8.15-.39c1.5,0,3,.09,4.51.11,1.06,0,2.15,0,2.53-1.28s-.44-1.85-1.37-2.45c-.5-.32-1.19-.55-1.34-1.31Z" transform="translate(-89.72 0)"/><path class="cls-5" d="M379.42,277.62c-8.44-13.16-13.58-27.35-13.51-43.2,0-2.17.79-4.55-1-6.49l1-1.29c3.15-.45,3.58,1.48,3.49,3.94C369,242.76,372,254.19,377,265.15a5.14,5.14,0,0,0,1.47,2.36Q379,272.57,379.42,277.62Z" transform="translate(-89.72 0)"/><path class="cls-12" d="M452.56,515.08c-2.67.88-5.26-.2-7.88-.37-11.72-.72-23.22-3.22-34.88-4.42-2.52-.26-5.06-.27-7.6-.39a24.56,24.56,0,0,1,6.19-2.3,11.12,11.12,0,0,0,4.65-1.5,13.17,13.17,0,0,1,8,.57,120.35,120.35,0,0,0,30.24,6.73Z" transform="translate(-89.72 0)"/><path class="cls-9" d="M389.72,490.68a55.64,55.64,0,0,0-1.18-20.93,109.53,109.53,0,0,0-4.48-13c-.65-1.74-.72-3.09,1.1-4.05a42.37,42.37,0,0,0,5.91,9.24c2.45,3.13,3.45,6.3,2.64,10.14C392.4,478.27,391.85,484.64,389.72,490.68Z" transform="translate(-89.72 0)"/><path class="cls-13" d="M290.69,594.38a24.8,24.8,0,0,1,9.11,3.42c-3.18,4.79-8.3,6.75-13.22,8.91a17.11,17.11,0,0,1-6.57,1.35c-.56.2-1.16.45-1.1-.57a10.46,10.46,0,0,0,5.84-5.69c.67-1.69,2.15-2.5,3.55-3.41S291.08,596.42,290.69,594.38Z" transform="translate(-89.72 0)"/><path class="cls-14" d="M547.58,345.66h-.46a105.31,105.31,0,0,0,2.9-27.29c0-.32.29-.64.44-1a19.35,19.35,0,0,1,1.22,15.77C550.28,337.33,549.38,341.64,547.58,345.66Z" transform="translate(-89.72 0)"/><path class="cls-15" d="M304.42,596.73a10.61,10.61,0,0,1,.87,1.35c.73,1.69,2.76,3.73,1.8,5-1.26,1.66-4,1.48-6.33,1.44C302,601.91,303.14,599.44,304.42,596.73Z" transform="translate(-89.72 0)"/><path class="cls-16" d="M271.49,580.86c-5.87,3.09-6.22,3-8.25-2.21Z" transform="translate(-89.72 0)"/><path class="cls-17" d="M261.82,604.56c.42.69,1.13.55,1.76.62a21.8,21.8,0,0,1-10.44.55C256,604.89,259,605.48,261.82,604.56Z" transform="translate(-89.72 0)"/><path class="cls-18" d="M413,506.1c-1.22,1.54-2.86,1.73-4.65,1.5A13.36,13.36,0,0,1,413,506.1Z" transform="translate(-89.72 0)"/><path class="cls-19" d="M278.91,607.49l1.1.57c-.68.64-1.51.46-2.47.5A1.46,1.46,0,0,1,278.91,607.49Z" transform="translate(-89.72 0)"/><path class="cls-20" d="M320.11,485c.35-.7,1.05-.65,1.67-.77a1.87,1.87,0,0,1-1,1.47Z" transform="translate(-89.72 0)"/><path class="cls-10" d="M298.64,311.09c-1.54,3.23-1.18,6.76-1.55,10.16a81.11,81.11,0,0,0,.23,15.81c.66,7.58-.54,15-1.18,22.55-1,12.05-4.24,23.73-5.72,35.7-2.31,18.69-2.41,37.43-1.66,56.19.27,6.88.32,13.76.41,20.64,0,1.17-.39,2.5.84,3.39-9.89,1.61-19.67,1.61-29.2-2,1.3-11.42.71-22.92,1.5-34.37.38-5.54.14-11.09.58-16.64,1.48-18.64,2.51-37.28,7.83-55.4,3-10.28,4.12-21,5.86-31.55A87.78,87.78,0,0,1,285.83,309c1.88-3.58,3.82-7.12,6-11.09Z" transform="translate(-89.72 0)"/><path class="cls-8" d="M263.44,249.29c1.54-1.75.54-3.33-.35-4.89-3.48-6.12-7.54-11.93-10-18.6-.84-2.29-1.86-4.53-1.88-7,0-1.16.25-1.81,1.63-1.07,8.11,4.3,17,5.7,25.9,7.36.63.31,1.72.27,1.59,1.26-.54,4.48,2.92,6.41,5.59,8.73a6.73,6.73,0,0,1,2.53,4.08c.29.83,1,1,1.74,1.25a30.2,30.2,0,0,1,15.7,11,63,63,0,0,0,23.89,18.94c12.43,5.74,21.73,15.43,30.8,25.35.88,1,.62,1.53-.09,2.33a47.45,47.45,0,0,1-7.1,6c-5.4,4.08-10.17,9-16.29,12.11a69.48,69.48,0,0,1-14.38,2.4c-2.79.12-4.14-2-5.41-4-3-4.69-5.63-9.61-9.16-13.92-6.27-7.66-11.4-16.16-17.66-23.83-3.28-4-6.63-8-10.84-11-5.61-4.07-9.88-9.56-15.23-13.88C263.64,251.31,262.83,250.52,263.44,249.29Z" transform="translate(-89.72 0)"/><path class="cls-10" d="M274.32,118.48a76.71,76.71,0,0,0-5,19.89,4,4,0,0,0-.08.84c.09,2-.89,4.51,1.63,5.5s3.29-1.54,4.35-3c5.09-7.16,11.83-12.57,18.63-17.94a6.76,6.76,0,0,1,1.25-.56c0,1.43.55,2.67-.48,3.8a6.5,6.5,0,0,1-1.59,2.31c-5.67,4.13-9.45,9.92-13.55,15.43a14.92,14.92,0,0,1-6.08,4.81,29.51,29.51,0,0,0-13.57,12.77,201.69,201.69,0,0,0-8.8,18.33c-3,7-3.81,14.34-4.26,21.76a42,42,0,0,1-.71,7c-.84,3.66,0,7.06,1.09,10.47a65.53,65.53,0,0,0,9.38,21.39c-1.93,0-2.73-1.15-3.53-1.84-5.44-4.72-10.31-9.93-13.25-16.67a11.47,11.47,0,0,1-.93-7.44,3.21,3.21,0,0,0-1.06-3.45,79.64,79.64,0,0,1-9.52-11.51c-3.2-4.89-4.43-10.33-4.88-16-.42-5.15-.89-10.31-1-15.47a86.52,86.52,0,0,1,.74-9.33c1.38,2.6,2.37,4.59,3.48,6.5.76,1.32,1.73,2.65,3.55,2.19s1.83-2.12,1.81-3.67c0-4.9,0-9.81-.1-14.72-.27-11.22,3.42-21.3,8.94-30.8a105.34,105.34,0,0,1,12.4-16.43c.73-.82,1.58-1.52,2.93-2.81-1.32,5.44-2.64,10-3.52,14.72a66.64,66.64,0,0,0,.61,25.79c.31,1.54.65,3,2.63,3.11s2.58-1.37,3.1-2.79a62.31,62.31,0,0,1,14.82-22.76C274.25,117.74,274.5,117.9,274.32,118.48Z" transform="translate(-89.72 0)"/><path class="cls-8" d="M247.15,219.88a8.2,8.2,0,0,1-2.1-6.17c1-8.51.2-17.37,2.78-25.52,3.9-12.37,8.28-24.74,17.87-34.22a20.94,20.94,0,0,1,8.94-5.73c1.65-.47,2.61-1.79,3.57-3.09,4.84-6.62,9.64-13.29,16.41-18.17-.87,5.58-1.92,11.15-2.55,16.76-.69,6.19-1.2,12.41,2.27,18.16,1.71,2.84,3.94,4.49,7.3,4.27,3-.2,6-.86,9.64-.6l-4.78,3a16.18,16.18,0,0,0-1.64,1.1c-1.72,1.43-4,2.69-3.83,5.26.15,2.78,3,2.76,5.13,3.81a23.7,23.7,0,0,1-10.76,2.94c-1.37,0-2.72-.24-3,1.61-.07.41-.21.82-.65.7-3-.81-4.64,1.57-6.85,2.67-.4.2-1.82-1.67-2.77-2.59s-2.23-2.52-3.78-1-.2,2.84.89,3.85c8.87,8.22,14,18.8,18.83,29.6.25.58.42,1.2.88,2.56-5-4-9.45-7.48-14.43-10.2-4.71-2.57-9.4-5.19-14.72-6.34-5.07-1.1-8.95.66-11.26,5.23a2.73,2.73,0,0,1-2.4,1.85C249.89,210.47,247.3,213.55,247.15,219.88Z" transform="translate(-89.72 0)"/><path class="cls-10" d="M263.44,249.29c-.13.93.59,1.32,1.14,1.81,5.7,4.94,10.8,10.51,16.73,15.23,7.53,6,12.92,13.93,18.4,21.74,6.37,9.11,13.58,17.65,19,27.42a4.62,4.62,0,0,0,5,2.43c4.5-.44,8.86-1.9,13.43-1.75-3.54,3.48-8.14,5.31-12.28,7.86a28.7,28.7,0,0,1-8.45,3.81c-1.94.46-2.91-.1-3.94-1.62-6.54-9.6-11.76-20-17.08-30.25A87,87,0,0,0,272,268c-7-5.59-12.71-12.23-15.68-21C258.89,247.36,260.43,250.62,263.44,249.29Z" transform="translate(-89.72 0)"/><path class="cls-10" d="M288.46,239.12c-1.38-3-4.58-4.29-6.61-6.72-1.42-1.71-2.87-3.28-2-5.72.37-1.07-.5-1.23-1.07-1.63,6.65.76,13.26,1.93,20,1.71,1.44,0,2.28,1.1,3.27,2,2.07,1.8,3.29,1.34,4-1.43.17-.29.34-.31.52,0,4.68,12.08,12.61,21.87,21.55,31,3.48,3.55,6.78,7.28,10.16,10.93.14.52,0,.78-.59.61-4.08-2.12-8.16-4.26-12.26-6.37-7-3.62-12.27-9.24-17.16-15.25a34,34,0,0,0-16-11C290.47,236.56,288.47,236.15,288.46,239.12Z" transform="translate(-89.72 0)"/><path class="cls-10" d="M254.62,214.71c1.15-1,1.83-1.42,2.86-.27,1.64,1.82,2.58.6,3.19-1.06.23-.61.28-1.28.48-1.9,1.59-5,4-6.29,9-4.79,7.3,2.21,13.72,6.16,19.82,10.6,2,1.44,4.16,2.84,5.81,5.55C281.47,221.89,267.85,220.05,254.62,214.71Z" transform="translate(-89.72 0)"/><path class="cls-8" d="M306.5,189.37c3.7,8.55,5.26,17.59,6.21,26.78.21,2-.59,2.72-2.35,3.33-5.78,2-5.8,2.11-8.09-3.42a144.7,144.7,0,0,0-6.51-13.73c-.15-1,.26-1.33,1.19-1.21,3.52.23,3.15-2.79,3.83-4.78.45-1.32-.11-2.76-.37-4.13A11.84,11.84,0,0,1,306.5,189.37Z" transform="translate(-89.72 0)"/><path class="cls-10" d="M356.86,320.07c.55,6.63-1,13-2.41,19.95A102.25,102.25,0,0,0,346,325.45c-1.57-2.19-4.9-4.29-4.35-6.48s3.93-3.45,6.08-5.11c1-.75,1.95-1.47,2.93-2.2C353.52,313.89,354.67,317.36,356.86,320.07Z" transform="translate(-89.72 0)"/><path class="cls-10" d="M356.31,350.17c1.23,5.82,0,11.61-.24,17.41a58.42,58.42,0,0,0,2.56,20c-5,3.33-4.92,3.31-5.71-2.58-1.4-10.46.83-20.59,2.61-30.76C355.77,352.91,355.36,351.39,356.31,350.17Z" transform="translate(-89.72 0)"/><path class="cls-10" d="M337.25,260.56c-3.83-6-7.9-11.79-10.2-18.6-.56-1.65-1.54-3.22-1.21-5.1,3.69,7.87,9,14.62,14.25,21.47a31.7,31.7,0,0,1,5.76,13.29l-7.6-8.4A15.47,15.47,0,0,1,337.25,260.56Z" transform="translate(-89.72 0)"/><path class="cls-10" d="M297,201.12l-1.19,1.21c-2.28-3.56-4.17-7.36-6.83-10.69a2.36,2.36,0,0,1,.07-3.12c.83-1.11,1.87-1,3-.52,4.17,1.79,5.74,5.2,4.27,9.66C295.86,199,295.47,200.2,297,201.12Z" transform="translate(-89.72 0)"/><path class="cls-10" d="M306.5,189.37c-1.71,1.63-3.95,2.13-6.09,2.84-.56-2.85-2.52-4.73-5-6.81a20.83,20.83,0,0,0,7.67-1.26c1.12-.4,1.62-.33,1.89,1A27.66,27.66,0,0,0,306.5,189.37Z" transform="translate(-89.72 0)"/><path class="cls-21" d="M356.86,320.07c-3.07-2.05-4.2-5.54-6.17-8.41,4.39-3.57,4.42-3.58,5.52,2A19.41,19.41,0,0,1,356.86,320.07Z" transform="translate(-89.72 0)"/><path class="cls-22" d="M337.25,260.56a2.66,2.66,0,0,1,1,2.66l-1.71-2Z" transform="translate(-89.72 0)"/><path class="cls-23" d="M306.54,227.27h-.26l-.26,0c-.11-.85-.22-1.7-.38-2.91C306.91,225.36,306.45,226.39,306.54,227.27Z" transform="translate(-89.72 0)"/><path class="cls-24" d="M274.32,118.48l-.61-.6a2.57,2.57,0,0,1,1.44-1.38A2,2,0,0,1,274.32,118.48Z" transform="translate(-89.72 0)"/><path class="cls-25" d="M337.66,269.79l.59-.61c.51.23,1.23.76.92,1.13C338.62,271,338.1,270.21,337.66,269.79Z" transform="translate(-89.72 0)"/><path class="cls-26" d="M421.37,540.6c-1.28-2.61.13-5.41-.5-8-.74-3,.32-4.05,3.29-4.25,2.24-.15,4.49-.26,6.73-.23,5.15,0,10.27.91,15.43.52a1.89,1.89,0,0,1,2,1.13c.76,1.38,1.69,2.67,2.55,4-3.26,2.2-7.08,1.58-10.65,1.88-5.24.44-10.47,1.2-15.74,1.26a2,2,0,0,0-2.27,2A2.28,2.28,0,0,1,421.37,540.6Z" transform="translate(-89.72 0)"/><path class="cls-8" d="M421.37,540.6c0-.85,0-1.7-.07-2.54-.1-1.31.43-1.83,1.77-1.92,7.14-.5,14.27-1.17,21.41-1.57,2.18-.12,4.24-.83,6.41-.81,2.95,4.71,2.95,4.69-2.42,5.9-7.34,1.64-14.84,2.07-22.27,3C424.36,542.89,422.4,542.64,421.37,540.6Z" transform="translate(-89.72 0)"/><path class="cls-10" d="M289.7,480.55c.63,2,0,4-.14,6-.05,1-.15,1.85,1.17,2a108.68,108.68,0,0,1-14.93,2.26c-4.06.37-8,.52-12-.63-4.12-1.21-4.78-2.41-4-6.61.21-1.2.27-2.43.39-3.64,5.23,1.18,10.39,2.56,15.84,2.47C280.67,482.29,285.14,481.14,289.7,480.55Z" transform="translate(-89.72 0)"/><path class="cls-26" d="M257.3,494.63c.53-1.51,1.11-2.23,3-1.41,6.28,2.67,12.89,1.9,19.41,1.18a223.22,223.22,0,0,0,24.5-4.3c-2,3.85-2.92,8-7.91,8.53-2.68.78-5.49.24-8.18.87a2.54,2.54,0,0,1-.93.23c-2.08.08-4.16.25-6.22.53-2.89.21-5.76.8-8.67.64a27.56,27.56,0,0,1-11.75-2.41C258.93,497.83,257.44,496.73,257.3,494.63Z" transform="translate(-89.72 0)"/><path class="cls-27" d="M257.3,494.63c2.78,4.16,7.32,4.5,11.63,5.32,1,.2,2,.3,3.06.44.37.67,1.81-.45,1.7,1-5.42.56-10.67,2.28-16.17,2.23-1.42,0-3,.14-3.82-1.27s0-2.91.87-4.16S256.38,495.82,257.3,494.63Z" transform="translate(-89.72 0)"/><path class="cls-28" d="M273.69,501.41l-1.7-1,9.19-.53c.18.19.55.18.55.55A35.12,35.12,0,0,1,273.69,501.41Z" transform="translate(-89.72 0)"/><path class="cls-29" d="M287.8,499.1c2.8-.89,5.69-.27,8.54-.47a9.59,9.59,0,0,1-5.68,1.06C289.79,499.08,288.61,500,287.8,499.1Z" transform="translate(-89.72 0)"/><path class="cls-30" d="M281.73,500.41l-.55-.55,6.14-.63a.65.65,0,0,1,0,1Z" transform="translate(-89.72 0)"/><path class="cls-31" d="M287.32,500.24v-1a1.15,1.15,0,0,1,.48-.13c.92.34,2-.27,2.86.59Z" transform="translate(-89.72 0)"/><path class="cls-26" d="M361.54,196.7c0,.19,0,.38,0,.56.19,1.23,2,2.36.87,3.51s-3.06.73-4.57.3c-3.91-1.13-7.36-3.31-10.94-5.15-4.17-2.14-8.19-4.58-12.24-6.94-2.49-1.45-2.72-2.71-1-4.84a221.84,221.84,0,0,1,22,10.86A11.14,11.14,0,0,0,361.54,196.7Z" transform="translate(-89.72 0)"/><path class="cls-32" d="M361.54,196.7a2.86,2.86,0,0,1-3.32.36c-7.65-3.81-14.91-8.43-23-11.31a3.29,3.29,0,0,1-1.53-1.61c.94-2.59,2.86-1.87,4.58-1.22,5.87,2.2,11.34,5.3,16.92,8.12,1.76.89,3.51,1.77,5.23,2.72C361.56,194.4,362.39,195.25,361.54,196.7Z" transform="translate(-89.72 0)"/><path class="cls-32" d="M394.29,180.22c2.66,0,2.82,1.6,1.92,3.36-3,5.92-6.19,11.76-9.31,17.63a2,2,0,0,1-2.24,1.3c-1.46-.29-1-1.57-1.17-2.52,2.6-6.53,6.4-12.45,9.59-18.68C393.31,180.86,393.88,180.58,394.29,180.22Z" transform="translate(-89.72 0)"/></svg>